<?xml version="1.0" encoding="UTF-8" standalone="no"?>
<svg width="45px" height="46px" viewBox="0 0 45 46" version="1.1" xmlns="http://www.w3.org/2000/svg" xmlns:xlink="http://www.w3.org/1999/xlink" xmlns:sketch="http://www.bohemiancoding.com/sketch/ns">
    <!-- Generator: Sketch 3.3.2 (12043) - http://www.bohemiancoding.com/sketch -->
    <title>child-care-icon</title>
    <desc>Created with Sketch.</desc>
    <defs></defs>
    <g id="Styleguide" stroke="none" stroke-width="1" fill="none" fill-rule="evenodd" sketch:type="MSPage">
        <g id="child-care-icon" sketch:type="MSLayerGroup" transform="translate(0.000000, 0.500000)" fill="#5F3815">
            <path d="M41.4322727,27.5080374 C41.4322727,29.4182243 41.8881818,30.9961682 41.3445455,32.1813084 C39.8813636,35.37 38.3836364,38.661729 36.1709091,41.4100935 C33.4222727,44.8242056 27.8772727,45.5164486 23.2881818,43.615514 C20.5954545,42.5001869 17.7681818,41.4849533 15.4277273,39.8893458 C14.1086364,38.9893458 13.6263636,37.0160748 12.8213636,35.5016355 C12.23,34.3892523 11.7259091,33.2364953 11.0390909,31.8015421 C13.1854545,28.3617757 17.2768182,27.5992991 21.3527273,27.1392056 C25.3640909,26.6862617 29.44,26.7400935 33.4704545,26.4011215 C34.3736364,26.325 35.1963636,25.5225701 36.0736364,25.0847664 C37.9218182,24.1620561 39.7,23.0050935 41.6736364,22.4642523 C42.5613636,22.2207477 43.8486364,23.2246262 44.9540909,23.6628505 C44.525,24.5233178 44.2681818,25.5259346 43.6168182,26.2038785 C42.9672727,26.8801402 41.9218182,27.2308879 41.4322727,27.5080374 L41.4322727,27.5080374 Z M12.9759091,32.5497196 C13.9327273,35.5920561 14.8945455,38.547757 18.0968182,40.1669159 C19.1286364,40.6888318 20.5336364,40.6816822 21.4213636,41.3259813 C24.3581818,43.4557009 31.6272727,43.6264486 34.4840909,41.4332243 C37.9609091,38.7635047 38.8627273,34.8480841 40.4181818,31.2514486 C36.5345455,34.6466355 19.5877273,35.5449533 12.9759091,32.5497196 L12.9759091,32.5497196 Z M14.0372727,30.5390187 C14.0336364,30.8329907 14.0304545,31.1269626 14.0268182,31.4209346 C14.9527273,31.4844393 15.8945455,31.6804206 16.8018182,31.5883178 C20.2022727,31.2421963 23.6004545,30.4393458 26.9818182,30.513785 C29.615,30.5718224 30.98,29.3841589 32.4386364,27.7376636 C26.2227273,28.3386449 19.6613636,26.9385981 14.0372727,30.5390187 L14.0372727,30.5390187 Z M43.6872727,23.9172897 C39.4759091,23.5328972 33.8518182,26.9436449 30.8818182,31.3851869 C35.6290909,29.7407944 40.0477273,27.7885514 43.6872727,23.9172897 L43.6872727,23.9172897 Z M34.2877273,31.0192991 C36.9313636,32.513972 38.4286364,31.4491121 39.7668182,29.9447664 C39.6754545,29.7058879 39.5845455,29.4674299 39.4936364,29.2285514 C37.8427273,29.796729 36.1913636,30.364486 34.2877273,31.0192991 L34.2877273,31.0192991 Z M25.8722727,31.278785 C23.3113636,31.763271 21.3477273,32.1346262 19.3845455,32.5055607 C19.4354545,32.7263551 19.4863636,32.9471495 19.5372727,33.1675234 C21.5022727,32.7961682 23.8781818,34.0355607 25.8722727,31.278785 L25.8722727,31.278785 Z" id="Fill-1" sketch:type="MSShapeGroup"></path>
            <path d="M35.2490909,33.3386916 C35.6068182,37.3689252 31.4286364,37.8340654 28.7131818,39.5747664 C28.4740909,39.4528037 28.2354545,39.3312617 27.9968182,39.2097196 C28.2840909,38.644486 28.4109091,37.886215 28.8863636,37.5480841 C30.9709091,36.0664486 33.1559091,34.7063551 35.2490909,33.3386916" id="Fill-2" sketch:type="MSShapeGroup"></path>
            <path d="M15.8490909,40.136215 C11.6545455,41.6094393 4.68136364,41.0601869 3.12045455,37.8260748 C4.06590909,37.2372897 5.01363636,36.6468224 5.96090909,36.0563551 C5.89090909,35.8624766 5.84727273,35.6690187 5.77681818,35.4751402 C4.78636364,35.7699533 3.63636364,36.0643458 2.72727273,36.3907009 L2.72727273,19.5943458 C8.18181818,20.6285047 13.2731818,20.8501402 18.6227273,18.6985514 C18.6759091,19.1880841 18.76,19.6898131 18.7636364,20.1919626 C18.785,22.6379439 18.8009091,25.0835047 18.8186364,27.529486 L19.6859091,27.3814486 C19.6681818,26.0638318 19.6572727,24.7466355 19.6786364,23.4294393 C19.7395455,19.668785 20.1054545,15.9131776 20.2122727,12.1525234 C20.2990909,9.10093458 19.24,8.03817757 15.9886364,7.54317757 C13.2286364,7.12303738 12.2645455,5.89836449 12.1354545,3.26271028 C12.0877273,2.29247664 11.6018182,0.77046729 10.8786364,0.499205607 C8.10090909,-0.542102804 6.06681818,1.19649533 6.57363636,3.9053271 C7.075,6.58724299 6.73409091,7.0296729 3.89409091,7.63654206 C2.00772727,8.03943925 0.503636364,8.99158879 0.281818182,10.8757009 C0.103181818,12.3914019 0.116818182,13.9764953 0.385909091,15.4783178 C1.52727273,21.8426636 1.89090909,28.2133178 1.16636364,34.6436916 C0.798636364,37.9042991 2.92045455,40.5668692 6.38727273,41.3625701 C7.61454545,41.6439252 8.90045455,41.7065888 10.0159091,41.8504206 C11.7740909,41.6712617 13.3668182,41.6001869 14.9190909,41.3318692 C15.7327273,41.1909813 16.4163636,41.0210748 16.9977273,40.8103738 L15.8490909,40.136215 L15.8490909,40.136215 Z M5.69681818,8.35065421 C8.10909091,7.14196262 8.55363636,5.65528037 7.665,3.38214953 C7.47863636,2.90481308 8.305,1.65574766 8.91181818,1.47574766 C9.45545455,1.3146729 11.0163636,2.23948598 10.9686364,2.50990654 C10.4559091,5.41892523 12.1704545,7.02084112 14.5468182,8.3603271 C14.9704545,8.59920561 15.2459091,9.06308411 15.9563636,9.80621495 C14.6990909,10.4164486 13.6886364,11.2436916 12.5836364,11.3715421 C10.4631818,11.6171495 8.23045455,11.7546729 6.15409091,11.3938318 C4.27727273,11.0674766 4.01,9.19598131 5.69681818,8.35065421 L5.69681818,8.35065421 Z M1.50727273,10.5985514 C1.74409091,9.72378505 2.93863636,9.07065421 3.69772727,8.31658879 C2.90454545,10.7407009 3.065,11.0178505 6.11181818,13.084486 C4.80636364,12.4157944 3.50090909,11.7475234 2.13772727,11.0493925 C2.05318182,11.3997196 1.92045455,11.9514953 1.795,12.4746729 C2.62454545,12.9440187 3.57,13.3485981 4.34227273,13.9453738 C5.69818182,14.9929907 6.76727273,13.5584579 8.04227273,13.7018692 C9.44590909,13.86 10.9109091,13.8242523 12.3127273,13.6371028 C13.5954545,13.4659346 14.8295455,12.9806075 15.5490909,12.7816822 C18.0000002,9.49999996 16.1709091,9.66238318 16.4490909,8.26738318 C18.1172727,8.71023364 19.3331818,9.85836449 19.3486364,12.0751402 C19.3772727,16.0982243 19.05,16.9317757 16.1004545,17.5773364 C13.2559091,18.1997664 10.3245455,18.8806542 7.44681818,18.8264019 C5.67181818,18.7931776 3.31318182,19.1906075 1.97545455,17.0402804 C0.639090909,14.8920561 0.931818182,12.7236449 1.50727273,10.5985514 Z" id="Fill-3" sketch:type="MSShapeGroup"></path>
        </g>
    </g>
</svg>