<?xml version="1.0" encoding="UTF-8" standalone="no"?>
<svg width="37px" height="35px" viewBox="0 0 37 35" version="1.1" xmlns="http://www.w3.org/2000/svg" xmlns:xlink="http://www.w3.org/1999/xlink" xmlns:sketch="http://www.bohemiancoding.com/sketch/ns">
    <!-- Generator: Sketch 3.3.2 (12043) - http://www.bohemiancoding.com/sketch -->
    <title>contact-icon</title>
    <desc>Created with Sketch.</desc>
    <defs></defs>
    <g id="Styleguide" stroke="none" stroke-width="1" fill="none" fill-rule="evenodd" sketch:type="MSPage">
        <g id="contact_btn" sketch:type="MSLayerGroup" transform="translate(1.000000, 1.000000)" fill="#FFFFFF">
            <path d="M18.9090909,22.6363636 C18.7426471,22.4235741 18.5397059,22.3003802 17.8181818,22.6363636 L13.4545455,22.6363636 C11.4323529,22.3003802 10.1176471,21.1095057 10.1818182,19.3636364 L10.1818182,15 C8.87794118,15 8,15.9353612 8,17.1818182 L8,22.6363636 C8,24.0980989 8.94411765,24.8098859 10.1818182,24.8181818 L11.2727273,24.8181818 L11.2727273,27 L13.4545455,24.8181818 C13.25,24.8828897 13.4,24.8098859 13.4545455,24.8181818 L17.8181818,24.8181818 C18.725,24.8098859 19.8014706,24.2897338 20,23.7272727 L18.9090909,22.6363636 Z M23.5714286,8 L13.2857143,8 C12,8 11,9.21818182 11,10.2857143 L11,13.7142857 L11,18.2857143 C11,19.8681818 12.3333333,21.0909091 14.4285714,20.5714286 L19,20.5714286 C19.2952381,21.0909091 19.5142857,21.1954545 20.1428571,21.7142857 L23.5714286,24 L23.5714286,20.5714286 C25.6571429,21.0909091 27,19.8681818 27,18.2857143 L27,10.2857143 C27,9.21818182 25.6571429,8 23.5714286,8 Z" id="contact-icon" sketch:type="MSShapeGroup"></path>
        </g>
    </g>
</svg>