<?xml version="1.0" encoding="UTF-8" standalone="no"?>
<svg width="45px" height="26px" viewBox="0 0 45 26" version="1.1" xmlns="http://www.w3.org/2000/svg" xmlns:xlink="http://www.w3.org/1999/xlink" xmlns:sketch="http://www.bohemiancoding.com/sketch/ns">
    <!-- Generator: Sketch 3.3.2 (12043) - http://www.bohemiancoding.com/sketch -->
    <title>cooking-icon copy</title>
    <desc>Created with Sketch.</desc>
    <defs></defs>
    <g id="Styleguide" stroke="none" stroke-width="1" fill="none" fill-rule="evenodd" sketch:type="MSPage">
        <g id="cooking-icon-copy" sketch:type="MSLayerGroup" transform="translate(0.000000, 0.500000)" fill="#5F3815">
            <path d="M43.8165957,4.34461806 C40.0129787,5.22013889 36.5910638,7.15972222 33.0880851,8.87638889 C32.5871809,9.121875 32.0224468,9.50989583 31.5457979,9.42795139 C31.1218085,9.35520833 30.8663298,9.465625 30.5601064,9.63680556 C29.7344681,10.0987847 28.9409043,10.6432292 28.0859043,11.0260417 C23.4734043,13.0916667 18.8473404,15.1213542 14.2193617,17.1456597 C14.04,17.2241319 13.7923404,17.1251736 13.5775532,17.0980903 C13.4436702,17.08125 13.295266,16.9864583 13.1816489,17.025 C11.2844681,17.6675347 9.38952128,18.3178819 7.50159574,18.9913194 C7.2968617,19.0642361 7.13840426,19.2902778 6.95824468,19.4453125 C7.56079787,20.0748264 8.16335106,20.7041667 8.76606383,21.3336806 C9.03893617,21.2828125 9.33558511,21.2899306 9.58085106,21.1715278 C10.8178723,20.5739583 12.1255851,20.0848958 13.250266,19.2918403 C14.9628191,18.0842014 16.2960638,18.353125 17.7903191,19.7848958 C18.6936702,20.6503472 19.6507979,21.5779514 20.9891489,21.8484375 C23.8629255,22.4295139 26.6790957,22.2519097 29.5259043,21.6232639 C31.715266,21.1399306 33.5546809,19.8831597 35.5013298,18.8394097 C36.2795745,18.4220486 37.1940957,18.2600694 37.9065957,17.7503472 C41.9958511,14.8258681 43.9132979,10.4194444 44.8337234,5.3796875 C44.9782979,4.58784722 44.5214362,4.18246528 43.8165957,4.34461806 L43.8165957,4.34461806 Z M34.4428723,17.8994792 C34.3081915,16.85625 34.5328723,16.6378472 35.6570745,16.7631944 C35.2849468,17.1114583 34.9129787,17.4595486 34.4428723,17.8994792 L34.4428723,17.8994792 Z M38.6259574,13.6559028 C38.4785106,13.6109375 38.3310638,13.5661458 38.183617,13.5213542 C38.3060106,13.0826389 38.4285638,12.6440972 38.5509574,12.2055556 C38.6873936,12.2486111 38.8239894,12.2916667 38.9604255,12.3348958 C38.8490426,12.7751736 38.7375,13.2154514 38.6259574,13.6559028 L38.6259574,13.6559028 Z M39.8719149,11.8354167 C39.5751064,10.8836806 39.9060638,10.5767361 40.4154255,10.3852431 C40.4953723,10.4460069 40.5754787,10.5067708 40.6555851,10.5675347 C40.4275532,10.9364583 40.1995213,11.3053819 39.8719149,11.8354167 L39.8719149,11.8354167 Z M41.5662766,7.70659722 C40.5785106,9.43125 38.8884574,9.51736111 37.532234,10.625 C38.1880851,10.3640625 38.6289894,10.1887153 39.0700532,10.0131944 C39.1171277,10.0998264 39.1642021,10.1866319 39.211117,10.2732639 C38.8121809,10.5777778 38.4132447,10.8824653 37.9611702,11.2274306 C38.2970745,11.2013889 38.5835106,11.1793403 39.0368617,11.1444444 C38.0751064,12.9907986 36.0400532,12.6288194 35.0092021,14.0491319 C35.7896809,13.6652778 36.5701596,13.2814236 37.6030851,12.7734375 C37.5094149,13.3166667 37.5212234,13.678125 37.3764894,13.9348958 C37.280266,14.1053819 36.9571277,14.11875 36.7407447,14.2161458 C36.5278723,14.3119792 36.2961702,14.3888889 36.117766,14.5380208 C35.7473936,14.8475694 35.4090957,15.2019097 35.0537234,15.5331597 C34.6803191,15.8810764 33.9615957,15.8234375 34.0354787,16.7269097 C34.0523936,16.9331597 33.4322872,17.2010417 32.994734,17.5217014 C33.283883,17.5425347 33.4825532,17.5567708 33.7739362,17.5777778 C32.9511702,18.7390625 31.8654255,19.2975694 30.7662766,19.7715278 C28.2038298,20.8765625 25.5274468,21.1927083 22.797766,20.8447917 C22.3326064,20.7855903 21.8672872,20.4855903 21.4581383,20.2012153 C20.6559574,19.6432292 19.9231915,18.9616319 19.1007447,18.4463542 C18.7322872,18.2154514 18.2001064,18.3178819 17.7737234,18.1651042 C17.4237766,18.0399306 17.1204255,17.7611111 16.7963298,17.5503472 C17.034734,17.2836806 17.2292553,16.8861111 17.5185638,16.7713542 C19.7269149,15.8953125 21.9796277,15.1463542 24.1689894,14.2197917 C27.725266,12.7147569 31.238617,11.0904514 34.7805319,9.5453125 C36.5202128,8.78645833 38.2902128,8.11059028 40.0318085,7.35711806 C40.5426064,7.13611111 41.0032979,6.77743056 41.5699468,6.43107639 C41.9489362,7.35677083 41.233883,7.36875 40.8722872,7.59739583 C40.4728723,7.85017361 40.0281383,8.01805556 39.6346277,8.32291667 C40.2051064,8.14097222 40.7755851,7.95885417 41.5662766,7.70659722 L41.5662766,7.70659722 Z" id="Fill-1" sketch:type="MSShapeGroup"></path>
            <path d="M6.30670213,19.4461806 C4.98893617,19.8270833 3.69175532,20.3138889 2.35755319,20.5972222 C1.64106383,20.7494792 1.14430851,21.1154514 0.716648936,21.6675347 C0.00845744681,22.5819444 -0.193723404,23.7411458 0.206968085,24.3633681 C0.637819149,25.0324653 1.39148936,25.134375 2.61526596,24.6890625 C2.76574468,24.6342014 2.92324468,24.5958333 3.06590426,24.5232639 C4.86335106,23.6100694 6.66079787,22.6970486 8.44994681,21.7652778 C8.58718085,21.69375 8.66202128,21.4809028 8.76606383,21.3336806 C8.16335106,20.7041667 7.56079787,20.0748264 6.95824468,19.4453125 C6.74042553,19.4427083 6.50968085,19.3876736 6.30670213,19.4461806" id="Fill-2" sketch:type="MSShapeGroup"></path>
            <path d="M27.6012766,9.59236111 C27.6333511,9.40173611 27.6343085,9.19670139 27.7024468,9.02291667 C28.1676064,7.8390625 28.0578191,7.28697917 27.1418617,6.47934028 C26.6878723,6.07916667 26.2086702,5.71319444 25.7471809,5.32309028 C24.9568085,4.65520833 24.4528723,3.81597222 24.3919149,2.69375 C24.3668617,2.23385417 24.3430851,1.75347222 24.2055319,1.32552083 C23.9395213,0.497395833 24.447766,0.290104167 24.9641489,0.117361111 C25.599734,-0.0951388889 25.8274468,0.376041667 25.9249468,0.9359375 C25.9884574,1.30104167 25.989734,1.67881944 26.0216489,2.0859375 C25.7909043,2.18072917 25.5789894,2.26788194 25.3045213,2.38055556 C25.5845745,3.85121528 26.5940426,4.559375 27.5856383,5.34583333 C28.6926064,6.22361111 29.2536702,7.68802083 28.6469681,8.95642361 C28.4800532,9.30538194 28.1136702,9.54166667 27.838883,9.82986111 C27.759734,9.75069444 27.6804255,9.67152778 27.6012766,9.59236111" id="Fill-3" sketch:type="MSShapeGroup"></path>
            <path d="M24.6237766,11.0932292 C24.6526596,10.6335069 24.6564894,10.2258681 24.7078723,9.82534722 C24.8305851,8.86979167 24.7830319,8.08541667 23.9221277,7.4140625 C23.371117,6.984375 23.0385638,6.16059028 22.7280319,5.45121528 C22.5387766,5.01927083 22.6531915,4.52482639 23.1673404,4.5078125 C23.4984574,4.94479167 23.7876064,5.28871528 24.0378191,5.66354167 C24.7134574,6.67586806 25.4917021,7.6359375 26.0029787,8.740625 C26.4679787,9.74565972 25.8454787,10.7258681 24.6237766,11.0932292" id="Fill-4" sketch:type="MSShapeGroup"></path>
            <path d="M30.3331915,8.40885417 C30.4428191,7.99670139 30.452234,7.90677083 30.4887766,7.83263889 C31.0380319,6.72118056 30.9564894,6.24982639 30.0440426,5.39774306 C29.5431383,4.93003472 29.0213298,4.48854167 28.5295213,4.01041667 C28.3362766,3.82239583 28.1226064,3.58975694 28.056383,3.33489583 C27.9807447,3.04392361 28.0590957,2.70555556 28.0705851,2.38784722 C28.3776064,2.52586806 28.7195745,2.61041667 28.9831915,2.81493056 C29.3339362,3.08680556 29.6015426,3.48333333 29.9441489,3.77100694 C30.7884574,4.48038194 31.6010106,5.2078125 31.9680319,6.35572917 C32.1872872,7.04114583 31.9761702,7.64236111 31.5212234,8.06666667 C31.281383,8.29045139 30.8505319,8.27222222 30.3331915,8.40885417" id="Fill-5" sketch:type="MSShapeGroup"></path>
        </g>
    </g>
</svg>