<?xml version="1.0" encoding="UTF-8" standalone="no"?>
<svg width="45px" height="45px" viewBox="0 0 45 45" version="1.1" xmlns="http://www.w3.org/2000/svg" xmlns:xlink="http://www.w3.org/1999/xlink" xmlns:sketch="http://www.bohemiancoding.com/sketch/ns">
    <!-- Generator: Sketch 3.3.2 (12043) - http://www.bohemiancoding.com/sketch -->
    <title>cuoituan-blk</title>
    <desc>Created with Sketch.</desc>
    <defs></defs>
    <g id="Page-1" stroke="none" stroke-width="1" fill="none" fill-rule="evenodd" sketch:type="MSPage">
        <path d="M23.81716,44.4493971 C16.2018629,44.4493971 10.6357618,44.3742234 5.07277022,44.4769608 C1.54420415,44.5421113 -0.131845302,43.1797974 0.00808461494,39.0803267 C0.353245076,28.946081 0.52427053,18.8009769 0.563139952,8.65921392 C0.576355555,5.16697942 1.93445314,4.08113756 5.00047309,4.06860861 C7.42126065,4.05858546 10.4561851,5.35741938 11.5942817,1.11929505 C11.9697603,-0.279770428 13.8549273,0.256468401 14.2770492,1.62629968 C15.1034131,4.30498804 16.9831383,4.09283124 18.9180581,4.16048754 C20.8560874,4.2289791 22.7995585,4.34758645 24.7228175,4.60484744 C27.0433219,4.91556527 28.8997255,5.12271049 29.5402936,1.68560335 C29.979518,-0.671508763 32.335005,-0.364131989 32.8737351,1.42166025 C33.9201,4.88967212 36.1053388,3.85895761 38.1475382,3.71445711 C44.8400752,3.2433688 45.1922322,3.55575715 44.9473548,10.882684 C44.6402864,20.0513656 44.3269988,29.2200473 43.9002126,38.3820468 C43.6226849,44.3374718 42.4635988,45.392409 36.8905011,44.8895807 C31.8514694,44.4351976 26.8155471,44.3032261 23.81716,44.4493971 L23.81716,44.4493971 L23.81716,44.4493971 Z M3.18060679,23.5912101 C3.19149022,23.5912101 3.20237366,23.5912101 3.2132571,23.5903748 C3.2132571,27.8936497 3.3881695,32.2069477 3.15728513,36.496023 C2.97693102,39.8345692 3.90979713,41.1283915 7.1965954,41.2035652 C17.2598886,41.4332625 27.3418391,41.1016631 37.3856976,42.139895 C39.5577208,42.3637454 40.8326379,41.1960478 40.9414722,38.8038546 C41.3869158,28.9602805 42.0733498,19.1258942 41.9349746,9.25726221 C41.9100982,7.48483418 41.2594241,6.75063802 39.5989224,6.86506905 C37.1750253,7.03212164 34.654732,6.67045278 32.6661724,8.72018811 C32.0465939,9.35832903 31.216343,9.57382687 30.5322412,9.05095225 C26.2511631,5.77755666 21.3046406,7.86989041 16.7289323,7.01875744 C16.1217919,6.90599694 15.431471,7.01207533 15.0046848,7.68446203 C13.5012155,10.050762 12.3903275,9.14867802 10.7096137,7.57921889 C8.85243275,5.84604822 6.15800446,6.5142586 4.04039839,7.11314215 C2.14978973,7.64771046 3.26223257,9.99396415 3.21947621,11.5141428 C3.10520011,15.5367692 3.18060679,19.5652426 3.18060679,23.5912101 L3.18060679,23.5912101 L3.18060679,23.5912101 Z M23.2536111,16.3276121 C27.5588771,16.3276121 31.864143,16.3526176 36.169409,16.317265 C38.4512469,16.2991575 39.4167603,17.191597 39.2014187,19.9577282 C38.8333804,24.6725677 38.6908634,29.426209 38.7519421,34.1582938 C38.7879629,36.9709871 38.1113987,38.5290915 35.3620737,38.5420254 C26.7523249,38.5851384 18.142576,38.676538 9.53282721,38.7498302 C8.15307483,38.7619018 7.27526415,38.1315895 7.24159255,36.503642 C7.12335044,30.9092968 6.99101323,25.3149517 6.92367004,19.718882 C6.89391375,17.2528175 7.98315073,16.1724052 10.3370302,16.25432 C14.6383809,16.4043533 18.9475621,16.297433 23.2536111,16.297433 L23.2536111,16.3276121 L23.2536111,16.3276121 Z M30.2784458,27.4412857 C29.3771433,27.399035 29.088977,26.4910748 28.6144425,25.8667983 C27.7162722,24.6837771 26.923032,22.6376333 25.4728042,23.1239482 C23.7038708,23.716321 24.2332197,26.0409749 24.2653251,27.6456414 C24.3005628,29.3977544 23.3272188,32.6217459 24.7077542,32.6329553 C27.1109665,32.651925 25.1572309,29.363264 26.1493684,27.8543084 C26.2832717,27.650815 26.533851,27.5404456 26.7437112,27.3766162 C29.2510705,28.1655844 29.7718057,33.4245103 31.7451178,32.2164835 C33.9345546,30.8765309 32.4099361,26.7437171 32.3081382,23.8197923 C32.3026568,23.6602741 31.954978,23.5154143 31.747467,23.3481358 C30.204055,24.232815 31.7020495,26.4289921 30.2784458,27.4412857 L30.2784458,27.4412857 L30.2784458,27.4412857 Z M21.0485131,27.2360677 C22.0281216,24.6346283 21.190247,23.2075874 19.309336,22.547096 C16.8442619,21.6813866 15.2710936,23.1955158 14.341601,25.4692963 C13.3369345,27.9284628 12.928177,30.7894426 14.9664832,32.6312307 C16.7174062,34.2126162 19.0744179,34.2962555 21.5903909,31.9379734 C18.9874982,31.4447605 15.9836786,33.6271414 15.3501827,29.5874517 C15.0635826,27.7620466 15.4621604,26.0918483 16.9664194,25.0890395 C18.8997954,23.7999603 19.6029836,26.0107958 21.0485131,27.2360677 L21.0485131,27.2360677 L21.0485131,27.2360677 Z" id="cuoituan-blk" fill="#261A13" sketch:type="MSShapeGroup"></path>
    </g>
</svg>