<?xml version="1.0" encoding="UTF-8" standalone="no"?>
<svg width="46px" height="45px" viewBox="0 0 46 45" version="1.1" xmlns="http://www.w3.org/2000/svg" xmlns:xlink="http://www.w3.org/1999/xlink" xmlns:sketch="http://www.bohemiancoding.com/sketch/ns">
    <!-- Generator: Sketch 3.3.2 (12043) - http://www.bohemiancoding.com/sketch -->
    <title>forum-icon</title>
    <desc>Created with Sketch.</desc>
    <defs></defs>
    <g id="Styleguide" stroke="none" stroke-width="1" fill="none" fill-rule="evenodd" sketch:type="MSPage">
        <g id="forum-icon" sketch:type="MSLayerGroup" transform="translate(0.287417, 0.000000)" fill="#482813">
            <path d="M6.90848901,32.0246471 C6.73491758,32.2726765 7.155,32.7226765 7.1864011,32.9172353 C7.28258242,33.5154706 6.5746978,32.4690882 6.38752747,32.6197059 L6.22532967,32.5328824 C5.78546703,32.0744118 5.81217033,32.1212647 5.29862637,32.1495882 C4.73983516,32.1805588 4.2435989,32.6128235 3.60914835,32.4685588 C3.64376374,31.9751471 4.72747253,31.8523235 4.77815934,31.4544706 C4.81994505,31.1283529 3.55054945,30.5690294 3.45857143,30.339 C3.82673077,30.2217353 4.58332418,30.7437353 4.91241758,30.7868824 C4.92230769,30.6931765 4.92675824,30.5984118 4.94307692,30.5062941 C4.99821429,30.1947353 4.72326923,29.6872941 5.10403846,29.6052353 C5.55576923,29.5078235 5.52782967,30.1145294 5.6746978,30.4226471 C5.78793956,30.6598235 5.76667582,30.9668824 5.82799451,31.2371471 C5.90563187,31.5783529 6.20826923,31.7183824 6.45601648,31.8033529 C6.54898352,31.8353824 6.72082418,31.4497059 6.77200549,31.1966471 C6.8896978,30.6166765 7.18615385,30.1195588 7.4521978,29.6107941 C7.56346154,29.3974412 7.67620879,29.2251176 7.82307692,29.4096176 C7.84607143,29.4382059 7.52217033,29.5335 7.14016484,30.8472353 C6.75791209,32.1609706 6.90848901,32.0246471 6.90848901,32.0246471 L6.90848901,32.0246471 Z M7.81145604,31.4422941 C8.57571429,29.5210588 10.0211538,29.3315294 10.0211538,29.3315294 C10.1331593,29.3053235 10.2473901,29.1584118 10.3381319,29.1793235 C12.5426374,29.6867647 14.5896429,28.152 16.8020604,28.6279412 C17.6864835,28.818 18.3177198,29.3789118 18.9820879,29.9313529 C18.9541484,30.1870588 19.1408242,30.3159706 19.2582692,30.4927941 C19.7750275,31.2705 20.4967582,32.1824118 20.2823901,33.0329118 C19.9693681,34.2743824 20.2811538,34.6060588 21.3171429,34.6367647 C21.4009615,34.6394118 21.4875,34.6905 21.5668681,34.6772647 C21.6316484,34.6664118 21.7439011,34.5621176 21.7392033,34.5525882 C21.4511538,33.9572647 21.8264835,33.3860294 21.7908791,32.8132059 C21.7233791,31.7326765 21.7668956,30.6783529 22.2589286,29.7140294 C22.4846703,29.2717059 22.3281593,29.2259118 21.981511,29.2642941 C21.7251099,29.2923529 21.4756319,29.3050588 21.2130495,29.3831471 C20.4735165,29.6031176 19.7715659,30.0247941 18.9667582,29.9509412 C19.1227747,29.2582059 19.6961538,29.0988529 20.2032692,28.9265294 C21.0597527,28.6350882 21.9375,28.4495294 22.8478846,28.3841471 C23.3235989,28.3497353 23.9783242,28.2581471 24.0905769,27.5767941 C24.2028297,26.8954412 23.6848352,26.6042647 23.1873626,26.3647059 C21.4387912,25.5234706 19.8759066,24.3489706 18.4012912,23.0730882 C16.0301374,21.0210882 14.5354945,18.3517941 14.0011813,15.1120588 C13.9052473,14.5302353 13.6639286,13.9995 13.6216484,13.3933235 C13.4725549,11.2560882 14.5117582,9.68691176 15.8817857,8.43644118 C18.1003846,6.41144118 20.472033,4.55452941 23.1747527,3.32655882 C25.6806593,2.18805882 28.1442857,0.903441176 30.8225275,0.240882353 C31.0818956,0.176823529 32.4311538,0.0473823529 32.846044,0.0473823529 C32.8806593,0.322941176 33.3501923,0.413205882 33.162033,0.744617647 C33.0265385,0.983647059 32.7243956,0.807882353 32.5013736,0.851823529 C30.5683516,1.233 28.6212363,1.54323529 26.823956,2.48558824 C25.939533,2.94935294 25.0133242,3.32179412 24.1061538,3.73552941 C21.735,4.81711765 19.5507692,6.01252941 17.4862088,7.64047059 C16.2991484,8.57647059 15.1207418,9.52305882 14.4608242,10.9786765 C14.1480495,11.6682353 13.8051099,12.5377941 14.0286264,13.3586471 C14.3626648,14.5855588 14.3995055,16.4925 15.726511,18.9444706 C16.4479945,20.2775294 17.7366758,21.7744412 18.8137088,22.7122941 C19.9557692,23.7065294 21.4575824,24.7597941 22.8273626,25.4226176 C22.9223077,25.4684118 23.3547527,25.7765294 23.5374725,25.5877941 C23.0170055,25.1203235 22.0077198,24.2123824 21.507033,23.7322059 C20.5021978,22.7694706 19.3821429,21.9081176 18.9145879,20.4551471 C18.3896703,18.8229706 18.4381319,17.2220294 19.1927473,15.6856765 C19.5525,14.9529706 19.9874176,14.2626176 20.4888462,13.5984706 C20.5187637,14.4775588 20.0685165,15.1996765 19.7918407,15.9577941 C19.3972253,17.0383235 19.1254945,18.0931765 19.2738462,19.2750882 C19.4931593,21.0205588 20.6287912,22.2969706 21.7468681,23.3401765 C22.6975549,24.2277353 23.3211264,24.6115588 24.1857692,25.5877941 C24.8397527,26.3263235 25.1972802,27.3367059 24.4906319,28.0601471 C23.9088462,28.6557353 24.1724176,29.2449706 24.3551374,29.7457941 C25.2991484,32.3309118 27.6396429,33.5538529 30.1549451,32.7332647 C31.2292582,32.3827941 32.0249176,31.4753824 32.8292308,30.6510882 C33.0631319,30.4115294 33.2641484,30.1314706 33.5138736,29.9144118 C33.8768407,29.5996765 34.0736538,29.1502059 34.1703297,28.7229706 C34.2961813,28.1660294 34.0981319,27.9007941 33.8489011,27.6371471 C33.5499725,27.3202941 33.3126099,27.1183235 32.9845055,26.7117353 C32.6749451,26.3279118 32.398022,26.2487647 32.0582967,25.8191471 C32.0931593,25.3103824 32.2360714,25.4035588 32.5016209,25.2563824 C34.1663736,24.3349412 35.7609066,23.3417647 36.3498626,21.2431765 C36.5244231,20.6213824 36.9131044,20.4927353 37.4896978,20.4752647 C38.6861538,20.4387353 39.5933242,19.8262059 40.1642308,18.6630882 C40.4641484,18.0518824 40.3625275,17.4610588 40.0052473,16.9970294 C39.6294231,16.5089118 39.1054945,16.7492647 38.6446154,16.9718824 C38.4334615,17.0737941 38.2064835,17.1495 38.0148626,17.2834412 C37.6726648,17.5222059 37.4461813,17.3842941 37.3047527,17.0491765 C36.8846703,16.0546765 36.2383516,15.2145 35.7124451,14.2943824 C35.0658791,13.1627647 34.5540659,11.9363824 34.4742033,10.5797647 C34.4428022,10.0492941 34.2202747,9.99105882 33.8842582,10.2073235 C33.4335165,10.4977059 33.0255495,10.8735882 32.5923626,11.1838235 C30.3972527,12.7551176 27.9175549,13.3647353 25.3122527,13.3602353 C23.8032692,13.3578529 22.2050275,12.2892353 21.7181868,11.0297647 C22.251511,11.4112059 22.699533,11.7172059 23.1332143,12.0446471 C24.6308242,13.176 26.2621978,12.8681471 27.8690934,12.4954412 C28.5688187,12.3329118 29.2769505,12.2103529 29.9751923,11.9684118 C31.6817308,11.3767941 33.0225824,10.2467647 34.3038462,8.99232353 C34.5508516,8.75064706 34.8312363,8.59711765 35.1135989,8.44252941 C35.2683791,8.35782353 35.4498626,8.43194118 35.5880769,8.59341176 C35.7562088,8.78955882 35.6432143,8.91423529 35.5440659,9.08205882 C34.4640659,10.9103824 35.4063462,12.6971471 36.312033,14.0926765 C36.7217308,14.724 37.1415659,15.3685588 37.5589286,16.0043824 C37.734478,16.2717353 37.7856593,16.5038824 38.2106868,16.3228235 C38.6250824,16.146 39.1267582,16.1544706 39.5886264,16.1647941 C40.6876648,16.1896765 41.0422253,17.6222647 40.5482143,18.9444706 C40.0893132,20.2762059 39.1106868,21.0618529 37.8932143,21.3241765 C37.4679396,21.4157647 37.144533,21.2082353 36.9979121,21.4893529 C36.1065659,23.1990882 36.1026099,23.3070882 33.6637088,24.993 C33.4683791,25.0597059 32.6551648,25.3839706 32.6756868,25.6870588 C32.7046154,26.1129706 33.3766484,26.5635 33.7156319,26.7900882 C33.9376648,26.9385882 34.1278022,26.9907353 34.354533,26.7858529 C36.4114286,24.9268235 39.0481319,24.1655294 41.0113187,22.5799412 C42.1575824,21.6545294 43.4766758,21.4639412 44.1912363,19.9688824 C44.2822253,19.7788235 44.2280769,19.4370882 44.1628022,19.1686765 C43.5046154,16.4628529 42.9366758,13.7234118 41.8952473,11.1475588 C40.9811538,8.88644118 39.5498077,6.99458824 37.9270879,5.27188235 C36.6819231,3.94994118 35.5240385,2.52502941 34.0729121,1.43920588 C34.0021978,1.38626471 33.9636264,1.26502941 33.8901923,1.23855882 C33.6407143,1.14935294 33.7391209,0.996617647 33.8051374,0.842294118 C33.8785714,0.879882353 33.9492857,0.924352941 34.0254396,0.954 C35.1276923,1.38282353 35.9396703,2.28494118 36.7820604,3.07191176 C38.4831593,4.66094118 40.0257692,6.44691176 41.3488187,8.40997059 C42.7618681,10.5067059 43.271456,13.0174412 43.8982418,15.4596176 C44.2068132,16.6619118 44.4743407,17.8763824 44.7604121,19.0852941 L44.7604121,20.0371765 C44.5111813,20.3347059 44.2748077,20.646 44.0107418,20.9276471 C41.9484066,23.1257647 39.2995879,24.3386471 36.8035714,25.8019412 C36.1950824,26.1585 35.6147802,26.5407353 35.0448626,26.9621471 C34.4962088,27.3679412 34.5253846,27.7062353 35.1454945,27.9346765 C36.4561813,28.4169706 37.8506868,28.287 39.1900549,28.6287353 C40.857033,29.0538529 41.9778297,29.7373235 42.7094505,31.4380588 C43.3139835,32.8436471 43.488544,34.2553235 43.7535989,35.7321176 C43.9437363,36.7914706 43.6925275,37.8862941 43.9078846,38.9051471 C44.031511,40.6238824 43.9964011,41.6869412 43.8460714,42.9705 C43.7845055,43.4967353 43.2543956,43.2746471 42.7712637,43.4030294 C41.486044,43.7442353 40.2423626,43.5983824 38.9430495,43.7002941 C37.6172802,43.8043235 36.2727198,43.8347647 34.9293956,43.8657353 C32.3962912,43.9237059 29.8626923,43.9181471 27.3347802,43.9316471 C25.0944231,43.9438235 22.7163462,43.4620588 20.4500275,43.5682059 C19.8697253,43.5954706 19.4674451,43.8157059 18.9966758,43.4392941 C19.4118132,41.5151471 20.568956,40.2165 22.1172527,39.2712353 C22.2920604,39.1648235 22.564533,39.1579412 22.5445055,38.9032941 C22.518544,38.5726765 22.2235714,38.7288529 22.0443132,38.7100588 C21.5982692,38.6632059 21.1717582,38.7238235 20.7739286,38.9853529 C19.7977747,39.6275294 18.9853022,40.4195294 17.6187363,40.3949118 C16.3097802,40.3713529 15.1088736,40.3250294 13.924533,39.6984706 C13.2549725,39.3442941 12.6326374,38.9088529 11.8864286,38.6700882 C10.8467308,38.3373529 9.79417582,38.5710882 8.75324176,38.4194118 C8.26491758,38.3484706 7.45293956,38.1086471 6.88425824,38.6515588 C7.07983516,38.9472353 7.32164835,38.9980588 7.59239011,39.0594706 C9.78032967,39.5544706 11.6982692,40.5812647 13.2265385,42.3751765 C14.4600824,43.8233824 17.2940934,44.5542353 19.0171978,43.4205 C18.9237363,44.3607353 18.1147253,44.4218824 17.5527198,44.7866471 L16.3080495,44.7866471 C16.2593407,44.4952059 16.0402747,44.6349706 15.8909341,44.5981765 C14.7372527,44.3141471 13.5642857,44.0086765 12.758489,43.0112647 C11.7,41.7009706 10.4283791,40.7932941 8.91568681,40.2090882 C8.12126374,39.9022941 7.26502747,39.8813824 6.48741758,39.501 C5.97115385,39.2487353 5.79288462,38.7659118 5.8406044,38.2976471 C5.89203297,37.7941765 6.35958791,37.7163529 6.81057692,37.7282647 C7.72293956,37.7523529 8.63604396,37.7306471 9.5489011,37.737 C11.2631044,37.7483824 12.843544,38.1962647 14.3742857,39.0832941 C16.1859066,40.1328529 18.0825824,40.2914118 19.8595879,38.8821176 C20.88,38.0729118 22.0398626,38.0030294 23.2177747,38.1470294 C23.6850824,38.2039412 24.1959066,38.4011471 24.4424176,38.9292353 C24.7082143,39.4978235 23.8836264,39.2455588 23.9365385,39.6667059 C23.9397527,39.6915882 23.9765934,39.7114412 23.9973626,39.7328824 C23.9795604,39.5949706 23.9266484,39.4875 23.7778022,39.5224412 C21.8967033,39.9663529 20.3647253,40.8967941 19.5492857,43.1200588 C22.3390385,42.8013529 24.9950275,43.4178529 27.6839011,43.4797941 C28.6785989,43.5025588 29.6653846,43.3265294 30.6506868,43.3299706 C31.5346154,43.3328824 32.4390659,43.5965294 33.3118681,43.4488235 C34.7558242,43.2045 36.1953297,43.2415588 37.6420055,43.2476471 C37.9671429,43.2492353 38.7519231,43.3956176 38.696044,42.8079706 C38.5721703,41.5098529 38.7024725,40.0992353 38.7267033,38.8087941 C38.7778846,36.0945 38.8503297,33.9170294 38.9121429,30.744 C38.9316758,29.7415588 39.0758242,28.8979412 37.797033,28.8267353 C37.4807967,28.8092647 37.3195879,28.8209118 37.2857143,29.2322647 C37.1123901,31.3311176 36.813956,33.4082647 36.2704945,35.4401471 C35.7206044,37.4963824 34.9889835,39.3636176 32.8551923,40.1209412 C30.8922527,40.8176471 29.0067033,41.6612647 26.8192582,41.2035882 C25.6873352,40.9666765 24.6508516,40.8255882 23.984011,39.7087941 C24.6033791,39.5364706 24.9685714,40.1445 25.5001648,40.2710294 C28.0757967,41.2875 30.7720879,40.7631176 33.231511,39.3705 C34.0115934,38.9287059 35.0681044,38.0268529 35.2691209,37.1228824 C35.9357143,34.7167059 36.7343407,32.3711471 36.8436264,29.7855 C36.8537637,29.5464706 37.0191758,28.8960882 36.4438187,28.8442059 C35.9240934,28.7973529 35.2963187,28.1133529 34.871044,28.9188529 C34.2032143,30.1838824 33.2775,31.1834118 32.3112363,32.1763235 C30.5451099,33.9916765 27.3654396,33.9699706 25.7266484,32.7621176 C24.3927198,31.7792647 23.7112912,30.3763235 23.5755495,28.6729412 C23.0053846,28.7682353 22.8323077,29.2147941 22.6757967,29.6563235 C22.1348077,31.1826176 22.4834341,32.7758824 22.391456,34.3363235 C22.3677198,34.7418529 22.6656593,34.8321176 22.9814011,34.8832059 C24.8157692,35.1812647 26.5361538,35.9372647 28.3210714,36.4359706 C28.9097802,36.6003529 29.4584341,36.9664412 29.7951923,37.5577941 C30.1077198,38.1065294 29.899533,38.4744706 29.2982143,38.511 C28.9795055,38.5305882 28.6657418,38.5557353 28.3448077,38.6145 C27.3194505,38.8016471 26.3331593,39.2484706 25.2657692,39.1748824 C25.0086264,39.1571471 24.7356593,39.1005 24.7240385,38.8132941 C24.7141484,38.5734706 24.9885989,38.5620882 25.1940659,38.5207941 C26.1316484,38.3323235 27.0667582,38.1298235 27.9991484,37.9140882 C28.2251374,37.8616765 28.4971154,37.7520882 28.5181319,37.4783824 C28.5389011,37.2057353 28.2439286,37.1784706 28.0626923,37.1183824 C27.4052473,36.9010588 26.7458242,36.6837353 26.0760165,36.5172353 C24.3101374,36.0788824 22.6322802,35.2887353 20.7650275,35.2199118 C20.1473901,35.1971471 19.4805495,35.5481471 19.0659066,35.3636471 C18.0202747,34.8980294 16.9785989,34.8657353 15.9119505,34.8972353 C13.6421703,34.9642059 11.3748626,34.812 9.09840659,35.0367353 C7.43958791,35.2008529 5.77384615,35.3673529 4.11082418,35.5132059 C3.15667582,35.5968529 2.19214286,35.9039118 1.26247253,36.5079706 C2.46214286,37.3836176 3.90659341,37.3039412 5.06299451,38.0448529 C3.33741758,38.0946176 1.69936813,37.7105294 0.125604396,36.981 L0.125604396,36.2194412 C0.949945055,36.0142941 1.56041209,35.1886765 2.76478022,35.3795294 C1.90087912,34.8016765 1.45458791,34.2865588 1.90013736,33.4058824 C2.01337912,33.1819412 1.73744505,32.9550882 1.63162088,32.7348529 C1.12302198,31.6786765 1.00557692,30.6701471 1.95230769,29.8040294 C2.10758242,29.6621471 2.12489011,29.5070294 2.15035714,29.313 C2.37684066,27.5934706 2.89978022,27.1691471 4.43472527,27.6911471 C5.09513736,27.9156176 5.56293956,27.9590294 6.18082418,27.5495294 C7.02964286,26.9867647 8.2842033,27.8722059 8.55074176,29.1711176 C8.00307692,29.0821765 8.0325,28.3785882 7.58299451,28.2195 C6.95002747,27.9952941 6.39148352,27.8613529 6.07104396,28.7118529 C5.83664835,29.3341765 5.44870879,29.3622353 5.09068681,28.8667059 C4.83206044,28.5090882 4.47576923,28.3984412 4.13431319,28.2838235 C3.24989011,27.9870882 2.95491758,28.2449118 2.96406593,29.2539706 C2.96876374,29.8000588 3.03230769,30.2357647 2.3353022,30.501 C1.73917582,30.7278529 1.72211538,31.4467941 2.1243956,32.0151176 C2.3175,32.2877647 2.66414835,32.4550588 2.80384615,32.7459706 C2.91931319,32.9868529 3.57552198,33.3894706 2.72002747,33.6544412 C2.39686813,33.7545 2.33703297,34.2802059 2.745,34.461 C3.28771978,34.7013529 3.88013736,34.8125294 4.55513736,35.0097353 C4.42532967,34.5999706 4.04381868,34.146 4.62807692,34.1806765 C5.41335165,34.2272647 6.01046703,33.7613824 6.69857143,33.5567647 C6.93766484,34.2635294 6.11456044,33.9850588 5.98178571,34.4681471 C6.41002747,34.4893235 6.84197802,34.6571471 7.15846154,34.3707353 C7.3031044,34.2397059 7.04744505,33.3632647 7.81145604,31.4422941 L7.81145604,31.4422941 Z M17.6985989,29.583 C17.6125549,29.4384706 17.1776374,29.3722941 16.9575824,29.3722941 C16.8159066,29.3722941 16.7807967,29.5480588 16.853489,29.6325 C17.4085714,31.3562647 17.1311538,32.1982941 17.1051923,32.2361471 C16.8757418,32.5696765 17.3974451,28.6700294 14.5945879,29.3910882 C15.723544,31.2188824 15.5969505,32.4457941 15.3922253,32.1358235 C15.3598352,32.0865882 15.3252198,30.1780588 13.9012912,29.5210588 C13.9109341,29.7052941 13.6120055,29.5274118 13.6233791,29.6200588 C13.6493407,29.8334118 14.0085989,30.2574706 14.2021978,31.0952647 C14.3292857,31.6450588 14.3616758,32.2792941 14.3062912,32.6816471 C14.2818132,32.8603235 14.3505495,33.1840588 14.1440934,33.1517647 C13.9475275,33.1213235 14.0919231,32.9389412 14.0864835,32.7930882 C14.0795604,32.6112353 13.9863462,30.5565882 13.1948901,29.8556471 C12.9021429,29.5965 11.9037363,29.9985882 11.6149451,30.0557647 C12.2236813,30.8371765 12.8264835,32.8576765 12.3796978,32.8460294 C11.5625275,30.7852941 10.6165385,29.9758235 10.1774176,30.0639706 C10.4140385,30.4374706 10.8845604,30.6328235 10.9483516,31.0756765 C10.9884066,31.3533529 11.4178846,31.7729118 10.9270879,31.9449706 C10.6457143,32.0437059 10.6687088,31.5770294 10.5712912,31.3488529 C10.4251648,31.0076471 10.1843407,30.7320882 9.97862637,30.4319118 C9.71357143,30.0451765 9.47818681,30.213 9.26258242,30.3792353 C8.05425824,31.3094118 7.61217033,32.5935 7.76744505,34.1555294 C7.79760989,34.4580882 7.9068956,34.5306176 8.15662088,34.4925 C9.96304945,34.2169412 11.7825824,34.1589706 13.6031044,34.0822059 C15.3484615,34.0088824 17.0688462,34.4115 18.8146978,34.3209706 C19.2871978,34.2963529 19.4716484,34.2330882 19.5047802,33.6589412 C19.6098626,31.8327353 19.0562637,30.5070882 17.6985989,29.583 L17.6985989,29.583 Z M39.2738736,36.1503529 C39.2738736,38.5589118 39.2699176,40.5841765 39.2783242,42.6091765 C39.2795604,42.8844706 39.1517308,43.4032941 39.6351099,43.2412941 C40.6317857,42.9072353 41.6754396,43.2476471 42.6666758,42.8963824 C42.9826648,42.7844118 43.3238736,42.5657647 43.286044,42.3386471 C43.1920879,41.7735 43.3960714,41.2454118 43.335,40.6993235 C43.0847802,38.4588529 43.1307692,36.1911176 42.7952473,33.9591176 C42.4928571,31.9468235 41.9733791,30.087 39.8937363,29.3550882 C39.4721703,29.2065882 39.3962637,29.1811765 39.3512637,29.8196471 C39.1927747,32.0611765 39.3717857,34.2982059 39.2738736,36.1503529 L39.2738736,36.1503529 Z" id="Fill-1" sketch:type="MSShapeGroup"></path>
            <path d="M24.348956,15.2928529 C24.0381593,15.7129412 24.077967,16.7707059 23.1497802,16.2082059 C22.3373077,15.7161176 22.2542308,15.0834706 22.8164835,14.0977059 C21.800522,14.1564706 21.7802473,14.1964412 22.074478,15.1435588 C22.159533,15.417 22.3348352,15.7822941 21.9397253,15.9458824 C21.6066758,16.0837941 21.4123352,15.8405294 21.2451923,15.5411471 C20.7383242,14.6324118 20.6821978,13.7723824 21.2437088,13.5513529 C21.9550549,13.2710294 22.6980495,13.0669412 23.5228846,13.3348235 C24.6352747,13.6964118 25.0083791,14.5935 25.3174451,15.6189706 C25.4198077,15.9585882 25.3562637,16.2391765 25.1757692,16.5099706 C25.0748901,16.6613824 24.8956319,16.6873235 24.7804121,16.6150588 C24.4911264,16.434 24.6718681,16.1084118 24.6328022,15.8487353 C24.6016484,15.6396176 24.661978,15.3958235 24.348956,15.2928529" id="Fill-2" sketch:type="MSShapeGroup"></path>
            <path d="M31.3340934,15.5051471 C30.6561264,15.9419118 30.5352198,16.5750882 30.1786813,17.0145 C30.0565385,17.1648529 29.8802473,17.2998529 29.7143407,17.1945 C29.541511,17.0846471 29.5840385,16.8612353 29.6807143,16.6889118 C30.5260714,15.1819412 31.1437088,14.2104706 32.9048901,14.3139706 C33.8657143,14.3703529 34.3540385,15.0477353 34.8005769,15.7746176 C34.8940385,15.9268235 35.2204121,16.3172647 34.7629945,16.632 C34.3063187,16.9459412 33.9792033,17.4901765 33.3425275,17.4348529 C33.1996154,17.4224118 33.1382967,17.3324118 33.1410165,17.1884118 C33.1442308,17.0084118 33.2705769,16.9353529 33.388022,16.8326471 C34.3550275,15.9882353 34.3471154,15.9315882 33.1879945,15.3328235 C33.252033,16.2214412 33.1321154,17.1328235 32.1774725,17.1735882 C31.4040659,17.2064118 31.0433242,16.5496765 31.3340934,15.5051471" id="Fill-3" sketch:type="MSShapeGroup"></path>
            <path d="M26.8996154,23.8912941 C25.670522,23.8897059 24.6041209,22.464 24.8004396,21.1124118 C24.8417308,20.8289118 24.8887088,20.7010588 25.1772527,20.8373824 C26.7678297,21.5886176 27.7407692,21.6129706 29.2643407,20.9935588 C29.5217308,20.889 29.5719231,20.8201765 29.8431593,20.8201765 C30.0886813,20.8199118 30.1589011,21.0361765 30.0745879,21.3157059 C29.7175549,22.5007941 28.1539286,23.8928824 26.8996154,23.8912941 L26.8996154,23.8912941 Z M26.9396703,23.3428235 C27.6621429,23.0662059 28.4249176,22.8727059 28.9807418,22.2257647 C29.1157418,22.0687941 29.3558242,21.8956765 29.1965934,21.6733235 C29.0702473,21.4970294 28.818544,21.5804118 28.62,21.6592941 C27.8465934,21.9666176 27.0516758,21.7927059 26.2748077,21.717 C25.9694505,21.6873529 25.5637088,21.4115294 25.4141209,21.7336765 C25.2383242,22.1124706 25.5278571,22.5516176 25.8520055,22.7628529 C26.1801099,22.977 26.4397253,23.4071471 26.9396703,23.3428235 L26.9396703,23.3428235 Z" id="Fill-4" sketch:type="MSShapeGroup"></path>
            <path d="M29.7628022,25.9835294 C28.8173077,26.7832059 26.6864835,26.7135882 25.9155495,25.9835294 C27.1804945,26.1743824 28.2918956,26.2487647 29.7628022,25.9835294" id="Fill-5" sketch:type="MSShapeGroup"></path>
            <path d="M31.1926648,13.0007647 C31.9257692,12.123 32.7980769,12.2744118 33.6965934,12.6103235 C33.9960165,12.7222941 34.0768681,12.9631765 34.0590659,13.2752647 C34.0516484,13.4049706 34.0476923,13.5420882 33.9126923,13.5778235 C33.5984341,13.6606765 33.5665385,13.4528824 33.4775275,13.1797059 C33.3756593,12.8676176 33.0235714,12.9708529 32.7790385,13.0002353 C32.290467,13.0592647 31.7724725,12.8472353 31.3123352,13.1733529 C31.2725275,13.1159118 31.2327198,13.0584706 31.1926648,13.0007647" id="Fill-6" sketch:type="MSShapeGroup"></path>
            <path d="M25.1470879,18.8332941 C25.2946978,19.2774706 25.8732692,19.1072647 26.0394231,19.5225882 C26.0915934,19.6522941 25.8072527,19.8786176 25.673489,19.8293824 C25.3691209,19.7176765 24.9794505,19.6819412 24.9030495,19.2044118 C24.8699176,18.9974118 24.948544,18.9187941 25.1470879,18.8332941" id="Fill-7" sketch:type="MSShapeGroup"></path>
            <path id="Fill-8" sketch:type="MSShapeGroup" d="M31.3123352,13.1733529 C31.2188736,13.2450882 31.1531044,13.4923235 31.0131593,13.3070294 C30.9142582,13.176 31.071511,13.0658824 31.1926648,13.0007647 C31.2327198,13.0584706 31.2725275,13.1159118 31.3123352,13.1733529"></path>
            <path d="M12.2669505,27.3277059 C11.498489,27.3089118 11.2401099,26.7911471 11.1716209,26.3639118 C11.0081868,25.3418824 10.9372253,24.2761765 11.8683791,23.5331471 C12.688022,22.8790588 13.1066209,21.9205588 13.2940385,20.9218235 C13.4584615,20.0440588 13.2381593,19.1347941 12.6712088,18.3944118 C12.5777473,18.2726471 12.4249451,18.1895294 12.3646154,18.0550588 C12.2160165,17.7241765 11.5242033,17.4819706 11.9353846,17.1211765 C12.241978,16.8522353 12.6257143,17.3782059 12.9377473,17.7360882 C13.6575,18.5611765 13.9171154,19.4799706 13.9945055,20.5917353 C14.0877198,21.9306176 13.3617857,22.8081176 12.6551374,23.6146765 C11.6564835,24.7539706 11.3367857,25.8517059 12.2669505,27.3277059" id="Fill-9" sketch:type="MSShapeGroup"></path>
            <path d="M8.4421978,21.2715 C8.94337912,21.0602647 9.29225275,21.2646176 9.4593956,21.6616765 C9.75313187,22.3597059 9.81815934,23.0895 9.3506044,23.7610588 C9.24502747,23.9127353 9.09296703,24.0323824 9.00692308,24.1938529 C8.63307692,24.8958529 8.13535714,25.5946765 8.90307692,26.3715882 C9.02151099,26.4912353 9.12486264,26.7170294 8.94016484,26.8660588 C8.76313187,27.0087353 8.6175,26.8459412 8.48942308,26.7101471 C7.7714011,25.9493824 7.7175,25.2042353 8.31239011,24.2931176 C8.41376374,24.1382647 8.49980769,23.9722941 8.5996978,23.8163824 C9.36964286,22.6156765 9.35802198,22.3485882 8.4421978,21.2715" id="Fill-10" sketch:type="MSShapeGroup"></path>
            <path d="M15.6763187,23.2816765 C14.8277473,24.5498824 13.7373626,25.5292941 13.8849725,27.1580294 C13.2843956,25.7468824 14.1517582,23.8497353 15.6763187,23.2816765" id="Fill-11" sketch:type="MSShapeGroup"></path>
            <path d="M5.11392857,33.5617941 C5.69620879,33.5377059 6.43771978,33.2777647 6.8446978,32.8365 C7.0289011,32.6369118 6.79178571,32.2994118 6.56381868,32.4465882 C6.10961538,32.7401471 5.5978022,33.2968235 5.04445055,33.3881471 C4.83354396,33.4230882 4.62782967,33.5578235 4.83626374,33.5493529 L5.11392857,33.5617941" id="Fill-12" sketch:type="MSShapeGroup"></path>
        </g>
    </g>
</svg>