<?xml version="1.0" encoding="UTF-8" standalone="no"?>
<svg width="45px" height="10px" viewBox="0 0 45 10" version="1.1" xmlns="http://www.w3.org/2000/svg" xmlns:xlink="http://www.w3.org/1999/xlink" xmlns:sketch="http://www.bohemiancoding.com/sketch/ns">
    <!-- Generator: Sketch 3.3.2 (12043) - http://www.bohemiancoding.com/sketch -->
    <title>khac</title>
    <desc>Created with Sketch.</desc>
    <defs></defs>
    <g id="Styleguide" stroke="none" stroke-width="1" fill="none" fill-rule="evenodd" sketch:type="MSPage">
        <path d="M6.02679285,10 C2.49803668,9.94094557 0.347006475,7.89404265 0.0250432757,4.25647997 C-0.234700042,1.3170931 1.54399849,-0.108785759 4.52561475,0.00646563781 C8.11165271,0.144576816 11.0685785,1.31518811 11.2759781,5.31374485 C11.4339969,8.37219308 9.5713509,9.90094095 6.02679285,10 Z M23.6786651,0 C26.2330475,0.0866847794 28.1430376,1.34159815 28.2106649,4.40983616 C28.2840889,7.69075426 26.7421849,9.94455853 23.4236133,9.9989885 C20.1688047,10.0524105 18.4056626,7.98608729 18.3399674,4.66485068 C18.2713739,1.15613305 20.7156203,0.334643567 23.6786651,0 Z M45,4.48320839 C44.8813205,7.71944951 43.8919838,10.0179108 40.3950313,9.99989483 C36.920587,9.98187884 35.1925728,7.9811555 35.1270945,4.83878718 C35.0657085,1.83675396 36.6637892,-0.0132039746 39.9919303,7.09669846e-05 C43.3384872,0.0133459086 44.6306613,2.11078668 45,4.48320839 Z" id="khac" fill="#CC2229" sketch:type="MSShapeGroup"></path>
    </g>
</svg>