<?xml version="1.0" encoding="UTF-8" standalone="no"?>
<svg width="46px" height="11px" viewBox="0 0 46 11" version="1.1" xmlns="http://www.w3.org/2000/svg" xmlns:xlink="http://www.w3.org/1999/xlink" xmlns:sketch="http://www.bohemiancoding.com/sketch/ns">
    <!-- Generator: Sketch 3.3.2 (12043) - http://www.bohemiancoding.com/sketch -->
    <title>khac copy 2</title>
    <desc>Created with Sketch.</desc>
    <defs></defs>
    <g id="Styleguide" stroke="none" stroke-width="1" fill="none" fill-rule="evenodd" sketch:type="MSPage">
        <path d="M6.60162732,10.5 C3.07287115,10.4409456 0.921840941,8.39404265 0.599877741,4.75647997 C0.340134424,1.8170931 2.11883296,0.391214241 5.10044921,0.506465638 C8.68648718,0.644576816 11.643413,1.81518811 11.8508126,5.81374485 C12.0088314,8.87219308 10.1461854,10.4009409 6.60162732,10.5 Z M24.2534996,0.5 C26.8078819,0.586684779 28.717872,1.84159815 28.7854994,4.90983616 C28.8589234,8.19075426 27.3170194,10.4445585 23.9984478,10.4989885 C20.7436392,10.5524105 18.980497,8.48608729 18.9148019,5.16485068 C18.8462084,1.65613305 21.2904547,0.834643567 24.2534996,0.5 Z M45.5748345,4.98320839 C45.456155,8.21944951 44.4668182,10.5179108 40.9698658,10.4998948 C37.4954215,10.4818788 35.7674073,8.4811555 35.7019289,5.33878718 C35.640543,2.33675396 37.2386237,0.486796025 40.5667648,0.500070967 C43.9133217,0.513345909 45.2054957,2.61078668 45.5748345,4.98320839 Z" id="khac-copy-2" fill="#261A13" sketch:type="MSShapeGroup"></path>
    </g>
</svg>