<?xml version="1.0" encoding="UTF-8" standalone="no"?>
<svg width="45px" height="45px" viewBox="0 0 45 45" version="1.1" xmlns="http://www.w3.org/2000/svg" xmlns:xlink="http://www.w3.org/1999/xlink" xmlns:sketch="http://www.bohemiancoding.com/sketch/ns">
    <!-- Generator: Sketch 3.3.2 (12043) - http://www.bohemiancoding.com/sketch -->
    <title>monchay</title>
    <desc>Created with Sketch.</desc>
    <defs></defs>
    <g id="Styleguide" stroke="none" stroke-width="1" fill="none" fill-rule="evenodd" sketch:type="MSPage">
        <path d="M20.8512565,37.434995 C18.2242346,37.8502585 16.1701519,39.1564509 13.7761562,39.0342742 C10.0132146,38.8427725 8.4470927,37.3059545 8.90783396,33.4786666 C9.21853556,30.8923645 8.48759013,30.7056676 6.23433966,31.0969075 C1.73580541,31.8773283 -0.919763797,28.5511022 0.293831333,23.9612396 C1.14759683,20.7317939 2.6944659,17.8338726 4.58722285,15.136376 C7.14984714,11.4834302 10.52242,10.2287167 14.7474307,11.5410866 C16.2265827,12.0002788 17.790713,12.2391411 19.1935174,12.8706161 C20.8034562,13.5954396 21.655894,13.3428496 22.6424379,11.7202333 C27.0646245,4.44385627 34.3634565,2.06896102 41.8395477,0.124429741 C44.0722176,-0.456252738 44.9678083,1.07919254 44.9804222,2.99146369 C45.0295503,10.2925506 45.0839894,17.6382526 43.8259135,24.828145 C42.7470885,30.9918905 36.0152206,36.2310741 29.3125639,36.2049915 C26.1916062,36.1926365 25.1167645,37.3766522 25.0317863,40.2498636 C25.0284669,40.3631173 25.0165168,40.4798029 24.9853139,40.5882519 C24.5039919,42.2747021 25.4128605,45.211061 22.5999488,44.9879856 C19.6343419,44.7532416 20.3453706,41.8965034 20.3533373,39.8105767 C20.3559928,39.1509598 20.6195581,38.4927157 20.8512565,37.434995 L20.8512565,37.434995 Z M34.7896754,21.9913121 C33.811762,23.7903295 32.4408244,24.1410727 31.407808,24.9256118 C29.7095715,26.2153309 27.9602153,27.4803402 26.8654569,29.3624103 C25.9134353,30.998068 25.9758412,32.4573244 28.2988003,32.7778666 C33.2096117,33.4553295 40.1154194,28.6314094 40.7195614,23.504793 C41.4259428,17.5147032 41.4983071,11.4443062 41.8176393,5.4068557 C41.8906675,4.02310171 41.4505069,3.21042079 39.8571653,3.67235851 C35.260375,5.00600633 30.7452435,6.49752291 27.2153281,10.0653569 C23.8659914,13.4506122 23.8095606,14.4747 26.9046265,17.9931141 C27.3839567,18.5381045 27.4901795,20.10581 28.7495832,19.2684192 C29.6551323,18.6657723 29.7553801,17.6238385 29.4792009,16.5036567 C29.1226907,15.0546961 28.4574706,13.6249542 28.6606216,11.9282082 C30.4670726,12.6084167 29.95322,14.7382721 31.3062325,15.476137 C33.3118511,13.9166682 34.0049547,10.9109843 36.9513087,9.97544032 C36.43812,12.0929409 34.5161518,12.9975975 34.2877728,14.892709 C35.5066791,15.1610859 36.1871687,13.4231567 37.5979398,14.3703693 C34.4849488,17.9924277 29.0662598,19.4674711 28.1149022,25.4362829 C30.4723837,24.4815201 31.90108,22.2583162 34.7896754,21.9913121 L34.7896754,21.9913121 Z M7.61656343,28.191436 C11.139176,26.3917321 16.02144,27.5990849 19.7332618,24.6517438 C21.3007116,23.4066398 24.6228287,23.6455021 24.3081437,21.0090938 C23.9974421,18.4063185 21.1161495,17.4350824 18.9106993,16.4151129 C10.0981929,12.3427853 6.63665839,13.9935434 3.69561549,23.5645086 C2.64600176,26.9785921 3.60798171,28.2985122 7.61656343,28.191436 L7.61656343,28.191436 Z M11.9816553,32.4758568 C11.8422379,35.8013966 12.661481,36.4919008 15.8382057,35.5687117 C17.1015928,35.2014953 18.3377602,34.6873922 19.5281191,34.1115145 C20.5790606,33.6029025 22.2294969,33.4958263 22.3423586,32.107954 C22.4578759,30.6905671 20.7377309,30.4674917 19.8613931,29.6774615 C19.615089,29.4557588 19.3342626,29.2560205 19.0381666,29.1153114 C16.1084099,27.7253799 12.0998282,29.6403966 11.9816553,32.4758568 Z M13.6409249,19.4318182 C14.8991285,19.486188 15.6439015,20.2123609 15.6521104,21.4680812 C15.6603193,22.7349735 14.872263,23.4976411 13.5983878,23.5222193 C12.4551091,23.5445631 11.7663061,22.8280726 11.7401868,21.7198211 C11.7118287,20.520705 12.2521249,19.6217403 13.6409249,19.4318182 Z" id="monchay" fill="#CC2229" sketch:type="MSShapeGroup"></path>
    </g>
</svg>