<?xml version="1.0" encoding="UTF-8" standalone="no"?>
<svg width="45px" height="40px" viewBox="0 0 45 40" version="1.1" xmlns="http://www.w3.org/2000/svg" xmlns:xlink="http://www.w3.org/1999/xlink" xmlns:sketch="http://www.bohemiancoding.com/sketch/ns">
    <!-- Generator: Sketch 3.3.2 (12043) - http://www.bohemiancoding.com/sketch -->
    <title>monchanh</title>
    <desc>Created with Sketch.</desc>
    <defs></defs>
    <g id="Styleguide" stroke="none" stroke-width="1" fill="none" fill-rule="evenodd" sketch:type="MSPage">
        <path d="M21.3749552,39.7119831 C18.546283,39.7119831 15.7079028,39.8755836 12.8913656,39.6751894 C8.10713562,39.3355046 5.98047409,36.9603396 5.67285143,31.8230187 C5.54240001,29.6429917 5.55999579,27.4458819 5.62309787,25.2605987 C5.67467169,23.4636205 5.37129629,22.3039618 3.32472586,22.4807029 C1.54512579,22.6351051 -0.212631263,21.9274833 0.0209677927,19.697522 C0.275196375,17.2750508 2.17614661,17.4340522 3.80163199,18.1055373 C5.27603642,18.7146045 5.55392828,17.9563914 5.69772822,16.6508719 C6.48771775,9.48661207 11.0219664,6.27570435 16.8067285,4.4524449 C18.0002073,4.07662349 19.074763,3.85389017 19.3478008,2.17123524 C19.5856471,0.702772219 20.7263386,0.0831925205 22.0526959,0.0076340207 C23.4925155,-0.0744947834 24.7660854,0.501063876 25.2478455,1.9760972 C25.7599432,3.54508587 26.7307445,4.21197176 28.0765177,4.53982995 C34.4419403,6.08976474 37.7930249,11.1771514 40.3814238,17.042462 C40.8097899,18.0142101 40.9906016,18.4603337 42.0238982,18.2198606 C43.4430883,17.8893743 44.8841215,18.1791247 44.9945501,20.0069834 C45.101945,21.7881929 43.6008435,21.9603348 42.3703529,21.8867474 C40.4493799,21.7730812 39.9894628,22.8184166 39.9324282,24.6718994 C39.8711464,26.627222 39.5058824,28.5720321 39.2662159,30.5201273 C38.3858205,37.6745317 35.6675769,40.1482513 28.9496321,39.9931921 C26.4261556,39.9353734 23.900252,39.9839937 21.3749552,39.9839937 L21.3749552,39.7119831 L21.3749552,39.7119831 Z M37.4817618,18.5661156 C31.2073518,18.1837239 25.4978269,17.8446962 19.7895154,17.4839865 C16.4724088,17.2750508 13.1589427,17.0010691 9.84062264,16.8210428 C8.88923739,16.7691374 7.04532173,17.4688748 8.31403764,18.2665097 C11.6347847,20.3525814 9.47171815,21.0266946 8.03371877,22.352582 C7.63326325,22.7211761 7.70121934,23.7881935 7.69454508,24.5365512 C7.67148855,27.0470644 7.75339991,29.5588918 7.71699486,32.0694051 C7.6696683,35.2671722 9.22295033,37.1298535 12.0000487,37.3309048 C18.6421496,37.8125081 25.3030599,37.7389207 31.9433405,37.1948995 C34.3618492,36.9971333 36.2027311,35.6226257 36.5400846,32.8164487 C36.877438,30.0142139 37.0030354,27.1797846 37.1698919,24.3558678 C37.2129712,23.6232789 37.4174462,22.6489027 36.7002668,22.2422009 C34.2471733,20.8499534 35.8010621,19.8387836 37.4817618,18.5661156 L37.4817618,18.5661156 Z M22.9961933,6.7711053 C21.032141,6.87688719 19.9138993,6.86177549 18.8144669,7.00960734 C15.1612203,7.50172314 12.1013761,9.30855683 9.59124806,12.1791228 C8.94748547,12.9156539 7.97183019,14.2257726 9.90129771,14.3512654 C17.8612614,14.8663773 25.8291128,15.2251159 33.7963575,15.5969951 C35.9430418,15.6975208 35.8926815,14.7277438 34.8169123,13.0884529 C31.6921457,8.32826742 27.1688185,7.01420656 22.9961933,6.7711053 Z M10.5065709,24.3902439 C12.0138521,25.8830837 11.4514987,27.3937821 11.5983078,28.7153124 C11.9416917,31.8094661 12.7752686,34.3261943 16.3534285,34.2818787 C17.0482833,34.2732801 18.0560404,34.2739416 17.9975656,35.2674043 C17.940335,36.2330871 16.934444,36.0650848 16.2383451,36.0915419 C13.1908129,36.2079529 11.1124693,34.6350805 10.3802902,31.43576 C9.87827785,29.2398237 9.56537548,26.9817133 10.5065709,24.3902439 Z" id="monchanh" fill="#CC2229" sketch:type="MSShapeGroup"></path>
    </g>
</svg>