<?xml version="1.0" encoding="UTF-8" standalone="no"?>
<svg width="45px" height="33px" viewBox="0 0 45 33" version="1.1" xmlns="http://www.w3.org/2000/svg" xmlns:xlink="http://www.w3.org/1999/xlink" xmlns:sketch="http://www.bohemiancoding.com/sketch/ns">
    <!-- Generator: Sketch 3.3.2 (12043) - http://www.bohemiancoding.com/sketch -->
    <title>monman-blk</title>
    <desc>Created with Sketch.</desc>
    <defs></defs>
    <g id="Styleguide" stroke="none" stroke-width="1" fill="none" fill-rule="evenodd" sketch:type="MSPage">
        <path d="M24.560879,4.31170135 C31.3947073,4.92065991 37.1675087,7.45505753 40.730498,14.2741378 C41.2468569,15.2616551 42.1453892,15.1681141 42.8848242,15.5516952 C45.1631444,16.7332003 45.687996,18.9467961 44.032477,21.0674786 C43.221703,22.1064749 42.9680531,23.2559626 42.7466755,24.4625795 C42.1652056,27.632303 40.399281,29.5966651 37.7682288,30.7587087 C35.3778044,31.8140277 32.87018,32.3633459 30.3336804,32.5435223 C23.4664473,33.0306892 16.5720375,33.5454789 9.79539368,31.6903526 C5.85645886,30.6118053 3.4201736,27.9650329 1.34964253,23.783936 C-0.850544438,19.3423053 -0.280964385,17.5524693 2.47804516,13.4774693 C5.97082781,8.31827199 10.0297934,6.39032175 15.0320198,5.13222592 C16.5709051,4.74550585 18.4172277,5.60746471 18.3306017,2.04474325 C18.2660569,-0.624001935 21.4219607,-0.000604152872 23.2756437,0.233562385 C25.5998247,0.527369195 25.3156009,2.39944592 24.560879,4.31170135 L24.560879,4.31170135 Z M42.1419921,19.1545954 C42.0706531,18.8538828 41.999314,18.5525425 41.927975,18.2512022 C40.5617755,18.2512022 39.1950098,18.2738027 37.8288104,18.2480632 C29.8139244,18.0942541 21.7984723,17.9756014 13.785285,17.7452016 C10.3955476,17.6478938 7.00920735,17.3409033 3.62569801,17.0596524 C2.05057703,16.9284438 1.43626852,17.7226011 1.8722294,19.285804 C3.61890381,25.5467768 7.55217681,28.9456445 13.7541449,29.5282358 C19.4035184,30.0587203 25.0647818,30.0229361 30.7107582,29.4660843 C32.8650844,29.2538905 35.0007265,28.7617014 37.0157716,27.8087126 C38.6990336,27.0120441 39.9644525,25.6497348 40.0193722,23.6213378 C40.0725934,21.6695314 40.6370778,20.2237257 42.1419921,19.1545954 L42.1419921,19.1545954 Z M23.6476259,15.3401292 C27.4144411,15.3401292 31.1812563,15.3658687 34.9475053,15.319412 C35.7277054,15.3093673 36.8674317,15.812229 37.1935531,14.7380763 C37.474946,13.8095715 36.499979,13.12465 35.9332298,12.4660959 C34.3422557,10.6166197 32.4223293,9.33027322 30.2142158,8.58571152 C23.2711142,6.24341834 16.4395507,7.07838214 9.71273097,9.62345223 C8.50279799,10.0817406 7.42705038,11.0460297 6.36602352,11.8941771 C5.77379614,12.3675325 5.0943766,13.0624986 5.33217344,13.9608694 C5.60847072,15.0036325 6.57890831,14.6564633 7.28040899,14.714848 C12.7282214,15.1687419 18.182828,15.4123253 23.6476259,15.3401292 Z M5.83333333,20.1816527 C15.8370974,20.0367881 25.8244878,20.9974305 35.8333333,20.6930686 C25.8115017,22.8638424 15.8156422,22.0765985 5.83333333,20.1816527 Z" id="monman-blk" fill="#261A13" sketch:type="MSShapeGroup"></path>
    </g>
</svg>