<?xml version="1.0" encoding="UTF-8" standalone="no"?>
<svg width="45px" height="36px" viewBox="0 0 45 36" version="1.1" xmlns="http://www.w3.org/2000/svg" xmlns:xlink="http://www.w3.org/1999/xlink" xmlns:sketch="http://www.bohemiancoding.com/sketch/ns">
    <!-- Generator: Sketch 3.3.2 (12043) - http://www.bohemiancoding.com/sketch -->
    <title>monxao-blk</title>
    <desc>Created with Sketch.</desc>
    <defs></defs>
    <g id="Styleguide" stroke="none" stroke-width="1" fill="none" fill-rule="evenodd" sketch:type="MSPage">
        <path d="M21.2318884,19.8726399 C22.2108969,20.6190298 23.3242686,20.4325971 24.3818362,20.4457725 C28.6224005,20.4984744 32.8965556,20.8766101 37.0926934,20.3555206 C39.9836672,19.9964893 41.7926929,22.3397451 44.1705946,23.1506948 C45.3386867,23.5492525 45.2124504,25.0275393 44.1705946,25.9741962 C43.9641739,26.1619465 43.6456033,26.3556258 43.4223872,26.2983125 C39.3882436,25.2620625 37.4248087,29.1428947 34.7803479,31.528312 C28.2816167,37.3913924 15.7603847,37.4875733 9.11428753,31.8247599 C8.31190146,31.1416122 7.46942317,30.3504257 6.96231084,29.3675363 C5.81751558,27.1487886 4.4581728,25.8463942 2.15395405,26.2416581 C1.14135475,26.4155741 0.0967900323,25.8813092 0.00522808342,24.3536144 C-0.0754981318,23.0024708 0.791360556,22.4385611 1.724859,22.2290712 C2.63506063,22.0248516 3.34317582,21.8338074 3.81723916,20.5893851 C4.43650134,18.9661682 5.86356745,19.4503664 6.97152121,19.58805 C9.11699646,19.8555118 11.2500106,20.0327218 13.7931573,19.8238907 C11.4515553,16.5899737 11.6856071,11.6992424 8.30160751,9.82239788 C6.06836281,8.58324572 4.88889321,6.3374883 3.6162363,4.1009537 C2.9899309,3.00014389 2.39504913,1.54754926 3.37785016,0.511957979 C4.59741198,-0.772649521 5.56504299,0.644371368 6.33058757,1.65558804 C7.61028771,3.3473173 8.74208008,5.17475382 9.58835087,7.2795338 C10.6740914,9.98116219 12.1206618,12.1340326 15.0501024,10.9930376 C15.4607767,10.8329558 15.9489265,10.9100322 16.3959005,10.9535113 C21.4957385,11.4515437 22.876211,13.9904551 21.2318884,19.8726399 L21.2318884,19.8726399 Z M21.7276232,32.9743189 C26.9737436,33.0401962 32.2615816,30.7364668 34.9726822,27.4933269 C35.7160135,26.6039832 36.2469644,25.7021229 35.9403132,24.3233109 C35.6959674,23.2238186 34.9927283,23.4629532 34.4189762,23.4596593 C25.5959801,23.4115689 16.7870705,22.9998357 7.99820697,22.029463 C6.72013219,21.8878268 6.36038584,22.3891531 6.95851833,23.9155303 C8.12444326,26.8885732 9.76930762,29.2120659 12.275071,30.6099823 C15.4618603,32.3880109 18.9011221,32.4855093 21.7276232,32.9743189 L21.7276232,32.9743189 Z M19.2242291,18.4845367 C18.3187526,20.1864827 17.0238513,20.7842368 15.6671974,19.4220392 C14.8138834,18.5656342 13.8430017,17.6123895 13.5645233,16.1202685 L13.5981141,16.1716528 C12.7193361,14.5497535 13.0357395,13.4028296 14.6291341,13.1854344 C16.4424942,12.937077 18.190298,13.8316908 19.6666667,14.835661 C20.8381977,15.631703 20.2572945,16.7150202 19.6777815,17.690419 C19.8322269,17.9002829 19.9706768,18.1359398 20.0892857,18.4027845 C19.7803698,18.4697275 19.4934622,18.4939441 19.2242291,18.4845367 L19.2242291,18.4845367 Z M19.2857143,30.0884021 C16.2647682,30.6153819 13.3252345,28.2798173 12.0535714,24.3243243 C14.3021844,26.5202832 16.5198606,28.7678082 19.2857143,30.0884021 Z" id="monxao-blk" fill="#261A13" sketch:type="MSShapeGroup"></path>
    </g>
</svg>