<?xml version="1.0" encoding="UTF-8" standalone="no"?>
<svg width="45px" height="45px" viewBox="0 0 45 45" version="1.1" xmlns="http://www.w3.org/2000/svg" xmlns:xlink="http://www.w3.org/1999/xlink" xmlns:sketch="http://www.bohemiancoding.com/sketch/ns">
    <!-- Generator: Sketch 3.3.2 (12043) - http://www.bohemiancoding.com/sketch -->
    <title>news-icon</title>
    <desc>Created with Sketch.</desc>
    <defs></defs>
    <g id="Styleguide" stroke="none" stroke-width="1" fill="none" fill-rule="evenodd" sketch:type="MSPage">
        <g id="news-icon" sketch:type="MSLayerGroup">
            <path d="M3.95537794,44.8057595 C2.74521157,44.4674051 2.44201085,43.6052848 2.45109222,42.4885443 C2.47657866,39.3060759 2.23343219,36.1045253 2.5076311,32.944557 C3.0662821,26.5055696 2.78798192,20.065443 2.8858264,13.6264557 C2.90047378,12.6689241 2.64414467,11.7800316 2.31692224,10.8703481 C1.53035805,8.685 0.872104882,6.45579114 0.16317179,4.2439557 C0.100188065,4.04772152 0.019920434,3.7743038 0.282401447,3.72560127 C1.32060759,3.53306962 2.37170344,3.36303797 3.42777939,3.54417722 C3.6114575,3.57550633 3.86192767,3.7828481 3.85987703,4.1146519 C3.18726944,4.1146519 2.51407595,4.09329114 1.84322604,4.11977848 C0.914875226,4.15651899 0.756097649,4.42481013 1.14454611,5.22484177 C2.58496926,8.19113924 3.41869801,11.283038 3.56868716,14.5882595 C3.66125859,16.6249367 3.6360651,18.6641772 3.76349729,20.6945886 C4.04414105,25.1541456 3.10670886,29.5647152 3.30239783,34.0197152 C3.39233273,36.0620886 3.32817722,38.1115823 3.30854973,40.1576582 C3.30181193,40.8585759 3.21832188,41.5592089 3.38940325,42.2851899 C3.50658228,41.2593038 3.61643761,40.2325633 3.74299096,39.2075316 C4.00547197,37.0771519 4.31248101,34.9510443 4.53365642,32.8166772 C4.71235443,31.090443 4.88695118,29.3533861 4.86732369,27.6234494 C4.85970705,26.9638291 5.06330561,26.3614557 5.04983002,25.706962 C4.98186618,22.3766772 4.96633996,19.0472468 4.86029295,15.715538 C4.74867993,12.2092405 4.217566,8.72231013 4.38864738,5.20803797 C4.40534539,4.86170886 4.19266546,4.4268038 4.78529837,4.15224684 C4.86351537,5.67712025 4.83744304,7.15898734 4.99768535,8.63658228 C5.49452441,13.2157595 5.69783002,17.8191456 5.69548644,22.4211076 C5.69431465,24.1151582 5.63484629,25.8317089 5.57889331,27.5283228 C5.54051718,28.6937658 5.38086076,29.874019 5.42128752,31.0588291 C5.50477758,33.5116139 4.8717179,35.9097152 4.62329837,38.3391456 C4.48092586,39.7301582 4.37165642,41.1237342 4.21112116,42.5138924 C4.1578047,42.9752848 3.58597107,43.5873418 3.93955877,43.7485443 C4.43317541,43.9738291 5.1661302,43.8601899 5.74938879,43.712943 C7.21617722,43.3426899 8.64927667,42.8468354 10.110792,42.4535127 C10.7769548,42.2740823 11.4747559,42.1487658 12.1637685,42.1191456 C14.5307848,42.0168987 16.90366,42.0257278 19.2671609,41.8804747 C21.1818662,41.7625633 23.0854394,41.4806013 24.9945787,41.2763924 C26.9833996,41.0639241 28.8506474,41.8255063 30.8007993,41.974462 C32.433689,42.0992089 34.0996817,42.3048418 35.6531826,42.7779114 C37.2002387,43.2489873 38.6667342,43.1814873 40.1932839,42.9399684 C41.6972767,42.7021519 42.2562206,42.2769304 42.3710561,40.8548734 C42.6033635,37.9734494 42.834792,35.0931646 42.415877,32.1949367 C42.0479349,29.650443 42.1492948,27.0751899 42.1721447,24.5093354 C42.192651,22.1764557 42.0953924,19.8398734 42.2067125,17.5118354 C42.3057288,15.4381329 42.6185967,13.3741139 42.840358,11.3063924 C42.8558843,11.1631329 42.9314647,11.0503481 43.2062495,11.0025 C43.0594828,12.3826899 43.1886727,13.6600633 42.8957251,15.0459494 C42.6432043,16.2430063 42.7577468,17.5237975 42.7937794,18.7652848 C42.8769765,21.6313291 42.5605931,24.4811392 42.7665353,27.3679747 C43.0187631,30.9024684 43.2337866,34.4631646 43.0632911,38.0221519 C43.002651,39.2867089 43.2074213,40.556962 42.8541266,41.8152532 C42.5995552,42.7220886 42.2948897,43.3837025 41.3249403,43.5580063 C39.2022423,43.9393671 37.1727016,44.083481 34.9644629,43.4782595 C32.763255,42.8750316 30.4401808,42.4258861 28.1018734,42.3085443 C27.1254792,42.259557 26.1933201,41.8975633 25.2016926,41.8947152 C22.8100687,41.8875949 20.4969548,42.5027848 18.132575,42.7058544 C16.445783,42.8508228 14.7613345,43.0866456 13.0727848,43.1179747 C11.6578481,43.1441772 10.2830452,43.2421519 8.97532731,43.7767405 C7.7698481,44.2691772 6.47355515,44.4320886 5.23673056,44.8057595 L3.95537794,44.8057595" id="Fill-1" fill="#43230D" sketch:type="MSShapeGroup"></path>
            <path d="M5.02317179,0.169177215 C6.60743219,1.19107595 8.38328029,1.75272152 10.1936962,2.25455696 C11.5939855,2.64303797 13.0259132,2.84012658 14.4519819,3.08962025 C16.4944123,3.44705696 18.5476817,3.36389241 20.5822025,3.1725 C22.4151754,3.00018987 24.2083074,2.54933544 26.0641302,2.41632911 C28.1015805,2.27050633 30.1290705,1.94468354 32.1794105,1.98655063 C34.8461121,2.04094937 37.5125208,2.08338608 40.1683834,2.40835443 C41.1723146,2.53110759 42.1736094,2.65756329 43.1754901,2.79170886 C43.9980868,2.90193038 44.1304991,3.35876582 44.1202459,3.96882911 C44.0991537,5.19949367 43.6969367,6.37177215 43.4028174,7.55031646 C43.2308571,8.23927215 43.3796745,8.98718354 42.952557,9.585 C42.5008318,8.89718354 42.4814973,8.03563291 42.8781483,6.47117089 C43.0858481,5.65148734 43.2791935,4.82753165 43.4488101,3.99958861 C43.544604,3.53164557 43.4309403,3.32259494 42.8131139,3.25794304 C38.6881193,2.82674051 34.5519928,2.90563291 30.4161591,2.84439873 C28.3549801,2.81363924 26.3910597,3.32629747 24.3767523,3.53620253 C21.0995479,3.87768987 17.8416781,4.43449367 14.5140868,3.93351266 C11.7304991,3.51455696 9.04885714,2.79427215 6.43547197,1.80056962 C6.21283183,1.71598101 6.00718264,1.58041139 5.80915009,1.44712025 C5.50712116,1.24348101 5.20040506,0.920221519 4.8242604,1.13411392 C4.47125859,1.33490506 4.52164557,1.78803797 4.63413743,2.08310127 C4.78969259,2.49037975 4.53277758,2.80908228 4.49791682,3.17420886 C3.9416094,2.19901899 4.13934901,1.18537975 4.38249548,0.169177215 L5.02317179,0.169177215" id="Fill-2" fill="#43220C" sketch:type="MSShapeGroup"></path>
            <path d="M29.5891682,20.2935759 C27.4289729,20.1973101 25.2898698,20.6233861 23.1238156,20.5271203 C19.9716998,20.3872785 16.8444846,20.0227215 13.7105316,19.7048734 C12.7605027,19.6083228 11.7920181,19.6914873 10.8320289,19.6835127 C9.16984448,19.6692722 9.0122387,19.3981329 9.26710307,17.8311076 C9.61453888,15.694462 9.63065099,13.5435759 9.36875588,11.3801582 C9.25948644,10.4764557 9.37344304,9.51379747 9.57440506,8.61778481 C9.75720434,7.80151899 10.4063761,7.76962025 11.2685208,7.80436709 C14.2340289,7.92455696 17.2083255,7.80977848 20.1779349,7.86132911 C23.6815877,7.92227848 27.1509656,8.36174051 30.6141917,8.86927215 C32.5130778,9.14724684 34.4289548,9.3235443 36.3419024,9.50012658 C37.0657758,9.56677215 37.7542025,9.20136076 38.5132297,9.27398734 C39.2672767,9.34632911 39.5162821,9.65591772 39.3873852,10.3397468 C39.0528391,12.1149684 39.1524412,13.8588608 39.5051501,15.6400633 C39.7052333,16.6502848 39.9659566,17.7197468 39.7606004,18.7772468 C39.6624629,19.2825 39.3654141,19.6949051 38.7317685,19.6835127 C35.6654864,19.6282595 32.6689259,20.5333861 29.5891682,20.2935759 L29.5891682,20.2935759 Z M31.3837649,11.0016456 C29.9081881,10.9341456 29.7435515,11.1021835 29.2991501,12.4900633 C29.0674286,13.2129114 29.2853816,13.9326266 29.1260181,14.6267089 C29.0363761,15.0174684 28.9572803,15.5324051 28.3168969,15.5363924 C27.7046365,15.5403797 27.6202676,15.1738291 27.6609873,14.7130063 C27.690575,14.3775 27.5139277,14.2029114 27.2174647,14.102943 C26.8761808,13.9881646 26.8498156,14.382057 26.6813707,14.4375949 C25.8880687,14.6990506 26.3301266,15.4725949 25.9803472,15.9188924 C25.7995986,16.1495886 25.6888644,16.3768671 25.3499241,16.3592089 C25.1747414,16.3498101 25.1255262,16.2512658 25.0982821,16.1008861 C24.8876528,14.9343038 24.5990995,13.7762658 24.473425,12.6014241 C24.3175769,11.1406329 24.3749946,11.1349367 22.953906,10.873481 C23.0538011,11.5336709 22.6843942,12.184462 22.8006944,12.7839873 C23.1299675,14.4817405 23.6206546,16.149019 24.0184774,17.8350949 C24.1421013,18.3591456 24.4640506,18.7732595 24.9427269,18.815981 C25.4580217,18.8621203 25.8034069,18.4186709 25.9428499,17.9285127 C26.0573924,17.5257911 26.3061049,17.3258544 26.7039277,17.1831646 C27.8877288,16.7590823 27.9969982,17.8516139 28.5494973,18.3417722 C28.7888354,18.5539557 28.5606293,19.1822468 29.13217,19.0179114 C29.4816564,18.9176582 29.5109512,18.5331646 29.5920976,18.1973734 C30.1686184,15.8066772 30.7767776,13.4233861 31.3837649,11.0016456 L31.3837649,11.0016456 Z M16.3406148,17.4859177 C16.3406148,16.3956646 16.3133707,15.2914557 16.3482315,14.1892405 C16.3839711,13.0713608 16.6107125,11.9597468 16.3537975,10.8356013 C16.2788029,10.5075 16.390123,10.1326899 15.9949367,9.93588608 C15.6782604,9.77781646 15.3404919,9.87550633 15.1067197,10.0401266 C14.7472731,10.293038 14.803519,10.6926266 14.9256781,11.0771203 C15.1606221,11.8173418 15.1881591,12.5575633 14.7378987,13.2317089 C14.6174973,13.4119937 14.4616492,13.6731646 14.1704593,13.645538 C13.8731175,13.6176266 13.8414792,13.3672785 13.7524231,13.1314557 C13.5494105,12.5948734 13.2640796,12.088481 13.043783,11.5573101 C12.7074792,10.7464557 12.3840651,9.98544304 11.2178409,10.5280063 C11.0110199,10.6242722 10.6823327,10.473038 10.2894901,10.4197785 C10.6369259,12.6746203 10.5628101,14.9323101 10.5900542,17.1880063 C10.5918119,17.3457911 10.6668065,17.5161076 10.7500036,17.6573734 C10.9811392,18.0501266 11.3801338,18.0689241 11.775613,18.0213608 C12.295302,17.9587025 12.0424882,17.5448734 12.054792,17.2985127 C12.0808644,16.7867089 12.1549801,16.2202215 11.9695443,15.7690823 C11.7132152,15.1453481 11.9229656,14.6147468 12.0987342,14.0918354 C12.2595624,13.6136392 12.5656926,13.2932278 13.0188825,13.9927215 C13.4501013,14.658038 13.8898156,15.3150949 14.2984774,15.9960759 C14.7440506,16.7377215 15.0794756,17.7043671 16.3406148,17.4859177 L16.3406148,17.4859177 Z M17.4087016,15.1840823 C17.4087016,15.7135443 17.4092875,16.0242722 17.4087016,16.3352848 C17.4046004,18.433481 17.4883834,18.5095253 19.730604,18.4388924 C20.5772224,18.4121203 21.1112658,17.8806646 21.0383219,17.128481 C20.931396,16.0302532 20.2180687,16.6611076 19.7291392,16.7120886 C19.1924593,16.7679114 18.7454213,16.5021835 18.5172152,16.1507278 C18.2916456,15.8032595 18.5860579,15.3538291 18.8792984,15.0579114 C19.1863074,14.748038 19.6216275,14.9357278 19.9977722,14.9160759 C20.6229222,14.8833228 20.76383,14.405981 20.7998626,13.990443 C20.8523002,13.3857911 20.3027306,13.7665823 20.0367342,13.6717405 C19.9110597,13.6270253 19.7511103,13.6842722 19.6140108,13.6580696 C19.2407957,13.5868671 18.8274467,13.5358861 18.8555696,13.0189557 C18.8825208,12.5228165 19.0333888,12.1542722 19.6737722,12.2029747 C20.1676817,12.2408544 20.6712586,12.2485443 21.1637034,12.2015506 C22.2159711,12.1010127 21.8603327,11.1468987 22.0504557,10.592943 C22.2101121,10.1281329 21.5752948,10.1175949 21.2064738,10.1136076 C20.1785208,10.1025 19.1502749,10.1361076 18.1220289,10.129557 C17.7725425,10.1275633 17.5932586,10.2121519 17.6196239,10.5903797 C17.7321157,12.2015506 17.1922134,13.786519 17.4087016,15.1840823 L17.4087016,15.1840823 Z M33.2665389,17.9866139 C34.0885497,18.0897152 34.72366,17.6679114 35.388651,17.3862342 C36.2859494,17.0060127 36.6339711,16.210538 36.5991103,15.3418671 C36.5598553,14.3635443 35.735208,13.5415823 34.7705316,13.4743671 C34.1406944,13.4305063 34.0879638,13.1718987 34.0249801,12.6515506 C33.924792,11.8227532 34.6782532,12.0283861 35.014557,11.7435759 C35.2459855,11.5473418 35.818991,11.5296835 35.4932333,11.0566139 C35.1487269,10.5564873 34.450047,10.3115506 33.975472,10.4696203 C33.3693635,10.6712658 32.4817324,10.8005696 32.3695335,11.6532911 C32.1761881,13.1212025 32.735425,13.9027215 34.388528,14.3584177 C35.2061447,14.5839873 35.2902206,15.1826582 35.3022315,15.7522785 C35.310141,16.1222468 34.8528499,16.6462975 34.4805136,16.5198418 C33.7592767,16.2751899 32.9088499,16.5887658 32.2860434,15.9960759 C32.0783436,15.7984177 31.8483797,15.6910443 31.5653924,15.9721519 C31.3023255,16.2333228 31.2311392,16.4697152 31.4013418,16.7943987 C31.7988716,17.5531329 32.3493201,18.0726266 33.2665389,17.9866139 L33.2665389,17.9866139 Z" id="Fill-3" fill="#43220C" sketch:type="MSShapeGroup"></path>
            <path d="M34.0364051,29.8580696 C31.8571682,29.8580696 29.6761736,29.8136392 27.4992803,29.8831329 C26.7730633,29.9064873 26.5518879,29.5886392 26.6271754,29.0634494 C26.8632911,27.4166772 26.5146835,25.7832911 26.579132,24.1425 C26.5952441,23.7306646 26.7297071,23.6044937 27.1360253,23.6241456 C28.9695841,23.7138608 30.8034358,23.8246519 32.6381664,23.8534177 C34.1658879,23.8773418 35.6968318,23.8283544 37.2219168,23.7377848 C37.5189656,23.7201266 37.8382785,23.6349684 38.1523183,23.630981 C39.6932224,23.6104747 39.6671501,23.6121835 39.6255515,25.0083228 C39.5886401,26.2518038 39.5432333,27.5029747 39.6448861,28.7399051 C39.7087486,29.5197152 39.3618987,29.6524367 38.7305967,29.6512975 C37.1659638,29.6484494 35.6013309,29.650443 34.0364051,29.650443 L34.0364051,29.8580696 L34.0364051,29.8580696 Z M31.7171392,28.8190823 C33.6740289,29.0099051 36.025226,28.5117722 38.3928282,28.6188608 C39.0452224,28.648481 39.1811501,28.293038 39.1861302,27.7906329 C39.1937468,26.9968671 39.1914033,26.2028165 39.1887667,25.4090506 C39.1849584,24.2481646 38.9350741,24.0043671 37.8174792,24.3239241 C36.6093635,24.6693987 35.3769331,24.5848101 34.159443,24.6449051 C32.1923002,24.7420253 30.2260362,24.5517722 28.282915,24.2399051 C27.5402929,24.1205696 27.3399168,24.5742722 27.2728318,25.0501899 C27.1301664,26.0618354 27.1193273,27.0905696 27.0100579,28.1079114 C26.9435588,28.726519 27.2133635,28.8498418 27.7875407,28.8307595 C28.9578662,28.7917405 30.1308282,28.8190823 31.7171392,28.8190823 L31.7171392,28.8190823 Z" id="Fill-4" fill="#43230D" sketch:type="MSShapeGroup"></path>
            <path d="M24.2581085,37.136962 C24.0961085,37.8162342 23.8878228,37.9375633 23.1636564,37.8498418 C20.9056166,37.5764241 18.6423038,37.3818987 16.3344629,37.6863608 C14.9924702,37.8632278 13.6015552,37.9481013 12.2249946,37.9654747 C11.7697541,37.9714557 11.4952622,37.7911709 11.1982134,37.2995886 C15.5848101,36.6553481 19.8937758,36.3585759 24.2581085,37.136962" id="Fill-5" fill="#43230D" sketch:type="MSShapeGroup"></path>
            <path d="M16.9449656,26.966962 C15.2382532,26.8877848 13.6085859,27.1082278 12.0058698,26.7428165 C11.8005136,26.6958228 11.4231971,26.882943 11.463038,26.4816456 C11.4864738,26.2443987 11.7597939,26.172057 12.0266691,26.1074051 C13.25617,25.8100633 14.5105714,25.9248418 15.7400723,25.9442089 C18.0865823,25.9806646 20.4295769,26.1968354 22.775208,26.3215823 C23.1932441,26.3437975 23.5840362,26.3526266 23.6036637,26.8778165 C23.613038,27.1307278 23.7047306,27.3876266 23.1709801,27.2990506 C21.0840217,26.9524367 18.9715769,26.876962 16.9449656,26.966962" id="Fill-6" fill="#43230D" sketch:type="MSShapeGroup"></path>
            <path d="M19.9901555,35.2808544 C18.4820615,34.9066139 16.641179,35.1139557 14.8190452,34.9131646 C13.7026221,34.7901266 12.535226,35.1774684 11.3859928,34.8516456 C11.178,34.7926899 10.892962,34.7958228 10.8721627,34.5836392 C10.8455045,34.3147785 11.1249765,34.2837342 11.3640217,34.2039873 C12.6629512,33.7713608 13.987953,34.1689557 15.289519,34.1410443 C16.5034937,34.1148418 17.758774,34.1154114 18.9888608,34.2225 C20.1322351,34.3221835 21.272094,34.2791772 22.4066799,34.171519 C22.618481,34.1512975 22.7819458,34.0222785 22.9108427,34.262943 C23.0426691,34.5084494 22.8455154,34.6420253 22.6981627,34.7830063 C22.0006546,35.4503165 21.1130235,35.2085127 19.9901555,35.2808544" id="Fill-7" fill="#43230D" sketch:type="MSShapeGroup"></path>
            <path d="M31.7247559,31.3106013 C33.930651,31.1465506 36.4593743,31.6369937 39.0042098,31.5131013 C39.6305316,31.4829114 39.8727993,31.8748101 39.7910669,32.3262342 C39.7072839,32.7876266 39.3088752,32.4125316 39.0381917,32.4202215 C36.5850488,32.4908544 34.1617866,31.9793354 31.6772984,32.2516139 C30.3941881,32.3923101 29.0108897,32.1755696 27.6721193,32.1271519 C27.3996781,32.1171835 27.2485172,31.9015823 27.2367993,31.6250316 C27.2192224,31.2234494 27.5315045,31.3151582 27.7561953,31.314019 C28.9651899,31.3068987 30.1744774,31.3106013 31.7247559,31.3106013" id="Fill-8" fill="#43230D" sketch:type="MSShapeGroup"></path>
            <path d="M13.5825136,31.3106013 C14.909566,31.3106013 16.0752043,31.3627215 17.2338119,31.2989241 C19.183085,31.1918354 21.1086293,31.5489873 23.0494069,31.5076899 C23.6487776,31.4951582 23.8169295,31.8827848 23.7849982,32.2638608 C23.7390054,32.8106962 23.2591573,32.5176266 22.9544919,32.5025316 C19.9778517,32.3538608 17.0152731,31.8782278 14.015783,32.305443 C13.2371284,32.4162342 12.4063291,32.2066139 11.6033599,32.1126266 C11.3968318,32.0884177 11.2046582,31.9172468 11.2427414,31.6791456 C11.2781881,31.4572785 11.5225063,31.4658228 11.6675154,31.5011392 C12.3808427,31.674019 13.0349946,31.1229114 13.5825136,31.3106013" id="Fill-9" fill="#43220C" sketch:type="MSShapeGroup"></path>
            <path d="M17.1728788,28.3898734 C18.6156456,28.2306646 20.5786872,28.5601899 22.551689,28.6248418 C22.8329186,28.6339557 23.3517288,28.3505696 23.366962,28.9318671 C23.3804376,29.4513608 22.8548897,29.7074051 22.4936854,29.6060127 C21.646481,29.3676266 20.8013273,29.5293987 19.9655479,29.4342722 C17.8006655,29.187057 15.6466221,29.171962 13.4697288,29.3701899 C12.8255371,29.4288608 12.088481,29.2790506 11.39566,29.2081329 C11.1879602,29.1867722 10.9963725,29.0147468 11.0376781,28.7772152 C11.077519,28.5476582 11.311877,28.6396519 11.4691899,28.6123101 C13.1811754,28.3129747 14.9107378,28.4288924 17.1728788,28.3898734" id="Fill-10" fill="#43220C" sketch:type="MSShapeGroup"></path>
            <path d="M11.7094069,22.8061709 C14.9781157,23.4412975 18.1410705,22.2895253 21.3374213,22.59 C21.65234,22.6196203 21.9807342,22.594557 22.2807125,22.6743038 C22.6155515,22.7637342 22.9583002,23.0024051 22.8343834,23.371519 C22.7087089,23.7457595 22.3627378,23.6267089 22.0311212,23.517057 C21.3807776,23.3025949 20.6870778,23.3789241 20.0282387,23.4487025 C17.7781085,23.6870886 15.5212405,23.787057 13.2620289,23.8206646 C12.7191971,23.8289241 12.1634756,23.6620253 11.6332405,23.5110759 C11.4308137,23.4535443 11.1592514,23.282943 11.239519,22.9756329 C11.3171501,22.6782911 11.5992586,22.871962 11.7094069,22.8061709" id="Fill-11" fill="#43230D" sketch:type="MSShapeGroup"></path>
            <path d="M35.7932116,34.6326266 C33.2513056,34.6326266 30.7091067,34.6292089 28.1672007,34.6371835 C27.858141,34.638038 27.5388282,34.593038 27.4743797,34.2954114 C27.3738987,33.8308861 27.8859711,33.9667405 28.064962,33.9317089 C29.4632007,33.6568671 30.9088969,33.6785127 32.2916094,33.8462658 C34.2742785,34.0866456 36.2446438,33.9228797 38.2173526,34.0083228 C38.4654792,34.0191456 38.718,33.9883861 38.9617324,34.0222785 C39.2368101,34.0610127 39.3853345,34.2481329 39.3982242,34.5243987 C39.4166799,34.9237025 39.1070344,34.8354114 38.8817577,34.8371203 C37.85234,34.8442405 36.8226293,34.8402532 35.7932116,34.8402532 L35.7932116,34.6326266" id="Fill-12" fill="#43220C" sketch:type="MSShapeGroup"></path>
            <path d="M29.8586799,36.219019 C32.5309476,36.3275316 35.2524304,36.6157595 37.9730344,36.9085443 C38.1801483,36.9307595 38.5044412,36.7832278 38.544868,37.1785443 C38.5911537,37.6350949 38.1590561,37.5872468 37.9633671,37.5892405 C36.7113092,37.6023418 35.444311,37.6632911 34.2092441,37.5075 C32.5321193,37.2956013 30.8643689,37.0797152 29.1696673,37.1218671 C28.9230054,37.1281329 28.6447052,37.1651582 28.4370054,37.0711709 C28.2228608,36.9740506 27.8449584,36.9729114 27.875425,36.5841456 C27.9126293,36.1122152 28.2908246,36.3286709 28.5254756,36.3004747 C28.9464412,36.2503481 29.3729729,36.2457911 29.8586799,36.219019" id="Fill-13" fill="#43230D" sketch:type="MSShapeGroup"></path>
        </g>
    </g>
</svg>