<?xml version="1.0" encoding="UTF-8" standalone="no"?>
<svg width="45px" height="45px" viewBox="0 0 45 45" version="1.1" xmlns="http://www.w3.org/2000/svg" xmlns:xlink="http://www.w3.org/1999/xlink" xmlns:sketch="http://www.bohemiancoding.com/sketch/ns">
    <!-- Generator: Sketch 3.3.2 (12043) - http://www.bohemiancoding.com/sketch -->
    <title>nutrition-icon</title>
    <desc>Created with Sketch.</desc>
    <defs></defs>
    <g id="Styleguide" stroke="none" stroke-width="1" fill="none" fill-rule="evenodd" sketch:type="MSPage">
        <path d="M44.0669712,38.057815 C43.9511086,37.5968271 43.7124316,37.4239343 43.3225539,37.3898932 C41.6978703,37.2476373 40.1519733,36.7920244 38.8816845,35.4255438 C37.8273347,34.2914383 37.2061662,32.8119055 36.7589365,31.2058832 C36.2337892,29.3196491 35.7593318,27.409407 35.1814669,25.5482558 C34.6999129,23.9970576 33.9890958,22.6665889 32.9647254,21.6982097 L32.9787737,21.7089595 C32.9787737,19.1942196 32.7839797,17.5980513 32.3846881,16.3360231 C31.5488842,13.6942561 30.2959748,11.471732 28.1557025,10.2523447 C26.0659754,9.06198187 23.9020961,8.4229054 21.4417534,9.57403137 C21.5545746,8.93226744 21.6965063,8.41753049 21.7243133,7.89365619 C21.7609549,7.20513057 21.8810175,6.40301524 21.6550854,5.84008328 C21.2446421,4.81777592 20.6278185,3.91443317 20.0531399,3.00392387 C19.730028,2.4922327 19.2683155,2.10685185 19.4134334,1.3176363 C19.4342887,1.20386742 19.2451429,1.03097457 19.0113901,0.661001789 C18.9488243,1.28162442 18.8134099,1.68115919 18.8937895,1.99666625 C19.1638943,3.05695629 19.4129989,4.15648316 19.854001,5.11088753 C20.3575689,6.20020207 20.3091963,7.78042481 19.5235029,8.61711871 C19.2302256,8.37847283 18.9536036,8.01692073 18.6248434,7.91640997 C18.0934685,7.75408777 17.4802656,7.56578685 16.9878495,7.74710039 C16.2660253,8.01262081 15.6993123,8.89374727 14.8116598,8.55369481 C14.7470664,8.52879107 14.6380107,8.68143844 14.4365546,8.84107318 C13.9828076,7.49304644 13.5254399,6.2600427 13.1583002,4.9870855 C12.9901546,4.40372889 12.7086084,4.13014611 12.271227,4.14949578 C11.7985076,4.17045792 11.3017466,4.22635695 10.8643652,4.42881179 C10.048982,4.80630945 9.90574684,5.88845745 10.5318395,6.65169428 C10.7004196,6.8571949 10.9359104,6.97580119 11.1215802,7.16320629 C11.6097963,7.65536864 12.08744,8.1636557 12.5514698,8.64703903 C11.8662872,9.28091976 11.3095673,9.83202692 10.7224335,10.3279517 C10.2400105,10.7355488 9.67822163,10.7588401 9.41984798,10.0595647 C9.08992917,9.16697173 8.71018944,8.24642927 8.95292163,7.16643124 C9.03996342,6.77943791 8.94901126,6.32919985 8.91729387,5.91049457 C8.91570076,5.89006992 8.61069241,5.85656633 8.60098892,5.89293654 C8.49164357,6.29748789 8.32914625,6.71816397 8.34087734,7.12737358 C8.37824303,8.43007194 8.48338836,9.72972452 8.56608531,11.0915469 C6.91533264,11.3712212 5.82549987,12.8543373 4.6613702,14.1011366 C3.7644487,15.0618117 2.93096198,16.2097127 2.31877287,17.4609912 C0.864117678,20.434569 0.810096731,23.7453327 1.15247077,27.0926458 C1.41663754,29.6745721 2.14657205,31.9979654 3.62526873,33.9069533 C4.10841585,34.5308009 4.59865956,35.1476611 5.05819967,35.7973082 C6.17917052,37.3827267 7.55677706,38.4953325 9.13019143,39.2616151 C9.46590337,39.4251914 9.80726362,39.5740764 10.1345755,39.760944 C12.2066336,40.9441402 14.3608094,41.576946 16.6579306,41.2911801 C18.5388154,41.0570133 20.7771364,40.5591177 22.5731519,39.9157413 C23.2888932,41.2668138 24.1697388,42.4288688 25.5124417,42.7728629 C26.8358825,43.1118403 28.1005229,42.8636988 29.1577694,41.7442848 C30.2174778,40.6220041 31.2443103,39.4511702 32.2640462,38.2731696 C32.4056882,38.1095933 32.5054749,37.7716908 32.483461,37.5344782 C32.4355229,37.018308 32.2000321,36.950405 31.892272,37.3028197 C31.5225254,37.7263624 31.1545168,38.1525926 30.7770943,38.5653854 C30.5216172,38.8447014 30.3188576,38.8126312 30.2248641,38.4120214 C30.1075532,37.91323 30.0464356,37.385235 30.0189183,36.8653023 C29.968518,35.9107187 30.0155872,34.9446687 29.9244902,33.9977892 C29.6567028,31.2134081 28.780202,28.771946 27.111201,26.820138 C25.879002,25.3793046 24.4447676,25.5615139 23.4739837,27.2796926 C23.3342244,27.5269383 23.2134377,27.7956837 23.1123475,28.0705206 C22.5014619,29.7319045 22.4478754,31.4712245 22.68858,33.2367024 C22.864836,34.5308009 23.1227752,35.8136121 23.6902123,36.9319511 C24.0266484,37.5952147 24.4670712,38.2041917 24.9402252,38.7278868 C25.402517,39.2399363 25.9832784,39.1671959 26.4894532,38.7540447 C27.0280696,38.3143773 27.5519134,37.8406688 28.0486744,37.331665 C28.2311581,37.1447974 28.3322482,36.8231988 28.4385521,36.5445995 C28.4686764,36.4655883 28.4053865,36.2993245 28.3455724,36.2167301 C28.3212412,36.1830474 28.1827854,36.2459338 28.1125437,36.2980704 C27.8469286,36.4953295 27.5968102,36.7264505 27.3240986,36.9059724 C27.0954147,37.056649 26.9685452,36.9448509 27.026911,36.6157274 C27.2868777,35.1507068 27.129739,33.7358521 26.6925025,32.3364054 C26.977959,32.1595709 27.2353188,32.0126568 27.4828304,31.8435264 C27.8351975,31.6029097 27.7252729,31.2861485 27.5736377,30.9511126 C27.4112852,30.5920688 27.2437189,30.6877422 27.0115592,30.8581267 C26.6014055,31.1589424 26.1667758,31.4085172 25.7427186,31.6804875 C25.3441512,31.9359748 25.3198201,32.0212567 25.6419182,32.3856754 C26.3205835,33.1541079 26.5421707,35.1786564 26.218914,35.9687677 C25.8219397,36.9389385 24.9981565,37.1164896 24.4441883,36.2602669 C24.1843664,35.8585821 23.9542343,35.3777071 23.8443096,34.8867989 C23.5146805,33.4153284 23.3763695,31.9067711 23.5804325,30.3844182 C23.636481,29.9658921 23.7507506,29.5423494 23.906441,29.1643143 C24.4089951,27.9447478 25.5398142,27.612041 26.4310874,28.4184563 C27.3817402,29.2786206 27.9568533,30.495858 28.385545,31.8112769 C29.049293,33.8483668 29.1024449,35.9524638 28.6531876,38.0630108 C27.9839362,41.2080482 25.6623389,41.1636156 24.2912497,40.032556 C23.7274332,39.5672682 23.193741,38.9212043 22.8415187,38.2095666 C21.1302278,34.7504554 20.8570816,31.0485776 21.8736313,27.2150146 C22.2426537,25.8230927 22.939857,24.7343157 24.1462766,24.2991274 C25.1364675,23.941696 26.0675685,24.1876876 26.9507313,24.7674609 C28.3208068,25.6668621 29.3163563,27.0645172 30.041077,28.7074472 C30.6057624,29.9872126 31.0357576,31.3678471 31.4446078,32.7405984 C32.3419638,35.7532339 33.2943545,38.7293201 35.1679979,41.0518175 C35.7613593,41.787284 36.5125836,42.3265664 37.1831385,42.9692261 C37.2885735,43.0702744 37.3527324,43.2404798 37.4292018,43.384169 C37.5249332,43.56387 37.579099,43.820074 37.7117617,43.9193306 C38.1737639,44.2645788 38.6427179,44.5976439 39.2182654,44.6031979 C39.6269708,44.6071395 39.9503724,44.4399799 40.2070081,44.0651697 C40.4490161,43.71168 40.7008725,43.3641027 40.9101493,42.9817676 C41.7081531,41.5244511 42.6884957,40.2814142 43.8013562,39.1976537 C44.131275,38.8764134 44.182689,38.5173696 44.0669712,38.057815 L44.0669712,38.057815 Z M14.6390245,9.044603 C15.4903251,9.66002989 16.1394454,9.20011699 16.7766898,8.60350228 C17.6918597,7.74692122 18.2446692,8.93011748 19.0193557,9.36100588 C18.3758836,9.77415709 17.7445772,10.2197369 17.086043,10.5916805 C16.3427843,11.0116399 17.0175393,11.4631321 17.0233324,11.9868273 C16.8957387,12.1269332 16.7278827,12.3112925 16.5161438,12.5436676 C16.6855929,12.7244437 16.8301315,12.8788827 16.9872701,13.046759 C15.8525406,13.2725051 15.4394904,12.7509599 15.6967054,11.4550698 C15.7539126,11.1666164 15.7486987,10.8165308 15.8835339,10.6017136 C16.3813086,9.80963147 15.9392928,9.73653273 15.4554215,9.6324387 C15.1654753,9.57008977 14.8829153,9.45506676 14.5971691,9.36369333 C14.6110726,9.25727017 14.625121,9.15102617 14.6390245,9.044603 L14.6390245,9.044603 Z M19.0849629,11.4041873 C18.7299888,11.7449564 18.3751595,12.0857255 17.980068,12.4650148 C17.8656536,11.6641536 18.1128755,11.3941541 19.0849629,11.4041873 L19.0849629,11.4041873 Z M15.4588974,10.3256226 C15.3372416,10.6839497 15.2488964,10.9801071 15.101606,11.4384075 C14.838453,10.9958735 14.6679902,10.6839497 14.4398856,10.3256226 L15.4588974,10.3256226 L15.4588974,10.3256226 Z M14.4965135,14.7644002 C14.0429113,14.7344799 13.7171925,14.7131594 13.3477356,14.6887931 C13.5336951,14.0608248 13.68142,13.5623917 13.828131,13.0666461 C14.5385137,13.2859423 14.0892564,14.1495108 14.4965135,14.7644002 L14.4965135,14.7644002 Z M3.27594293,29.1872472 C3.01423824,28.2194056 2.75253355,27.2515639 2.49068403,26.2835431 C2.57888445,26.2459188 2.66708486,26.2082944 2.75514046,26.1704909 C3.05377636,27.1291952 3.35226743,28.0878995 3.6507585,29.0466038 C3.5257717,29.0933655 3.40092973,29.1403064 3.27594293,29.1872472 L3.27594293,29.1872472 Z M3.97647729,29.7727538 C4.50539015,30.8534685 5.03444784,31.9341832 5.60651952,33.1034047 C4.74681888,32.5850844 3.87306991,30.8961094 3.97647729,29.7727538 L3.97647729,29.7727538 Z M4.46556238,26.2856931 C5.07948943,27.5611586 5.03227541,28.7821584 4.66484608,30.1400391 C3.83932492,28.8853566 3.99414634,27.6496654 4.46556238,26.2856931 L4.46556238,26.2856931 Z M5.75380988,31.9735991 C5.19694516,31.0408736 4.73450848,30.1360975 5.20172449,28.9014813 C6.05896305,29.74785 6.21248102,30.7459703 5.75380988,31.9735991 L5.75380988,31.9735991 Z M5.31787677,27.4454189 C6.42581307,28.0291339 6.60221391,28.5490665 6.11385297,29.553995 C5.8046446,28.7350383 5.5613331,28.0902286 5.31787677,27.4454189 L5.31787677,27.4454189 Z M7.26045841,32.5067899 C7.16574072,32.745615 6.76992505,32.9446657 6.52835149,32.9179704 C6.15252211,32.8764044 6.09835634,32.16405 6.3389161,31.0186573 C7.03525045,31.3291478 7.47436977,31.9684034 7.26045841,32.5067899 L7.26045841,32.5067899 Z M6.79541482,29.102682 C7.13648541,29.4859129 7.45916281,29.8481816 7.79371612,30.224246 C7.70160534,30.529899 7.62064633,30.7982861 7.53823904,31.0716897 C6.67680047,30.4645043 6.48186161,29.9830918 6.79541482,29.102682 L6.79541482,29.102682 Z M8.53856793,34.0432968 C7.67379831,33.9420694 7.46828699,33.5957462 7.62441187,32.4274205 C8.83054174,32.9441282 8.86689363,33.0111354 8.53856793,34.0432968 L8.53856793,34.0432968 Z M8.08177956,30.6042519 C9.34019243,31.2748612 9.35004076,31.2970775 8.89730757,32.3725964 C8.05368287,32.1233799 7.76706772,31.5319609 8.08177956,30.6042519 L8.08177956,30.6042519 Z M9.66967676,34.6868523 C9.07993602,34.5195136 8.70483079,34.2588306 9.06748079,33.4662109 C9.88894676,33.498102 9.97598856,33.6548701 9.66967676,34.6868523 L9.66967676,34.6868523 Z M10.6568263,34.9106276 C10.7192473,35.1320738 10.7703716,35.3139249 10.8442341,35.5762203 C10.7125852,35.5160214 10.6154054,35.5063465 10.602226,35.4599432 C10.4827427,35.0415962 10.3781767,34.6167994 10.269121,34.1939733 C10.5608051,34.1292953 10.8524893,34.0647964 11.2102151,33.9856061 C11.1627114,34.5515838 11.3338985,35.1021535 10.6568263,34.9106276 L10.6568263,34.9106276 Z M11.5709823,34.5028513 C11.9462324,34.5540921 12.3355308,34.6071245 12.841416,34.6759234 C12.6913739,35.2829296 12.5582767,35.8207786 12.4257588,36.3562985 C11.3708297,36.0963322 11.2872638,35.9237977 11.5709823,34.5028513 L11.5709823,34.5028513 Z M12.3465378,37.7731241 C13.8068412,37.9202174 15.2671447,38.0671315 16.727593,38.2140457 C15.2503447,38.3869385 13.7907653,38.230887 12.3465378,37.7731241 L12.3465378,37.7731241 Z M13.5948126,34.9486103 C13.9247315,35.0034344 14.2510296,35.0914037 14.5722587,35.16289 C14.7049214,35.8567905 14.8180323,36.4478511 14.9307087,37.0374785 C14.2542158,37.1439016 13.2357834,36.4809964 13.0748791,35.7688212 C12.9646648,35.2807796 13.0611205,34.8601035 13.5948126,34.9486103 L13.5948126,34.9486103 Z M15.1618546,35.7371092 C15.1466476,35.4710513 15.4099454,35.1808063 15.5476771,34.9014903 C15.6322568,34.9473562 15.7171262,34.9932221 15.8018507,35.0389088 C15.8241543,35.6430483 15.8466027,36.2470088 15.8703545,36.8896685 C15.1230406,36.936251 15.1895168,36.2201342 15.1618546,35.7371092 L15.1618546,35.7371092 Z M21.439581,37.2053547 C20.94282,37.2843659 20.4299831,37.2599996 19.8897736,37.1003649 C19.8751459,37.177226 19.8603735,37.2540872 19.8457458,37.3307692 C20.0854366,37.5190701 20.3252722,37.7073711 20.5917562,37.916455 C19.3213226,38.0142783 18.055958,38.1115641 16.7905933,38.2088499 C17.2588232,38.0418695 17.7292254,37.8917304 18.1870276,37.6966213 C18.9983556,37.3508356 19.8577665,37.0992899 20.5950873,36.5847321 C20.7797433,36.4559135 20.9612132,36.3199283 21.1416692,36.1814349 C21.2316076,36.5263248 21.3309597,36.8676314 21.439581,37.2053547 L21.439581,37.2053547 Z M24.6928585,22.3718648 C24.2763324,22.4763171 23.842282,22.5073124 23.4411077,22.6673055 C22.2422193,23.1453139 21.46145,24.1823127 21.0133513,25.6177713 C20.4386728,27.458677 20.2963066,29.3823563 20.4110106,31.3246687 C20.4921144,32.6972408 20.6585221,34.041326 20.9406475,35.3416952 C20.3028238,35.733526 19.6663036,36.1292983 19.0436868,36.5555284 C18.4553944,36.9582882 18.2075932,36.6718056 18.094772,35.9659011 C18.0587097,35.7397967 18.0000543,35.5192463 17.9516816,35.2961877 C17.879702,35.2874086 17.8075775,35.2788088 17.7355978,35.2702089 C17.6879493,35.7371092 17.640156,36.2038303 17.5813557,36.7782288 C17.3344235,36.6171607 17.0576567,36.436743 16.7307793,36.2235383 C16.7086205,36.4371013 16.6884894,36.6322104 16.6645928,36.8653023 C15.9595687,35.9804134 16.0696382,35.1238323 16.8960283,34.7078145 C17.3119751,34.4985514 17.7224185,34.2731636 18.0810133,33.8775705 C17.5731005,34.0936417 17.0651878,34.309713 16.3549499,34.6117828 C16.6321512,34.0262762 16.8155038,33.6391037 17.0999465,33.0385474 C16.4874678,33.4558194 16.0230035,33.7722223 15.4552767,34.1590364 C15.4907596,33.788347 15.512339,33.5636759 15.5339184,33.3391839 C15.4933665,33.2764767 15.4528146,33.2139486 15.4121178,33.1512413 C14.99704,34.2063356 14.4763824,34.9894596 13.4134876,34.4349484 C13.5222537,34.1294745 13.6485439,33.7750889 13.774979,33.4205242 C13.7321099,33.3794957 13.6892407,33.3382881 13.6463715,33.2970805 C13.4229015,33.6348038 13.1994315,33.972348 12.9232439,34.3894408 C12.5692836,34.2455725 12.1730335,34.0846836 11.758535,33.9162698 C11.8982942,33.5161975 12.004743,33.2119778 12.1111918,32.9075789 C12.0574605,32.8620713 12.0038741,32.8163846 11.9501428,32.7708771 C11.7353624,33.0761718 11.5207269,33.3816457 11.2713326,33.7365687 C11.0217935,33.5918046 10.7474888,33.4327073 10.2778107,33.1601995 C10.6679781,32.6592581 10.9838485,32.2539901 11.352871,31.7804608 C10.9305517,31.6016556 10.4148182,31.383076 9.86476044,31.1499842 C9.91704345,30.8996927 9.95947813,30.6965212 10.0497061,30.2649161 C9.20043315,31.3470641 8.86095567,30.3516313 8.3401532,29.9676837 C8.42285014,29.7009092 8.49236771,29.4769547 8.59649924,29.1415605 C7.79864028,29.8331319 6.69475917,28.9722509 6.97702948,28.021609 C7.12967848,27.5077678 7.40065218,27.0478549 7.61832908,26.563755 C7.55011496,26.5026602 7.48204567,26.4413862 7.41397638,26.3802915 C7.14778202,26.8668997 6.88173248,27.353508 6.51169624,28.0300297 C6.23377078,27.3755451 5.81362395,26.7975634 5.77683757,26.1844657 C5.73976153,25.5661722 6.08314937,24.9129418 6.25983987,24.2749403 C6.18872918,24.2398242 6.11747367,24.204529 6.04621816,24.1694129 C5.74540984,25.0960469 5.44460151,26.022681 5.14379318,26.949315 C4.72306705,26.3831581 4.64080459,25.7863642 4.91047483,24.8520262 C5.11062751,24.1586631 5.35654592,23.4853664 5.58204354,22.8031115 C5.50224316,22.7622622 5.42229796,22.7212337 5.3426424,22.6803845 C4.81271575,24.3218811 4.28278909,25.9631987 3.71520709,27.7218683 C2.91459639,26.1389581 2.93023784,24.5085696 3.20193568,22.8269403 C3.07043161,22.7339544 2.93429303,22.6377435 2.70271262,22.473988 C2.61726394,23.3307482 2.53891184,24.1162014 2.46055975,24.9018336 C2.38785595,24.8808715 2.31529699,24.8600885 2.24259319,24.8391264 C2.21971033,21.8917064 3.4084608,19.41047 4.35361012,16.8262146 C3.20541156,18.6495623 2.64188475,20.8052585 2.0351991,22.9358717 C1.96466773,22.9245844 1.89413636,22.9132971 1.823605,22.9020098 C1.93497794,21.8076787 1.9511987,20.6812773 2.1842274,19.6283329 C2.42145611,18.5558598 2.74268522,17.4382374 3.26580495,16.5572901 C3.78095912,15.68978 4.55535591,15.022754 5.2893456,14.3998023 C6.03376293,13.7677132 6.86797379,13.2972296 7.66988794,12.6237538 C7.24727904,12.6961358 6.82467014,12.7685179 6.44478557,12.8335543 C7.21643062,11.9311074 8.40605006,11.8399131 9.33251653,12.5305887 C10.0460854,13.0625254 10.8162822,13.487143 11.5851755,13.8899028 C11.7439073,13.9732138 12.0212534,13.7829421 12.2203923,13.6603942 C12.5918768,13.4317815 12.945982,13.1605278 13.3486046,12.8779869 C13.1206449,12.1511202 12.6695048,11.6888782 12.0681778,11.3597547 C11.8574527,11.2443734 11.6413689,10.9170415 11.5993687,10.6457879 C11.5759065,10.4938572 11.8932253,10.2415949 12.0765778,10.0658354 C12.2802064,9.87054709 12.5059937,9.71073318 12.9025335,9.38913456 C13.3433908,10.2338908 13.7793239,11.0689723 14.268409,12.0059978 C13.9363177,12.1324872 13.746303,12.2048693 13.4662051,12.3114717 C13.5881505,12.5728713 13.7001028,12.8127713 13.8119102,13.052313 C13.4750397,13.2864798 13.0473618,13.440023 12.8360573,13.7924378 C12.4190967,14.4879508 11.8552802,14.424706 11.2976914,14.5008505 C11.0587247,14.5336375 10.7547302,14.4585679 10.5917984,14.6128278 C9.89430541,15.2732247 9.23852298,16.0009872 8.64458223,16.8516558 C8.84850044,16.7507867 9.05256348,16.6500968 9.28588183,16.5347155 C9.3441028,17.3371891 8.8964386,17.148709 8.59027163,17.0560815 C7.96808936,16.8679597 7.36748651,16.5612317 6.74153871,16.4041052 C6.53472393,16.3521478 6.27721926,16.6094267 6.04303194,16.7253455 C6.15382557,16.9906868 6.21059825,17.3982839 6.38381287,17.4993322 C7.97156524,18.4239954 9.58147634,18.3890585 11.1750218,17.5939305 C11.2041323,17.4846407 11.2416428,17.4205002 11.2293324,17.3782176 C10.9810968,16.5225323 10.9474966,16.4447754 11.5811203,16.0430906 C12.1025021,15.712713 12.630546,15.3728397 13.3312252,15.6428392 C14.0421872,15.9169595 14.8672739,16.0181869 15.3068277,14.8695692 C15.3566486,14.7391381 15.6022774,14.6565437 15.7537677,14.6638894 C16.3733431,14.6938097 17.0191324,14.6457939 17.6045283,14.8495029 C18.871486,15.2902453 19.2234187,16.4637667 18.5974709,17.8702008 C18.390801,18.3344136 18.1519791,18.7773059 17.958923,19.249402 C17.8886813,19.4210407 17.9086676,19.6491159 17.8875227,19.8513916 C18.0313372,19.7928051 18.2429313,19.7895802 18.3082488,19.6668531 C18.9111689,18.5366893 19.9057047,17.7265116 19.8579114,16.0778483 C19.8234422,14.8839023 19.7390074,14.3560864 18.8232582,13.8193123 C18.5453327,13.6564526 18.2798625,13.4613435 17.8133706,13.1510322 C18.9677968,12.1529119 19.9330772,11.0886802 21.0534688,10.4247 C21.8930383,9.92698362 22.9342087,9.77200712 23.881965,9.78795268 C24.6058167,9.8001358 25.3638479,10.2204536 26.0354166,10.6352172 C27.1143872,11.3017057 28.1703302,12.047922 29.1702246,12.8812118 C30.3569475,13.8701948 31.000854,15.4219305 31.4716907,17.0215029 C31.7643886,18.0162191 31.9564309,19.854079 31.9044376,20.8957361 L31.9208032,20.9080984 C31.844189,20.8625908 31.7677197,20.8169041 31.6884986,20.7746215 C31.2199791,20.5246883 30.7104733,20.3661285 30.2070502,20.2493139 C29.682627,20.127841 29.176597,20.2192144 28.6710015,20.5329298 C27.4011472,21.3208912 26.0971134,22.0201667 24.6928585,22.3718648 L24.6928585,22.3718648 Z M41.9833268,39.4296705 C41.5142281,40.1104921 41.0184809,40.7630059 40.5386648,41.4327193 C40.1467595,41.980064 39.6528951,42.1047619 39.1306443,41.8571578 C38.4947034,41.5556255 37.843121,41.2537349 37.2690217,40.8115592 C35.0293972,39.0865723 33.7143565,36.4686341 32.8044005,33.491473 C32.1693285,31.4140713 31.5416427,29.3350572 30.6306729,27.4083321 C29.6901581,25.4194372 28.5057525,23.7885112 26.6313849,23.1406557 C26.5384052,23.1084062 26.4559979,23.0292159 26.2794522,22.9132971 C26.5662122,22.8249695 26.7604269,22.7570665 26.9573934,22.7058257 C27.8640184,22.4702256 28.7444295,22.1041944 29.4829088,21.421402 C30.0880014,20.8618742 30.6061969,21.1874144 31.1798617,21.4040231 C30.5098861,21.9388264 29.8257174,22.414864 29.1471969,22.9029056 C29.0629068,22.9636421 29.0085962,23.0881608 28.9403821,23.1829383 C29.0517551,23.2712659 29.1742798,23.4484587 29.2721837,23.4298257 C29.4956537,23.3871848 29.725641,23.2864948 29.9197109,23.1413723 C30.4722308,22.7282211 31.0043298,22.2733248 31.5539531,21.8542612 C31.6557674,21.7766834 31.8383959,21.7132595 31.9219618,21.7738168 C32.2150942,21.9861256 32.4812886,22.2555876 32.7935383,22.5354411 C32.4666609,22.8195946 32.1783078,23.017212 31.9494792,23.2907948 C31.8281131,23.4357381 31.8097199,23.712725 31.7448368,23.9298712 C31.9166031,23.9205547 32.1160317,23.9773496 32.2546323,23.8888428 C32.5835374,23.6786839 32.8837664,23.399547 33.2345404,23.1168269 C33.4881348,23.5566735 33.7244945,23.9664206 33.9834475,24.4155837 C33.662508,24.7031412 33.3515617,24.9371289 33.0910156,25.2377653 C32.99036,25.3538633 33.0044083,25.621892 32.9661737,25.8207636 C33.1175192,25.8239886 33.2969614,25.8936832 33.4147068,25.8173595 C33.7068254,25.6283419 33.9705577,25.3724963 34.2872972,25.1093051 C34.4468979,25.5416268 34.5802848,25.9365033 34.7371338,26.3163301 C34.8640034,26.6232373 34.8487964,26.8368003 34.5837606,27.0190096 C34.3707183,27.1652071 34.1565172,27.3391749 33.995613,27.5597253 C33.8953919,27.6971437 33.8936539,27.9443895 33.8475985,28.1423652 C34.0092269,28.144336 34.196345,28.2118807 34.3272698,28.1343029 C34.589409,27.9789681 34.8209894,27.7440846 35.0881975,27.5228176 C35.1527909,27.7310057 35.2056533,27.8902821 35.2518535,28.052246 C35.5063168,28.9459139 35.5099375,28.9525429 34.9290313,29.5358995 C34.4374841,30.0294952 33.9444886,30.5225533 33.4332448,30.9837204 C33.1645884,31.2263079 33.0711742,31.5548939 33.2309197,31.846393 C33.4235413,32.1979119 33.6584528,31.8623386 33.820226,31.7100495 C34.3543527,31.2069582 34.8658861,30.6673175 35.3862541,30.1420099 C35.4893718,30.0379159 35.5927792,29.9341802 35.7168971,29.8093031 C35.8733116,30.3752809 36.0263951,30.8681599 36.1389267,31.3750136 C36.1702096,31.5158362 36.1212576,31.7431948 36.0400089,31.8514096 C35.8211734,32.1430879 35.5407859,32.3663257 35.3345504,32.6687538 C35.241281,32.8054556 35.266626,33.0659595 35.2380948,33.2702059 C35.4001576,33.2501396 35.5942275,33.2931389 35.7174764,33.196928 C35.9729535,32.9969815 36.19092,32.7233987 36.4569695,32.4456952 C36.6081703,32.8839293 36.7547365,33.2553354 36.8574197,33.6442995 C36.8836336,33.7430186 36.7936953,33.9255863 36.7175156,34.0219763 C36.4755076,34.3285252 36.1941062,34.5909998 35.9730983,34.9172567 C35.8983669,35.0274423 35.9589051,35.2771963 35.9574568,35.4631681 C36.0957678,35.4316353 36.2613065,35.4490142 36.3667415,35.3588949 C36.6591498,35.1089617 36.9262132,34.8142376 37.2270215,34.513422 C37.4397742,34.9280065 37.6308027,35.3001293 37.8309554,35.6901684 C37.5230505,36.0289667 37.2066007,36.3322906 36.9417098,36.6933052 C36.8514818,36.8163906 36.8905854,37.0847776 36.8705991,37.286695 C37.0200619,37.2685995 37.2026903,37.3115987 37.3124702,37.2204045 C37.5899611,36.9898209 37.8296519,36.6911553 38.0955566,36.437818 C38.1629018,36.3736774 38.3012128,36.3172409 38.3571165,36.358986 C38.72947,36.6374062 39.0883545,36.9434176 39.474177,37.2591038 C38.8250567,38.0916769 38.1830329,38.9149336 37.5384023,39.7417735 C37.7851897,40.166212 38.0285012,40.2178111 38.3394475,39.8637839 C38.919195,39.2032078 39.4861977,38.5252528 40.0743454,37.8765015 C40.18007,37.7596868 40.3739951,37.6690301 40.5053543,37.7014587 C40.8959562,37.798207 41.2785925,37.9512127 41.6589115,38.1027851 C42.1605966,38.3027316 42.3226595,38.9369707 41.9833268,39.4296705 L41.9833268,39.4296705 Z" id="nutrition-icon" fill="#5F3815" sketch:type="MSShapeGroup"></path>
    </g>
</svg>