<?xml version="1.0" encoding="UTF-8" standalone="no"?>
<svg width="46px" height="45px" viewBox="0 0 46 45" version="1.1" xmlns="http://www.w3.org/2000/svg" xmlns:xlink="http://www.w3.org/1999/xlink" xmlns:sketch="http://www.bohemiancoding.com/sketch/ns">
    <!-- Generator: Sketch 3.3.2 (12043) - http://www.bohemiancoding.com/sketch -->
    <title>product-icon</title>
    <desc>Created with Sketch.</desc>
    <defs></defs>
    <g id="Styleguide" stroke="none" stroke-width="1" fill="none" fill-rule="evenodd" sketch:type="MSPage">
        <g id="product-icon" sketch:type="MSLayerGroup" transform="translate(0.287417, 0.000000)" fill="#43220C">
            <path d="M18.0955161,44.7938547 C18.0731613,44.6181285 17.7183871,44.4753352 17.9895484,44.2769832 C18.6059032,43.8264804 18.7156452,43.0951676 18.9026129,42.5438547 C19.1026452,41.9535754 19.0564839,41.1744972 19.0001613,40.4796369 C18.8381613,38.4820391 18.7859032,36.4701117 18.4578387,34.4926257 C18.0513871,32.0417598 18.1167097,29.5768156 17.8861935,27.1241899 C17.5935484,24.0076257 17.3554839,20.8905587 17.5833871,17.7649441 C17.6664194,16.6296369 17.7421935,15.4872905 18.0841935,14.3751117 C18.3390968,13.5452514 17.8269677,12.9343575 17.2140968,12.3820391 C16.9034516,12.1019832 16.8003871,11.7701397 16.9307419,11.4390503 C17.0799677,11.0594413 17.5247419,11.1376257 17.8719677,11.1610056 C20.5377097,11.341257 23.1053226,10.5289944 25.7742581,10.6172346 C27.8367097,10.6851117 29.8399355,11.0775419 31.8817742,11.2261173 C33.9799355,11.3789665 36.0775161,11.4121508 38.1748065,11.2110335 C38.4996774,11.1801117 38.8280323,11.1524581 39.1537742,11.1592458 C40.5296129,11.1874022 41.8830968,11.083324 43.2354194,10.8372067 C43.7452258,10.7441899 44.3453226,10.6810894 44.8507742,10.9857821 L44.8507742,11.3291899 C44.1560323,11.9873464 44.1101613,12.5027095 43.8526452,13.3147207 C43.3950968,14.7572346 43.605871,16.6361732 43.7098065,18.0980447 C43.902871,20.8163966 44.1223548,23.5779888 44.1383226,26.3038827 C44.1513871,28.5403073 44.2332581,30.6636034 44.0907097,32.9015363 C43.9455484,35.1804469 43.9972258,37.5843017 43.9954839,39.8702514 C43.9946129,40.9663408 44.1487742,42.1737989 44.6620645,43.2103073 C44.8490323,43.5874022 44.2637419,43.7080726 43.6764194,43.5828771 C43.1338065,43.4672346 42.5935161,43.5537151 42.0944516,43.6409497 C39.6249677,44.0731006 37.1116452,44.2299721 34.6351935,44.0477095 C32.5082903,43.8910894 30.3781935,44.0826536 28.2562258,43.7900279 C26.5018065,43.547933 24.7224194,43.8239665 23.0019677,44.1392179 C21.8299355,44.354162 20.5998387,44.3586872 19.4829677,44.7938547 L18.0955161,44.7938547 L18.0955161,44.7938547 Z M37.8833226,41.733352 C37.3200968,41.7258101 36.971129,41.3904469 36.6857419,41.0548324 C35.7967742,40.0097765 35.3824839,38.8272067 35.5479677,37.5252235 C35.6565484,36.6734916 35.5122581,36.5754469 34.56,36.886676 C32.9905161,37.3995251 31.842871,38.3563408 30.8621613,39.4893855 C30.6714194,39.7098603 30.5840323,39.8994134 30.8848065,40.1948045 C31.9192258,41.2099441 31.8939677,41.2310615 30.9187742,42.1697765 C30.7855161,42.2979888 30.4513548,42.2552514 30.4931613,42.5609497 C34.4223871,42.5609497 38.3463871,42.5619553 42.2703871,42.5591899 C42.6707419,42.5589385 42.6707419,42.5478771 43.2389032,42.1494134 C41.418871,42.4960894 40.0828065,41.8696089 38.8135161,41.0218994 C37.5215806,40.1593575 36.8294516,38.4951117 37.4585806,37.3955028 C38.1173226,36.2438547 38.8265806,36.1168994 40.5647419,36.3268156 C40.7212258,36.537486 40.9227097,36.6239665 41.2292903,36.4882123 C41.0431935,36.3884078 40.8716129,36.2963966 40.6997419,36.2043855 C39.4777742,35.3632123 37.7590645,35.7659497 36.7978065,36.4200838 C36.3164516,36.7474022 36.063,37.1770391 36.1306452,37.7396648 C36.3077419,39.2125978 36.5838387,40.6407821 38.0955484,41.6018715 C38.0247097,41.6456145 37.953871,41.6896089 37.8833226,41.733352 L37.8833226,41.733352 Z M41.220871,33.7522626 C41.0066129,33.0556425 40.3049032,33.1112011 39.932129,32.837933 C38.9128065,32.0900279 37.6873548,31.7938827 36.5225806,31.3453911 C34.4128065,30.5326257 32.1204194,30.1052514 29.9218065,30.2990782 C27.1114839,30.5472067 24.3110323,31.1560894 21.7103226,32.2836034 C20.7046452,32.7197765 19.6940323,32.9681564 20.0514194,34.2100559 C20.069129,34.2718994 19.9869677,34.3553631 19.9515484,34.4287709 C19.4426129,32.6423464 19.1824839,30.9341061 19.4725161,29.1987151 C19.7941935,29.8784916 19.9727419,30.6052793 19.6949032,31.2732402 C19.4812258,31.7865922 20.1234194,32.0762011 19.9135161,32.5184078 C20.2256129,32.4075419 20.547,32.3130168 20.8483548,32.1835475 C22.6631613,31.4039665 24.5578065,30.8312849 26.5322903,30.4318156 C29.0894516,29.9144413 31.6225161,29.6544972 34.2528387,30.1447207 C37.2930968,30.7113687 39.9120968,31.9218436 42.2962258,33.5916201 C42.5113548,33.7424581 42.722129,34.0189944 43.0223226,33.8980726 C43.1642903,33.8410056 43.29,33.5187151 43.2348387,33.3686313 C42.9125806,32.4932682 43.209871,31.6380168 43.2345484,30.7706983 C43.3001613,28.4618715 43.2760645,26.1487709 43.1953548,23.8396927 C43.1123226,21.4805866 42.8060323,19.1292737 42.8629355,16.7638827 C42.8855806,15.8213966 42.8603226,14.8781564 42.8699032,13.935419 C42.8733871,13.6093575 42.8106774,13.3924022 42.3420968,13.3841061 C41.193871,13.3634916 40.0830968,13.0726257 38.8982903,13.1885196 C37.7439677,13.301648 36.522,13.037933 35.3967097,13.1156145 C33.6945484,13.2332682 32.0045806,13.1377374 30.3117097,13.2076257 C26.9747419,13.3453911 23.6488065,12.8855866 20.3054516,13.0346648 C18.6892258,13.1065642 18.6874839,13.0469832 18.6645484,14.4975419 C18.6633871,14.5734637 18.5542258,14.6466201 18.5475484,14.7243017 C18.4119677,16.2905028 18.0731613,17.8401117 18.0920323,19.4196369 C18.1230968,22.0306425 18.2647742,24.6353631 18.4804839,27.2400838 C18.6419032,29.1896648 18.6108387,31.1503073 18.8912903,33.0943575 C19.0651935,34.2990503 19.3215484,35.4964525 19.2899032,36.7182402 C19.286129,36.8555028 19.2716129,37.0347486 19.4823871,37.0556145 C19.5720968,37.0644134 19.7709677,36.9344413 19.764,36.882905 C19.6882258,36.3056983 20.2235806,36.329581 20.6163871,36.1598883 C21.6415161,35.7174302 22.6091613,35.1698883 23.6502581,34.7613687 C25.0051935,34.2299162 25.5164516,34.4217318 26.2254194,35.5351676 C26.5166129,35.9924581 26.8211613,36.4432123 27.1222258,36.9010056 C28.2721935,36.2586872 29.2523226,35.3795531 30.7245484,35.3456145 C31.1063226,35.3368156 31.0314194,35.024581 30.9443226,34.9013966 C30.4949032,34.2641061 31.0677097,33.8613687 31.3229032,33.3663687 C31.4846129,33.0533799 31.6892903,33.0739944 31.9288065,33.1876257 C32.2107097,33.3213687 32.0501613,33.4453073 31.9244516,33.6408939 C31.5185806,34.2713966 31.7473548,35.5623184 32.2501935,35.8338268 C33.1025806,36.2941341 34.0266774,36.3858939 35.0253871,36.4376816 C35.7448065,36.4748883 36.2473548,36.3036872 36.7220323,35.9640503 C37.2785806,35.5655866 37.2176129,34.9680168 37.0837742,34.4486313 C36.9606774,33.9712291 36.4044194,34.0144693 35.9381613,33.9767598 C35.2129355,33.9181844 34.4766774,33.869162 33.8254839,33.5026257 C34.9533871,33.5353073 36.0708387,33.6305866 37.1836452,33.7567877 C37.5241935,33.7955028 38.0049677,33.8470391 37.9013226,34.2799441 C37.6260968,35.4323464 38.3986452,35.4524581 39.3407419,35.3601955 C39.5227742,35.3423464 39.7225161,35.396648 39.9033871,35.446676 C41.1462581,35.7915922 42.1687742,36.420838 42.9886452,37.3716201 C43.2136452,36.3730726 43.1221935,35.5158101 42.2245161,34.9137151 C41.6726129,34.5434078 41.0307097,34.2676257 40.4097097,33.9807821 C37.6104194,32.6881006 34.6511613,31.8504469 31.4750323,31.6390223 C34.955129,31.3494134 38.0522903,32.4530447 41.220871,33.7522626 L41.220871,33.7522626 Z M19.8107419,38.5810894 C19.4254839,39.4448883 19.4797742,40.2438268 19.5154839,41.0171229 C19.5596129,41.9731844 20.1916452,42.4450559 21.222871,42.5549162 C23.4836129,42.7952514 25.7539355,42.7650838 28.0199032,42.7148045 C29.0369032,42.6921788 30.0562258,42.6421508 30.6685161,41.6156983 C31.0633548,40.9540223 30.8882903,40.6744693 30.2646774,40.4384078 C29.025,39.9690503 27.8175484,39.4388547 26.7093871,38.7784358 C25.4296452,38.0154469 24.4402258,38.7910056 23.4505161,39.2068156 C23.0127097,39.3905866 23.4345484,40.0457263 23.4374516,40.4871788 C23.4403548,40.8876536 23.4580645,41.2883799 23.4420968,41.6881006 C23.4293226,42.0078771 23.589871,42.5448603 23.0646774,42.5146927 C22.4944839,42.4817598 22.8597097,41.9518156 22.8666774,41.6757821 C22.9145806,39.8363128 22.158,38.7163408 20.330129,38.0388268 C20.1173226,38.583352 20.5324839,39.2221508 19.9593871,39.8119274 C19.907129,39.3782682 19.8653226,39.033352 19.8107419,38.5810894 L19.8107419,38.5810894 Z M17.775,11.5725419 C18.4079032,11.8078492 18.2688387,12.6910056 19.1110645,12.7013128 C22.8216774,12.747067 26.5322903,12.8164525 30.2429032,12.8363128 C31.7592581,12.8446089 33.2759032,12.7412849 34.7925484,12.7023184 C36.6302903,12.6553073 38.4662903,12.9992179 40.3089677,12.7010615 C40.7932258,12.6226257 41.2618065,12.7309777 41.7210968,12.9645251 C42.1002581,13.1573464 42.7479677,13.3124581 42.9665806,12.9323464 C43.2026129,12.5218156 43.5896129,12.2125978 43.7823871,11.8005587 C43.8558387,11.6434358 44.1119032,11.4893296 43.9266774,11.2909777 C43.7553871,11.1074581 43.5004839,11.1778492 43.2807097,11.2150559 C41.8932581,11.4498603 40.4947742,11.5416201 39.0817742,11.507933 C38.6933226,11.4986313 38.2955806,11.5748045 37.9167097,11.5926536 C35.7189677,11.6967318 33.516,11.7889944 31.3185484,11.5569553 C29.5179677,11.3671508 27.7226129,11.0813128 25.9156452,11.0101676 C23.2040323,10.9035754 20.546129,11.6487151 17.775,11.5725419 L17.775,11.5725419 Z M43.0647097,39.7256983 C42.8394194,38.9260056 43.7156129,37.7612849 41.9060323,37.2703073 C41.2446774,37.0910615 40.6291935,36.7546927 39.8679677,36.7051676 C38.6953548,36.628743 37.9544516,37.1214804 37.9164194,38.1182682 C37.8493548,39.8757821 39.987,41.7886592 42.083129,41.8819274 C42.7709032,41.9125978 43.2142258,41.8437151 43.0783548,41.0943017 C43.0025806,40.6759777 43.0647097,40.2387989 43.0647097,39.7256983 L43.0647097,39.7256983 Z M26.6254839,38.2055028 C26.5825161,36.8723464 25.9115806,35.9288547 25.1352581,35.024581 C24.9180968,34.7719274 24.6382258,34.7993296 24.3470323,34.9282961 C23.2426452,35.4172626 22.1188065,35.8760615 21.0396774,36.403743 C20.4976452,36.6687151 19.8333871,37.0274581 20.8875484,37.5239665 C21.1090645,37.6282961 21.2623548,37.8397207 21.4493226,37.9996089 C22.7816129,39.1394413 22.7569355,39.0936872 24.4544516,38.398324 C25.0800968,38.1421508 25.6755484,37.2615084 26.6254839,38.2055028 L26.6254839,38.2055028 Z M43.3666452,42.911648 C42.8135806,42.911648 42.2480323,42.8467877 41.7089032,42.9227095 C38.9162903,43.3156425 36.1213548,42.9546369 33.3287419,42.9760056 C32.1712258,42.9848045 31.0064516,42.8734358 29.8570645,42.9506145 C26.8690645,43.1509777 23.8801935,43.1680726 20.8930645,43.047905 C19.3630645,42.9863128 19.3668387,42.9124022 18.8663226,44.3184637 C19.8975484,44.2189106 20.8930645,44.1593296 21.8734839,44.0200559 C23.6665161,43.7656425 25.4284839,43.2764246 27.2734839,43.4252514 C29.3719355,43.5946927 31.473,43.5944413 33.5758065,43.5924302 C34.8302903,43.5911732 36.0847742,43.5944413 37.3386774,43.617067 C39.3866129,43.6537709 41.3959355,43.4446089 43.3666452,42.911648 L43.3666452,42.911648 Z M33.1217419,36.7846089 C31.8675484,36.0894972 30.6879677,35.216648 29.1463548,36.2121788 C28.6827097,36.5118436 28.1734839,36.7592179 27.7168065,37.0659218 C26.9410645,37.5863128 26.973871,38.3073184 27.7966452,38.7095531 C28.3738065,38.9918715 29.0009032,39.197514 29.5777742,39.4798324 C29.8927742,39.6341899 29.9427097,39.5084916 30.0901935,39.3076257 C30.8537419,38.2665922 31.9967419,37.5624302 33.1217419,36.7846089 L33.1217419,36.7846089 Z M41.1683226,33.5692458 C41.3306129,34.0946648 41.7225484,33.9878212 41.9728065,34.1117598 C41.8407097,33.7957542 41.5379032,33.7572905 41.1683226,33.5692458 L41.1683226,33.5692458 Z" id="Fill-1" sketch:type="MSShapeGroup"></path>
            <path d="M1.43245161,28.8306704 C1.33287097,29.2479888 1.49196774,29.417933 2.03835484,29.3676536 C2.25783871,29.3477933 2.13067742,29.6278492 2.07958065,29.7867318 C1.85632258,30.4818436 2.20732258,30.7430447 2.99380645,30.9129888 C4.28080645,31.1907821 5.52541935,31.6156425 6.79558065,31.9809218 C6.27387097,32.6418436 5.68596774,32.0623743 5.18051613,32.0264246 C4.2993871,31.963324 3.4406129,31.661648 2.57254839,31.4590223 C2.36293548,31.4102514 1.7973871,31.1530726 1.40429032,31.2581564 C1.1043871,31.3381006 1.27393548,31.5947765 1.31196774,31.7780447 C1.46293548,32.5065922 1.62232258,33.2338827 1.77387097,33.9621788 C1.80319355,34.1027095 1.82932258,34.2718994 1.818,34.381257 C1.78054839,34.7364804 1.61390323,35.7259777 0.994645161,36.6744972 C0.774290323,37.0123743 2.50983871,37.2710615 2.81496774,37.4143575 C4.64748387,38.2743855 6.63648387,38.1084637 8.60922581,38.0881006 C10.3920968,38.0697486 11.8869677,37.2542179 13.5133548,36.8054749 C14.1064839,36.6415642 14.3082581,36.2868436 13.9052903,35.7767598 C13.4936129,35.2561173 13.2485806,34.6806704 13.3342258,33.9732402 C11.5969355,34.6590503 9.81812903,35.0034637 7.98996774,34.9428771 C6.43122581,34.8910894 4.88119355,34.6505028 3.32651613,34.499162 C3.06812903,34.4740223 2.8196129,34.3591341 2.86432258,34.1560056 C2.94503226,33.7892179 3.18803226,34.0825978 3.37296774,34.1177933 C6.35951613,34.6849441 9.33445161,34.9285475 12.2986452,33.9868156 C13.005871,33.7623184 13.4149355,33.5229888 13.3670323,32.7559777 C13.2985161,31.6651676 13.7255806,30.5685754 13.7270323,29.504162 C13.7279032,28.7663128 13.6544516,27.9455028 13.4761935,27.1784916 C12.9112258,24.7462291 12.5213226,22.2873184 11.9967097,19.8507821 C11.5818387,17.923324 11.1835161,15.9931006 10.9887097,14.0467877 C10.7712581,11.8752235 10.4385484,9.7051676 10.5442258,7.51198324 C10.5863226,6.63687151 10.5041613,5.75472067 10.430129,4.87885475 C10.4077742,4.61639665 10.5076452,4.46756983 10.7500645,4.4627933 C11.0351613,4.45701117 11.2738065,4.79187151 11.2804839,4.94396648 C11.3614839,6.73315642 11.3934194,8.31620112 11.5664516,10.098352 C11.7943548,12.449162 12.0492581,14.8929888 12.4710968,17.2322346 C12.9048387,19.637095 13.4596452,21.8881006 13.9473871,24.2834078 C14.238,25.7103352 14.6142581,27.1963408 14.7568065,28.6541899 C14.8325806,29.4282402 14.8293871,30.1163128 14.5663548,30.8810615 C14.1195484,32.1805307 13.9848387,33.8007821 14.7091935,35.0456983 C15.6890323,36.7295531 15.3778065,40.5686313 15.3760645,40.6123743 C15.3284516,41.7670391 15.3661935,42.0269832 14.3041935,42.6896648 C13.4927419,43.1957263 12.7042258,43.6947486 11.7255484,43.9541899 C10.8583548,44.1842179 10.0254194,44.5102793 9.17709677,44.7938547 C8.18622581,44.7938547 5.7806129,44.8803352 4.63180645,44.5414525 C4.45325806,44.6118436 2.67183871,43.721648 1.917,43.336257 C1.12877419,42.9335196 0.823935484,42.4603911 0.681967742,41.8007263 C0.451451613,40.7305307 0.198,39.6588268 0.0815806452,38.5775698 C-0.0075483871,37.7484637 -0.0870967742,36.8834078 0.530709677,36.1234358 C1.31777419,35.1555587 1.21558065,34.0436313 0.813483871,33.0513687 C0.066483871,31.2071229 0.327483871,29.4206983 0.864580645,27.6229609 C1.30412903,26.1520391 1.31196774,24.632095 1.638,23.1493575 C2.07725806,21.1515084 2.502,19.1506425 2.88958065,17.1447486 C3.23187097,15.3749162 3.483,13.5917598 3.83254839,11.8231844 C4.20909677,9.91910615 4.65212903,8.01276536 4.71135484,6.08807263 C4.74329032,5.05935754 5.04958065,4.02058659 4.53164516,2.93078212 C4.11735484,2.05868715 4.06887097,0.965363128 5.00283871,0.132486034 C5.62151613,0.0681284916 5.46764516,0.488463687 5.36370968,0.684050279 C5.11170968,1.15843575 5.22783871,1.63759777 5.22783871,2.11047486 C5.22812903,2.63463687 5.43454839,2.97226257 6.20709677,2.93555866 C7.53503226,2.8727095 8.86964516,2.91821229 10.2013548,2.91821229 C8.92829032,3.41497207 7.60848387,3.20606145 6.31132258,3.27393855 C6.07267742,3.28650838 5.64880645,3.08715084 5.6276129,3.50673184 C5.60874194,3.88608939 5.99022581,3.93435754 6.32206452,3.94290503 C6.91432258,3.95798883 7.51267742,3.99192737 8.09854839,3.9376257 C9.35070968,3.82173184 10.6266774,3.79382682 10.9483548,2.31787709 C11.268871,0.846703911 10.9138065,0.349189944 9.21745161,0.347178771 C8.29567742,0.345921788 7.3736129,0.353463687 6.45212903,0.342905028 C6.21754839,0.340391061 5.8166129,0.44547486 6.00619355,0.00251396648 L10.7625484,0.00251396648 C11.6512258,0.520893855 11.8663548,1.85606145 11.2700323,3.0901676 C10.9469032,3.75863128 10.4667097,4.07715084 9.54609677,4.16212291 C8.181,4.28832402 6.81503226,4.25337989 5.36748387,4.31069832 C5.39970968,4.73782123 5.39970968,4.77905028 5.38780645,5.46284916 C5.38577419,5.57874302 5.23887097,5.82058659 5.22174194,6.01290503 C5.10532258,7.30231844 5.08064516,8.59650838 4.82835484,9.87787709 C4.53135484,11.3855028 4.29416129,12.9019274 4.0256129,14.4138268 C3.72687097,16.0971788 3.42203226,17.7797765 3.11980645,19.4628771 L3.13432258,19.4633799 C2.56674194,21.4622346 2.17045161,23.4905028 1.88535484,25.5303352 C1.81248387,26.0509777 1.43245161,28.8306704 1.43245161,28.8306704 L1.43245161,28.8306704 Z M14.2557097,37.6303073 C12.7637419,38.0388268 11.5757419,39.0026816 9.75687097,39.086648 C9.63783871,38.9217318 10.9352903,38.6625419 11.4236129,38.4888268 C11.9133871,38.3143575 13.518871,37.6639944 13.7093226,37.3135475 C9.80941935,38.6773743 4.91080645,39.3264804 1.02396774,37.3590503 C1.32532258,39.0740782 1.30412903,40.6432961 1.70303226,42.1692737 C1.77270968,42.4367598 1.74135484,42.7527654 2.10280645,42.9106425 C3.00077419,43.3025698 3.85548387,43.8156704 4.80280645,44.0620391 C5.83345161,44.3300279 6.87512903,44.3860894 8.04716129,44.1764246 C9.77341935,43.8674581 11.3762903,43.3822626 12.9147097,42.7092737 C13.7685484,42.3359497 14.346871,41.7318436 14.273129,40.7697486 C14.1953226,39.7488268 14.2557097,38.7201117 14.2557097,37.6303073 L14.2557097,37.6303073 Z" id="Fill-2" sketch:type="MSShapeGroup"></path>
            <path d="M3.89554839,17.8406145 C4.58216129,16.1326257 3.56864516,22.4250838 2.72932258,24.9078771 C2.32316129,24.4297207 2.47529032,24.1386034 2.57487097,23.823352 C2.99816129,22.485419 3.12474194,21.1042458 3.30706452,19.7326257 C3.31287097,19.6888827 3.6296129,18.166676 3.89554839,17.8406145" id="Fill-3" sketch:type="MSShapeGroup"></path>
            <path d="M5.44122581,9.13298883 C5.45370968,9.30645251 5.63312903,8.84564246 5.63777419,9.02639665 C5.67,10.3039944 5.11374194,11.1087151 5.04232258,13.562095 C5.03825806,13.7006145 4.84925806,13.526648 4.815,13.6618994 C4.44251613,12.0972067 5.09487097,10.6295531 5.44122581,9.13298883" id="Fill-4" sketch:type="MSShapeGroup"></path>
            <path id="Fill-5" sketch:type="MSShapeGroup" d="M4.56067742,14.131257 C5.16135484,13.8921788 4.47096774,16.3661732 4.32812903,15.8920391 C4.28051613,15.1290503 4.56677419,14.6076536 4.56067742,14.131257"></path>
            <path d="M19.404871,28.6378492 C18.8985484,27.971648 19.0872581,27.3129888 19.0965484,26.6877654 C19.1345806,24.1697765 18.8860645,21.6713966 18.5109677,19.1787989 C18.4793226,18.9701397 18.3742258,18.6777654 18.7969355,18.6689665 C19.1432903,18.661676 19.0779677,18.9108101 19.0895806,19.1043855 C19.2631935,21.962514 19.4455161,24.8203911 19.6040323,27.6792737 C19.6194194,27.9580726 19.4910968,28.2426536 19.404871,28.6378492" id="Fill-6" sketch:type="MSShapeGroup"></path>
            <path d="M19.062,17.8167318 C19.1415484,18.0761732 19.0291935,18.3288268 18.7490323,18.3358659 C18.3451935,18.3459218 18.513,18.0090503 18.4996452,17.817486 C18.4857097,17.6181285 18.395129,17.3149441 18.8300323,17.3544134 C19.1816129,17.3863408 19.0410968,17.6405028 19.062,17.8167318" id="Fill-7" sketch:type="MSShapeGroup"></path>
            <path d="M38.0955484,41.6018715 C38.4874839,41.7220391 38.8797097,41.8422067 39.4066452,42.0036034 C38.7046452,42.2680726 38.2970323,41.9890223 37.8833226,41.733352 C37.953871,41.6896089 38.0247097,41.6456145 38.0955484,41.6018715" id="Fill-8" sketch:type="MSShapeGroup"></path>
            <path d="M2.56616129,38.5918994 C4.82254839,39.0280726 6.76625806,38.9835754 9.06619355,39.0248045 C9.37596774,39.0248045 9.42067742,39.3051117 7.70922581,39.3958659 C6.05206452,39.4838547 4.3623871,39.422514 2.78419355,38.9697486 C2.58706452,38.9131844 2.42622581,38.8586313 2.30109677,38.7226257 C2.37570968,38.6743575 2.5173871,38.6306145 2.56616129,38.5918994" id="Fill-9" sketch:type="MSShapeGroup"></path>
            <path d="M7.61458065,32.0593575 C9.054,32.3044693 11.2648065,32.0163687 12.5663226,31.3758101 C12.833129,31.244581 12.6992903,31.187514 12.4234839,31.2315084 C10.854871,31.4821508 9.28712903,31.8569832 7.6616129,31.7586872 C7.46303226,31.7468715 7.41919355,32.0261732 7.61458065,32.0593575" id="Fill-10" sketch:type="MSShapeGroup"></path>
            <path d="M35.2024839,16.0287989 C35.1792581,15.3455028 34.443,14.9430168 33.723,14.7718156 C30.6786774,14.0467877 27.6959032,14.2368436 24.8600323,15.4578771 C23.597129,16.001648 22.3577419,16.6039944 21.6357097,17.7704749 C20.7426774,19.2127374 21.2449355,21.6535475 23.9844194,21.4745531 C25.0266774,21.4064246 26.0660323,21.3966201 27.0929032,21.1897207 C28.3308387,20.9400838 29.1115161,21.3078771 29.6570323,22.3280447 C29.8193226,22.6312291 29.9952581,22.9306425 30.194129,23.2162291 C30.321871,23.4 30.4850323,23.6720112 30.7849355,23.4090503 C30.9541935,23.2604749 31.3301613,23.176257 31.0656774,22.8031844 C30.599129,22.1450279 30.7143871,21.4252793 30.9605806,20.6846648 C31.716,19.6780726 33.0900968,18.751676 33.9712258,17.9223184 C34.7873226,17.5751397 35.234129,16.9622346 35.2024839,16.0287989 L35.2024839,16.0287989 Z M32.138129,18.9434916 C31.6091613,19.3190782 30.6534194,20.1989665 30.4835806,20.8586313 C30.3259355,21.1406983 30.4528065,21.5605307 30.0658065,21.7500838 C29.4239032,20.7598324 28.2925161,20.8465642 27.2412581,20.9591899 C26.1644516,21.074581 25.0946129,21.1243575 24.0169355,21.1055028 C22.8237097,21.0846369 21.8737742,20.2158101 21.8592581,19.200419 C21.8374839,17.6676536 22.9006452,16.8013408 24.3121935,16.1346369 C27.1184516,14.8095251 30.1076129,14.4030168 33.2192903,14.9719274 C34.8808065,15.2756145 35.1943548,16.4780447 33.9813871,17.5090223 C33.9622258,17.5251117 33.9401613,17.5384358 33.9192581,17.5532682 C33.264871,17.9368994 32.7675484,18.496257 32.138129,18.9434916 L32.138129,18.9434916 Z" id="Fill-11" sketch:type="MSShapeGroup"></path>
        </g>
    </g>
</svg>