<?xml version="1.0" encoding="UTF-8" standalone="no"?>
<svg width="46px" height="45px" viewBox="0 0 46 45" version="1.1" xmlns="http://www.w3.org/2000/svg" xmlns:xlink="http://www.w3.org/1999/xlink" xmlns:sketch="http://www.bohemiancoding.com/sketch/ns">
    <!-- Generator: Sketch 3.3.2 (12043) - http://www.bohemiancoding.com/sketch -->
    <title>recipe-icon</title>
    <desc>Created with Sketch.</desc>
    <defs></defs>
    <g id="Styleguide" stroke="none" stroke-width="1" fill="none" fill-rule="evenodd" sketch:type="MSPage">
        <g id="recipe-icon" sketch:type="MSLayerGroup" transform="translate(0.287417, 0.000000)" fill="#472712">
            <path d="M0.0902616279,11.8125 C1.15456395,11.6956034 2.08203488,12.0812069 3.10604651,12.7432759 C2.64427326,11.9058621 2.29107558,11.2401724 1.91223837,10.5887069 C1.68723837,10.202069 1.74348837,9.8412931 2.08229651,9.61784483 C2.51921512,9.32948276 2.68979651,9.74068966 2.88130814,10.0318966 C3.22718023,10.5571552 3.57802326,11.0790517 3.99741279,11.7085345 C4.03744186,11.1297414 4.02069767,10.6768966 4.11462209,10.2475862 C4.17872093,9.95301724 4.33020349,9.60568966 4.7765407,9.69543103 C5.15014535,9.77068966 5.1993314,10.0587931 5.19043605,10.3652586 C5.16924419,11.0896552 5.23020349,11.8192241 4.98872093,12.6002586 C6.81723837,12.2865517 7.9406686,13.2444828 8.80822674,14.5388793 C10.1011919,16.4674138 11.1210174,18.5531897 12.2012791,20.6027586 C12.3734302,20.9293966 12.6115116,21.2234483 12.7682267,21.5560345 C12.8694767,21.7706897 12.9586919,21.7184483 13.1363372,21.6806897 C15.419564,21.195 17.7480523,21.1158621 20.0655523,20.9231897 C22.2948837,20.7375 24.5242151,20.7225 26.7564244,20.7731897 C27.2631977,20.7848276 27.5460174,20.8187069 27.3479651,20.0906897 C26.585843,17.2859483 27.4544477,14.8652586 29.4627035,12.8560345 C30.7582849,11.5598276 32.3848256,10.8080172 34.2538953,10.6789655 C34.6445058,10.652069 34.9317733,10.5036207 35.1507558,10.2173276 C35.73,9.46060345 36.2556105,8.66767241 36.4902907,7.7337931 C36.5483721,7.50232759 36.605407,7.30474138 36.8356395,7.24034483 C37.1378198,7.15551724 37.3275,7.40896552 37.4117442,7.60112069 C38.0535174,9.0687931 39.4430233,10.0701724 39.9516279,11.6123276 C40.0055233,11.7762931 40.1214244,11.7912931 40.2357558,11.8494828 C43.0390988,13.2786207 44.2200872,15.7611207 44.7629651,18.6597414 C44.7742151,18.7192241 44.860814,18.7647414 44.9123547,18.8169828 L44.9123547,19.1425862 C44.343314,19.1736207 44.3412209,18.6703448 44.2726744,18.3623276 C44.039564,17.3149138 43.494593,16.4009483 43.0984884,15.4243966 C43.0022093,15.1872414 42.9122093,15.1802586 42.6406395,15.2014655 C40.9439826,15.3325862 39.9764826,16.7330172 39.798314,18.1916379 C39.7656105,18.4582759 39.9738663,18.7688793 39.6368895,19.0031897 C39.5296221,19.077931 39.5772384,19.1449138 39.872093,19.3114655 C40.7548256,19.8100862 41.1867733,19.8713793 43.1031977,19.749569 C42.702907,19.3212931 42.1006395,19.14 41.932936,18.5723276 C42.1846221,18.417931 42.3557267,18.4911207 42.534157,18.6602586 C42.9456977,19.05 43.3836628,19.3639655 44.0225581,19.2349138 C44.0965988,19.2199138 44.4809302,19.1650862 44.4961047,19.4477586 C44.5112791,19.730431 44.2274128,19.8178448 44.0225581,19.9156034 C42.1090116,20.8300862 40.3401453,20.3637931 38.619157,19.3639655 C37.640407,18.7955172 36.9834593,17.9337931 36.3414244,17.0475 C35.9536919,16.5121552 35.5523547,15.9310345 34.9736337,15.6362069 C34.1372093,15.21 33.2165407,15.4856897 32.3829942,15.7487069 C31.7323256,15.9540517 31.1494186,16.3683621 30.3797093,16.772069 C30.6876453,16.1415517 31.1235174,15.7960345 31.5811047,15.5865517 C32.2584593,15.2764655 32.97375,15.0258621 33.7269767,14.9084483 C35.4076744,14.6462069 36.2276163,15.7572414 37.0130233,16.9083621 C37.595407,17.7623276 38.2931686,18.4797414 39.2457558,19.0112069 C38.7845058,17.0278448 40.031686,14.8437931 42.4742442,14.4651724 C41.6145349,13.3440517 40.554157,12.5288793 39.2818605,12.084569 C37.9692733,11.6262931 36.5865698,11.3958621 35.1803198,11.3182759 C32.3089535,11.1602586 30.3075,12.5068966 28.7523837,14.7625862 C27.6294767,16.3911207 27.4957849,18.1435345 27.8829942,19.9893103 C28.1268314,21.1525862 28.2738663,22.3018966 27.6789244,23.4861207 C28.4321512,23.2505172 28.8436919,22.5390517 28.9232267,21.5019828 C28.9397093,21.2862931 28.9138081,21.0672414 28.9284593,20.8510345 C28.9711047,20.2083621 29.3070349,20.0206034 29.8731977,20.3185345 C30.7415407,20.7755172 31.6156395,20.6697414 32.6820349,20.3247414 C31.0636047,19.7337931 29.787907,18.9615517 29.5919477,17.2373276 C29.4831105,16.2806897 29.5500872,15.3568966 30.6797965,14.7007759 C30.2311047,16.1009483 29.7813663,17.3710345 30.8597965,18.6266379 C31.9115407,19.8517241 33.3690698,19.4922414 34.7622384,19.6880172 C34.1568314,20.7142241 33.0216279,20.5507759 32.3688663,21.1934483 C33.7515698,21.3659483 35.1028779,21.5782759 36.2461919,22.4138793 C36.5243023,22.6171552 36.8351163,22.6117241 37.1059012,22.5465517 C38.5294186,22.2046552 39.8744477,22.4635345 41.1548547,23.0648276 C41.92875,23.4284483 42.6100291,23.9560345 42.6000872,24.9276724 C42.5901453,25.8969828 42.0582558,26.5357759 41.2097965,26.9937931 C40.5957558,27.3250862 39.9725581,27.6217241 39.294157,27.7621552 C38.8363081,27.857069 38.7227616,28.0106897 38.8368314,28.4782759 C39.2475872,30.1631897 39.2012791,31.8799138 39.1531395,33.6 C39.0947965,35.6687069 38.1484884,37.4107759 37.1548256,39.1331897 C36.8207267,39.7122414 36.3385465,40.2080172 35.9222965,40.7405172 C35.8555814,40.8256034 35.7818023,40.9712069 35.7064535,40.9743103 C34.5066279,41.0211207 34.7543895,41.8937069 34.6863663,42.6315517 C34.6073547,43.4891379 34.1160174,43.8667241 33.2618023,43.9093966 C32.2958721,43.9577586 31.4382558,44.4713793 30.4409302,44.4980172 C29.2110174,44.5308621 27.985814,44.7248276 26.7519767,44.8044828 C25.0673547,44.9133621 23.3942442,44.7830172 21.7376163,44.7302586 C20.2285465,44.6821552 18.6836337,44.5913793 17.1544186,44.3325 C15.58125,44.0658621 14.0012791,43.8584483 12.4697093,43.4058621 C11.6931977,43.1762069 11.5239244,42.7463793 11.8956977,42.114569 C12.0100291,43.0616379 12.8150581,43.1190517 13.459186,43.2364655 C16.77375,43.8411207 20.1147384,44.2531034 23.4923547,44.2272414 C25.8784012,44.2088793 28.2702035,44.3394828 30.6444767,43.914569 C31.8102907,43.7061207 32.81625,43.1518966 33.8577907,42.6690517 C34.209157,42.5061207 34.3467733,42.0972414 34.1811628,41.7581897 C34.0346512,41.4581897 33.7060465,41.6656034 33.4540988,41.7199138 C30.6567733,42.3240517 27.8194186,42.6822414 24.9700291,42.8692241 C22.6004651,43.0249138 20.2097093,42.9318103 17.8532267,42.6801724 C15.9815407,42.4802586 14.0839535,42.3168103 12.258314,41.784569 C12.0542442,41.7253448 11.8577616,41.6415517 11.5712791,41.5378448 C12.5693895,41.1512069 13.4251744,41.664569 14.3065988,41.7007759 C16.1594477,41.7773276 18.0026163,42.1489655 19.8536337,42.1823276 C22.4024128,42.2281034 24.9519767,42.4207759 27.5109593,42.035431 C29.639564,41.7147414 31.7663372,41.4 33.8776744,40.9831034 C34.9759884,40.7661207 35.7349709,40.1043103 36.3764826,39.2206034 C37.5061919,37.6642241 38.3384302,35.9260345 38.5521802,34.077931 C38.7290407,32.5476724 38.7442151,30.9225 38.3957267,29.3743966 C38.2902907,28.9057759 38.636686,28.2235345 38.0346802,27.9884483 C37.6058721,27.8211207 37.0601163,27.9442241 36.5664244,27.9413793 C36.1159012,27.9385345 35.6219477,27.9144828 35.5431977,27.3786207 C35.4945349,27.0468103 35.3597965,26.5143103 36.0196221,26.4817241 L36.0052326,26.4618103 C36.1245349,26.8088793 35.7239826,27.395431 36.4779942,27.4502586 C38.1906105,27.5751724 39.7718895,27.1668103 41.2406686,26.3066379 C41.8065698,25.9753448 42.0684593,25.3696552 42.0396802,24.8268103 C42.011686,24.3025862 41.5590698,23.8471552 40.9534012,23.6935345 L40.9732849,23.7056897 C39.809564,22.6926724 38.3957267,23.1522414 37.075814,23.0606897 C36.9057558,23.0490517 36.8168023,23.1548276 36.8442733,23.3128448 C37.0221802,24.3349138 36.2001453,24.7093966 35.5442442,25.0285345 C34.2499709,25.6585345 32.8667442,26.0764655 31.4152326,26.2559483 C29.8415407,26.4506897 28.2777907,26.7209483 26.7051453,26.9247414 C25.848314,27.0359483 24.9836337,27.1055172 24.1202616,27.144569 C21.0618314,27.2839655 17.9926744,27.2332759 14.985,26.7139655 C12.8943314,26.352931 10.7317151,25.9911207 8.93223837,24.6856034 C8.5819186,24.5081897 8.96101744,23.7747414 8.21014535,23.852069 C7.2177907,23.9542241 6.22229651,24.0292241 5.2922093,24.3951724 C4.53427326,24.6936207 4.11488372,25.3065517 4.05261628,26.1137069 C3.99427326,26.8699138 4.15255814,27.5925 4.94215116,27.8966379 C6.3675,28.4456897 7.82581395,28.9099138 9.39453488,28.7477586 C9.61299419,28.7252586 10.0305523,28.9298276 9.96069767,28.4371552 C9.90156977,28.0184483 9.52901163,28.1226724 9.23886628,28.1035345 C8.17587209,28.0331897 7.10502907,28.0013793 6.13098837,27.485431 C5.00703488,26.8900862 4.90447674,25.8165517 5.89918605,25.0114655 C6.72593023,24.3424138 7.79363372,24.297931 8.78023256,24.8909483 C8.82026163,25.6008621 8.54686047,26.2450862 8.29831395,26.8797414 C8.03171512,27.5609483 8.07069767,27.6253448 8.83046512,27.6385345 C9.19046512,27.6447414 9.46622093,27.3848276 9.91255814,27.5513793 C10.4959884,27.7688793 10.7270058,28.0375862 10.6346512,28.6006034 C10.548314,29.1271552 10.1809884,29.3989655 9.66819767,29.3958621 C9.15593023,29.3930172 8.63738372,29.4985345 8.12563953,29.2931897 C7.71436047,29.1284483 7.58930233,29.2681034 7.49093023,29.7584483 C7.14662791,31.4731034 7.45011628,33.1872414 7.76799419,34.8018103 C8.11334302,36.5562931 8.75276163,38.3500862 10.0881105,39.7381034 C10.27125,39.9284483 10.3963081,40.1767241 10.5323547,40.4074138 C10.6278488,40.5698276 10.9682267,40.719569 10.6861919,40.9264655 C10.5085465,41.0568103 10.2547674,40.8473276 10.1247384,40.7133621 C9.50781977,40.0768966 8.95264535,39.3703448 8.56465116,38.5862069 C7.24526163,35.9206034 6.67517442,33.099569 6.97395349,30.1290517 C7.00587209,29.8117241 7.07677326,29.4985345 7.13773256,29.1343966 C6.55247093,29.0643103 5.95805233,28.9986207 5.37619186,28.7785345 C4.20017442,28.3334483 3.40927326,27.4334483 3.45819767,26.4473276 C3.54610465,24.6817241 4.45552326,24.0406034 5.65247093,23.7080172 C6.62991279,23.4364655 7.62671512,23.1338793 8.62665698,23.6030172 C8.88200581,23.7227586 8.88540698,23.5484483 8.97671512,23.4393103 C9.32703488,23.0200862 9.74747093,22.692931 10.3701453,22.4694828 C9.50049419,21.9287069 8.69677326,21.4153448 7.8797093,20.9237069 C6.06427326,19.8312931 4.36813953,18.6284483 3.41659884,16.6476724 C3.12906977,16.0487069 3.12776163,15.2159483 2.7431686,14.8562069 C2.39023256,14.5262069 1.52947674,14.6247414 0.920406977,14.4116379 C0.65877907,14.3200862 0.429854651,14.1506897 0.423575581,13.8385345 C0.415988372,13.4710345 0.794825581,13.6096552 0.973517442,13.4764655 C1.09569767,13.3851724 1.32043605,13.4278448 1.72988372,13.3885345 C0.926947674,13.1485345 0.423575581,12.8330172 0.0902616279,12.3012931 L0.0902616279,11.8125 L0.0902616279,11.8125 Z M13.1711337,22.2858621 C13.2543314,22.5142241 13.4081686,22.6869828 13.4767151,22.8680172 C13.6990988,23.4532759 14.2796512,23.8768966 14.2605523,24.5619828 C14.2563663,24.7093966 14.3406105,24.9082759 14.1420349,24.9856034 C13.9847965,25.0466379 13.8482267,24.9752586 13.7001453,24.8666379 C12.9885174,24.3460345 12.1863663,23.9239655 11.5576744,23.3224138 C11.0359884,22.8232759 10.7228198,22.7868103 10.196686,23.2644828 C9.91962209,23.5161207 9.50703488,23.6534483 9.5577907,24.09 C9.60776163,24.519569 9.94735465,24.815431 10.3175581,24.984569 C12.1442442,25.820431 14.1417733,26.1711207 16.0848837,26.3925 C18.3401163,26.649569 20.6534302,26.8717241 22.9356105,26.6061207 C24.0681977,26.4744828 25.202093,26.5119828 26.33625,26.3692241 C27.778343,26.1874138 29.2230523,26.0027586 30.6672384,25.8253448 C32.2239244,25.6339655 33.7596802,25.3373276 35.1225,24.5185345 C35.5769477,24.2456897 36.3811919,24.1942241 36.3068895,23.477069 C36.2359884,22.7927586 35.5188663,22.5915517 34.957936,22.3412069 C33.5142733,21.6972414 31.9437209,21.7893103 30.4234012,21.5811207 C29.7054942,21.4825862 29.3567442,21.5728448 29.2102326,22.4141379 C29.0781105,23.1734483 28.5365407,23.8406897 27.7218314,24.144569 C27.497093,24.2283621 27.184186,24.297931 27.0368895,24.1091379 C26.9270058,23.9684483 26.9497674,23.709569 27.0753488,23.4602586 C27.3113372,22.9921552 27.4531395,22.4710345 27.5844767,21.9594828 C27.7097965,21.4712069 27.5522965,21.1631897 26.9636337,21.279569 C26.8330814,21.305431 26.6999128,21.3884483 26.5777326,21.3724138 C24.5011919,21.0975 22.4230814,21.3987931 20.3622384,21.4931897 C17.9788081,21.6025862 15.5673837,21.7510345 13.1711337,22.2858621 L13.1711337,22.2858621 Z M3.37892442,14.9968966 C3.33523256,15.5531897 3.70177326,16.070431 4.02488372,16.5812069 C4.96386628,18.0659483 6.23171512,19.1919828 7.73398256,20.1462931 C9.42462209,21.2203448 9.51226744,21.2702586 10.5956686,19.6339655 C10.7861337,19.3463793 10.7510756,19.1609483 10.6252326,18.9349138 C10.0852326,17.9653448 9.51148256,17.0136207 8.99476744,16.0324138 C8.76244186,15.5909483 8.505,15.5992241 8.36215116,15.9894828 C8.18790698,16.4656034 7.76930233,16.4873276 7.43258721,16.6668103 C7.24186047,16.7684483 7.11209302,16.6006034 7.05165698,16.4609483 C6.94281977,16.2093103 7.16860465,16.2576724 7.31145349,16.2010345 C8.45947674,15.7463793 8.59656977,15.1011207 7.73869186,14.2432759 C7.48805233,13.9924138 7.26200581,13.7076724 6.97840116,13.5002586 C6.23537791,12.9563793 5.43270349,12.7763793 4.545,13.1857759 C3.80040698,13.5292241 3.3702907,14.0573276 3.37892442,14.9968966 L3.37892442,14.9968966 Z M8.48851744,25.2540517 C8.04139535,25.0461207 7.59662791,24.9512069 7.1325,25.0127586 C6.54671512,25.0903448 6.16578488,25.4927586 5.89761628,25.9497414 C5.76811047,26.1703448 5.78145349,26.5192241 6.06113372,26.7592241 C6.50485465,27.1391379 7.07912791,27.2513793 7.60133721,27.3768103 C7.78630814,27.4210345 7.88834302,26.7731897 8.01497093,26.435431 C8.16409884,26.0376724 8.33049419,25.6463793 8.48851744,25.2540517 L8.48851744,25.2540517 Z M38.7931395,10.6613793 C38.2740698,9.94034483 37.8217151,9.28913793 37.3413663,8.65862069 C37.2168314,8.49491379 36.9567733,8.16051724 36.8047674,8.57456897 C36.5086047,9.3825 35.8534884,9.98560345 35.5042151,10.8424138 C36.492907,10.7167241 37.3384884,11.1664655 38.4386337,11.1382759 C37.9609012,10.8522414 37.6443314,10.6693966 37.3353488,10.4746552 C37.1862209,10.3805172 37.093343,10.2328448 37.2270349,10.0774138 C37.3264535,9.96181034 37.4800291,10.0148276 37.6001163,10.0828448 C37.9527907,10.2827586 38.229593,10.6339655 38.7931395,10.6613793 L38.7931395,10.6613793 Z M11.2023837,20.0040517 C10.7924128,20.3842241 10.4070349,20.7659483 9.99261628,21.1137931 C9.82543605,21.2539655 9.77101744,21.3814655 9.96148256,21.474569 C11.0069477,21.9850862 11.8310756,22.8372414 13.0651744,23.4737069 C12.6031395,22.5672414 12.2392151,21.852931 11.8745058,21.1373276 C11.8203488,21.177931 11.749186,21.2206034 11.690843,21.2767241 C11.5006395,21.4600862 11.2910756,21.7714655 11.0286628,21.5087069 C10.8515407,21.3312931 11.1131686,21.0483621 11.2594186,20.9094828 C11.6215116,20.5657759 11.3996512,20.3131034 11.2023837,20.0040517 L11.2023837,20.0040517 Z M38.8276744,10.9386207 C38.8219186,11.0886207 38.8920349,11.1478448 38.9961628,11.19 C39.1309012,11.2450862 39.1196512,11.1186207 39.1288081,11.0707759 C39.157064,10.9223276 39.0756977,10.8232759 38.9273547,10.8098276 C38.8941279,10.8069828 38.8514826,10.9062931 38.8276744,10.9386207 L38.8276744,10.9386207 Z M39.4184302,11.349569 C39.3456977,11.3187931 39.2766279,11.2898276 39.2078198,11.2606034 C39.1910756,11.3037931 39.1526163,11.3790517 39.1609884,11.3844828 C39.2182849,11.4222414 39.2842151,11.4509483 39.3509302,11.4669828 C39.3619186,11.4698276 39.3917442,11.3974138 39.4184302,11.349569 L39.4184302,11.349569 Z M27.7493023,23.6006897 C27.7315116,23.5815517 27.7137209,23.5624138 27.6959302,23.5435345 C27.6776163,23.5621552 27.6593023,23.5807759 27.64125,23.5993966 C27.667936,23.6185345 27.6948837,23.6376724 27.7218314,23.6568103 C27.7309884,23.6381897 27.7401453,23.6193103 27.7493023,23.6006897 L27.7493023,23.6006897 Z" id="Fill-1" sketch:type="MSShapeGroup"></path>
            <path d="M9.24645349,31.8377586 C9.44555233,33.6744828 9.82752907,35.2797414 10.4747965,36.8162069 C11.1463953,38.4103448 12.105,39.7585345 13.7807267,40.4482759 C14.0494186,40.5589655 14.5834012,40.6797414 14.3850872,40.9639655 C12.9785756,41.0353448 11.9715698,40.3163793 11.2209593,39.3232759 C9.80450581,37.4482759 9.12348837,35.262931 8.83072674,32.9591379 C8.77447674,32.5168966 8.82732558,32.5101724 9.24645349,31.8377586" id="Fill-2" sketch:type="MSShapeGroup"></path>
            <path d="M35.8477326,14.6800862 C35.8880233,14.2797414 36.3152616,14.1628448 36.4596802,13.8276724 C35.822093,13.517069 35.2075291,13.2506897 34.6900291,14.0198276 C34.5139535,14.2815517 34.2460465,14.3025 33.8768895,14.2099138 C34.1429651,13.9207759 34.384186,13.6590517 34.625407,13.3968103 C33.6325291,12.7805172 33.1793895,13.8147414 32.4332267,14.052931 C32.9418314,13.277069 33.4922965,12.5658621 34.4265698,12.1212931 C34.3632558,12.5084483 34.0566279,12.6077586 33.8839535,12.9506897 C34.1652035,12.9506897 34.3907267,12.9491379 34.6159884,12.9512069 C35.1361047,12.9561207 35.635814,12.6726724 36.1556686,13.2093103 C36.5099128,13.5747414 37.0718895,13.2336207 37.4237791,12.8759483 C37.7421802,13.1102586 36.9413372,13.5225 37.6322965,13.6776724 C38.1252035,13.7886207 38.5660465,14.4540517 39.0992442,13.7350862 C39.2588372,13.5199138 39.4642151,13.3099138 39.8561337,13.5592241 C39.1068314,13.9600862 39.0074128,14.5311207 39.4963953,15.2899138 C38.8737209,14.709569 38.5215698,15.0307759 38.1767442,15.455431 C38.0231686,15.6447414 37.7903198,15.879569 37.5700291,15.6605172 C37.3554942,15.4471552 37.6668314,15.2467241 37.764157,15.0426724 C37.8515407,14.859569 38.4014826,14.6425862 37.9138081,14.5021552 C37.5436047,14.3956034 37.1961628,13.4524138 36.6564244,14.3244828 C36.4968314,14.5825862 36.2768023,14.8831034 35.8477326,14.6800862" id="Fill-3" sketch:type="MSShapeGroup"></path>
            <path d="M36.0196221,26.4817241 C36.2535174,26.0852586 36.6522384,26.1098276 37.0153779,26.1537931 C37.7089535,26.2378448 37.7309302,25.9334483 37.494157,25.4371552 C37.3787791,25.1948276 37.244564,24.9597414 37.1461919,24.7109483 C36.8581395,23.9824138 37.0208721,23.709569 37.7924128,23.537069 C38.8153779,23.3081897 39.8215988,23.2639655 40.7838663,23.762069 C40.8963663,23.8202586 40.9167733,23.7439655 40.9732849,23.7059483 C40.9732849,23.7056897 40.9534012,23.6935345 40.9534012,23.6935345 C40.9097093,24.1668103 41.1718605,24.6558621 40.7804651,25.1125862 C39.5576163,26.5388793 37.8538953,26.4517241 36.2134884,26.5719828 C36.1472965,26.5768966 36.0748256,26.5006034 36.0052326,26.4618103 L36.0196221,26.4817241 L36.0196221,26.4817241 Z M37.4127907,24.3103448 C37.5948837,24.7233621 37.7840407,25.0836207 37.9127616,25.4635345 C38.0592733,25.8962069 38.4148256,25.9143103 38.6960756,25.7826724 C39.1719767,25.5597414 39.7122384,25.4149138 40.0659593,24.9840517 C40.2114244,24.8066379 40.5518023,24.6946552 40.4256977,24.4109483 C40.2985465,24.1243966 39.9981977,24.0253448 39.6706395,24.0292241 C38.9370349,24.0375 38.1968895,23.9725862 37.4127907,24.3103448 L37.4127907,24.3103448 Z" id="Fill-4" sketch:type="MSShapeGroup"></path>
            <path d="M43.157093,16.8307759 C43.1440116,17.0687069 43.0181686,17.4025862 42.6581686,17.3203448 C42.2858721,17.2352586 41.6906686,17.25 41.733314,16.6388793 C41.7626163,16.2214655 41.8905523,15.7652586 42.4561919,15.7256897 C42.8394767,15.6987931 43.1667733,16.1886207 43.157093,16.8307759" id="Fill-5" sketch:type="MSShapeGroup"></path>
            <path id="Fill-6" sketch:type="MSShapeGroup" d="M19.4946802,40.8362069 C19.7973837,41.1356897 14.9802907,40.9978448 15.6628779,40.584569 C16.9398837,40.6712069 18.2307558,40.5977586 19.4946802,40.8362069"></path>
            <path id="Fill-7" sketch:type="MSShapeGroup" d="M35.9971221,12.5671552 C35.936686,12.6049138 35.8561047,12.6612931 35.7681977,12.702931 C35.7572093,12.7081034 35.6766279,12.6118966 35.6823837,12.6046552 C35.7451744,12.5252586 35.8061337,12.4280172 35.8924709,12.3884483 C35.9884884,12.3444828 35.9950291,12.4440517 35.9971221,12.5671552"></path>
            <path d="M19.807064,17.025 C17.5301163,17.1858621 15.585436,16.3101724 14.3160174,14.5815517 C12.5727907,12.2074138 12.6240698,9.06155172 15.8687791,7.10534483 C17.3302326,6.22448276 18.8740988,5.50655172 20.4988081,4.95801724 C21.6557267,4.5675 22.5586047,3.82318966 23.3241279,2.88956897 C23.8290698,2.27353448 24.3538953,1.66732759 24.9242442,1.1112931 C25.7797674,0.277241379 26.8864535,0.14612069 28.019564,0.195258621 C29.3596221,0.253448276 30.6685465,1.26025862 30.8354651,2.60172414 C30.9790988,3.7562069 31.1175,4.92310345 29.9569186,5.92293103 C29.0856977,6.6737069 28.4271802,7.72551724 27.9083721,8.84405172 C27.1318605,10.5183621 26.1968023,12.1251724 25.2892151,13.7412931 C24.347093,15.4189655 22.8317442,16.2364655 21.1790407,16.9510345 C20.7287791,17.1457759 20.2609884,16.9750862 19.807064,17.025 L19.807064,17.025 Z M26.835436,9.94551724 C26.9748837,9.53922414 27.2969477,9.20431034 27.3157849,8.75068966 C27.547064,8.30767241 27.6846802,7.76896552 28.0284593,7.44181034 C28.7809012,6.72491379 29.1516279,5.71086207 30.0168314,5.08836207 C30.3265988,4.86543103 30.399593,4.23362069 30.2818605,3.61991379 C29.207093,5.33922414 27.746686,6.70681034 27.1522674,8.62137931 C26.8194767,9.00982759 26.6138372,9.42775862 26.8370058,9.94577586 C26.7906977,9.94241379 26.7930523,9.7662931 26.7051453,9.90931034 C26.7485756,9.9212069 26.7920058,9.93336207 26.835436,9.94551724 L26.835436,9.94551724 Z M26.655436,8.42275862 C26.5099709,8.36896552 26.4921802,8.45922414 26.4539826,8.57043103 C25.7004942,10.7599138 24.0119477,12.2477586 22.4102616,13.7943103 C20.9935465,15.1621552 19.217093,15.7960345 17.2321221,16.1190517 C19.1901453,16.847069 21.0388081,16.7125862 22.7064244,15.6517241 C23.4805814,15.1593103 24.4070058,14.664569 24.6586919,13.6176724 C24.810436,13.5659483 24.8311047,13.4650862 24.768314,13.332931 C24.6945349,13.3818103 24.6210174,13.4306897 24.5472384,13.4798276 C23.085,14.8696552 21.8783721,15.5676724 21.1021221,15.470431 C21.1327326,15.4269828 21.1536628,15.3669828 21.1955233,15.3431897 C21.3807558,15.2387069 21.5691279,15.1386207 21.761686,15.0475862 C24.6006105,13.7043103 25.9595058,11.3001724 26.6355523,8.40568966 C27.5944186,6.72543103 28.7134012,5.15224138 29.8682267,3.59974138 C30.4325581,2.84068966 30.3797093,2.40336207 29.7455233,1.91482759 C29.5540116,3.10577586 28.8115116,3.96775862 28.1563953,4.90603448 C27.4235756,5.95551724 26.7140407,7.06810345 26.655436,8.42275862 L26.655436,8.42275862 Z M13.934564,11.135431 C13.934564,11.450431 13.9246221,11.6950862 13.9361337,11.9384483 C14.0146221,13.6378448 15.1786047,15.1587931 16.3582849,15.350431 C17.5999709,15.5521552 18.7961337,15.2609483 19.964564,14.7444828 C21.7603779,13.9507759 22.985843,12.5337931 24.2364244,11.1387931 C24.887093,10.4128448 25.4786337,9.64732759 25.8088081,8.6912069 C26.5199128,6.63181034 27.380407,4.64689655 28.8591279,2.96948276 C29.257064,2.51818966 29.2068314,1.86336207 28.955407,1.28793103 C28.7162791,0.740172414 28.2204942,0.756982759 27.7234012,0.732672414 C26.3252616,0.66362069 25.2235465,1.34198276 24.5836047,2.41293103 C23.7913953,3.73939655 22.6598547,4.49689655 21.343343,5.14034483 C19.8392442,5.87560345 18.1815698,6.27827586 16.7834302,7.24448276 C15.3515407,8.23396552 13.698314,9.05172414 13.934564,11.135431 L13.934564,11.135431 Z" id="Fill-8" sketch:type="MSShapeGroup"></path>
            <path d="M7.69892442,18.4267241 C7.69578488,18.9493966 7.48674419,19.2375 7.065,19.2835345 C7.01110465,19.2894828 6.94622093,19.1950862 6.88656977,19.1472414 C7.15735465,18.9069828 7.42813953,18.6669828 7.69892442,18.4267241" id="Fill-9" sketch:type="MSShapeGroup"></path>
            <path d="M18.5596221,11.6581034 C17.9285756,11.6855172 17.3435756,11.6221552 17.0986919,10.9275 C16.8472674,10.2137069 17.0955523,9.40086207 17.8288953,9.07862069 C18.7448547,8.6762069 19.6053488,7.91405172 20.7578198,8.39896552 C21.6201453,8.76155172 21.8754942,9.70293103 21.242093,10.3688793 C20.5152907,11.1331034 19.6642151,11.6627586 18.5596221,11.6581034 L18.5596221,11.6581034 Z M21.1811337,9.64318966 C21.2232558,9.14948276 20.8017733,8.73103448 20.5759884,8.78068966 C19.7581395,8.96094828 18.839564,8.74241379 18.1156395,9.35405172 C17.8014244,9.61939655 17.6918023,10.2509483 18.058343,10.4009483 C18.5847384,10.6163793 19.1592733,10.8876724 19.7502907,10.527931 C19.8601744,10.4612069 19.9263663,10.3251724 20.094593,10.3608621 C20.7489244,10.4989655 21.1829651,10.1963793 21.1811337,9.64318966 L21.1811337,9.64318966 Z" id="Fill-10" sketch:type="MSShapeGroup"></path>
        </g>
    </g>
</svg>