<?xml version="1.0" encoding="UTF-8" standalone="no"?>
<svg width="19px" height="18px" viewBox="0 0 19 18" version="1.1" xmlns="http://www.w3.org/2000/svg" xmlns:xlink="http://www.w3.org/1999/xlink" xmlns:sketch="http://www.bohemiancoding.com/sketch/ns">
    <!-- Generator: Sketch 3.3.2 (12043) - http://www.bohemiancoding.com/sketch -->
    <title>Shape</title>
    <desc>Created with Sketch.</desc>
    <defs></defs>
    <g id="Styleguide" stroke="none" stroke-width="1" fill="none" fill-rule="evenodd" sketch:type="MSPage">
        <g id="share-copy" sketch:type="MSLayerGroup" transform="translate(-42.500000, 0.000000)" fill="#CC2229">
            <path d="M49.3526289,9 C49.3526289,9.06198047 49.3387422,9.12002344 49.3350508,9.18203906 L55.7848516,12.4036875 C56.3362422,11.9378672 57.0430586,11.6459648 57.8239141,11.6459648 C59.5780352,11.6459648 61,13.0679648 61,14.8220859 C61,16.5780352 59.5780352,18 57.8239141,18 C56.0674727,18 54.6473711,16.5780352 54.6473711,14.8220508 C54.6473711,14.758207 54.6612578,14.7017813 54.6649492,14.6397656 L48.2153945,11.4178711 C47.6616836,11.8818281 46.9569414,12.1741875 46.176332,12.1741875 C44.4219648,12.1742227 43,10.7541211 43,9 C43,7.24405078 44.4219648,5.82205078 46.176332,5.82205078 C46.9569414,5.82205078 47.6616836,6.11599219 48.2153945,6.58205859 L54.6649492,3.35784375 C54.6612578,3.29586328 54.6473711,3.23806641 54.6473711,3.17401172 C54.6473711,1.42196484 56.0674727,0 57.8239141,0 C59.5780352,0 61,1.42196484 61,3.17401172 C61,4.92996094 59.5780352,6.35196094 57.8239141,6.35196094 C57.0411953,6.35196094 56.3362422,6.06005859 55.7848516,5.59195312 L49.3350508,8.81799609 C49.3387773,8.87811328 49.3526289,8.93594531 49.3526289,9 L49.3526289,9 Z" id="Shape" sketch:type="MSShapeGroup"></path>
        </g>
    </g>
</svg>