<?xml version="1.0" encoding="UTF-8" standalone="no"?>
<svg width="18px" height="16px" viewBox="0 0 18 16" version="1.1" xmlns="http://www.w3.org/2000/svg" xmlns:xlink="http://www.w3.org/1999/xlink" xmlns:sketch="http://www.bohemiancoding.com/sketch/ns">
    <!-- Generator: Sketch 3.3.2 (12043) - http://www.bohemiancoding.com/sketch -->
    <title>share-recipe</title>
    <desc>Created with Sketch.</desc>
    <defs></defs>
    <g id="Styleguide" stroke="none" stroke-width="1" fill="none" fill-rule="evenodd" sketch:type="MSPage">
        <g id="card" sketch:type="MSLayerGroup" transform="translate(-288.500000, -411.000000)" fill="#CC2229">
            <g id="card_footer" transform="translate(16.000000, 407.192482)" sketch:type="MSShapeGroup">
                <g id="share-recipe" transform="translate(272.219178, 2.915334)">
                    <path d="M7.78082192,13.8921839 C6.39765159,12.8450346 5.78082192,11.3656964 5.78082192,9.89218392 C5.78082192,6.76914524 8.17067376,4.2780003 10.7808219,3.89218392 L13.7808219,3.89218392 L11.7808219,1.89218392 L11.7808219,0.892183923 L15.7808219,4.89218392 L11.7808219,8.89218392 L11.7808219,7.89218392 L13.7808219,4.89218392 L10.7808219,4.89218392 C8.70422659,5.28980704 6.74915735,7.32856733 6.78082192,9.89218392 C6.74915735,11.1071909 7.24107175,12.2866223 7.78082192,12.8921839 L7.78082192,13.8921839 L7.78082192,13.8921839 Z M16.7808219,8.89218392 L16.7808219,14.8921839 C16.7808219,15.6633438 16.5558219,15.8890491 16.7808219,15.8921839 L2.78082192,15.8921839 C2.00582192,15.8890491 1.78082192,15.6633438 1.78082192,14.8921839 L1.78082192,8.89218392 L0.780821918,8.89218392 L0.780821918,14.8921839 C0.780821918,16.2170742 1.45382192,16.8921839 2.78082192,16.8921839 L16.7808219,16.8921839 C17.1078219,16.8921839 17.7808219,16.2170742 17.7808219,14.8921839 L17.7808219,8.89218392 L16.7808219,8.89218392 L16.7808219,8.89218392 Z" id="Shape"></path>
                </g>
            </g>
        </g>
    </g>
</svg>