<?xml version="1.0" encoding="UTF-8" standalone="no"?>
<svg width="45px" height="45px" viewBox="0 0 45 45" version="1.1" xmlns="http://www.w3.org/2000/svg" xmlns:xlink="http://www.w3.org/1999/xlink" xmlns:sketch="http://www.bohemiancoding.com/sketch/ns">
    <!-- Generator: Sketch 3.3.2 (12043) - http://www.bohemiancoding.com/sketch -->
    <title>sotcham</title>
    <desc>Created with Sketch.</desc>
    <defs></defs>
    <g id="Styleguide" stroke="none" stroke-width="1" fill="none" fill-rule="evenodd" sketch:type="MSPage">
        <path d="M19.714451,22.8330226 C24.4790924,22.7721992 28.3203009,22.493205 31.9374578,23.9066875 C38.9443168,26.6444007 38.3816353,29.3444298 35.2148504,35.1993412 C34.3515428,36.795955 33.0293548,37.9225097 31.6754026,38.9459292 C30.0701722,40.1590912 28.0060615,40.6112998 27.2306728,43.1599316 C26.9703192,44.0147646 25.8568679,44.2289686 24.9952619,44.3440041 C23.4030776,44.5562249 21.8125949,44.7981961 20.2153056,44.9376932 C11.8987375,45.6642682 6.37572405,39.9303424 1.60767935,33.2708434 C-1.41162851,29.0535354 -0.0605123485,25.7571727 4.67406641,24.5248381 C9.9378607,23.1543287 15.307725,22.7226149 19.714451,22.8330226 L19.714451,22.8330226 Z M18.0922041,40.0652116 C23.0009191,40.2615653 27.5993653,39.3974767 31.5982607,35.9636002 C33.5767214,34.2651735 35.3946589,31.8401718 34.9516607,29.1480761 C34.5075281,26.4480469 31.6731337,26.1518635 29.5630782,25.7915511 C21.649803,24.4395531 13.7433344,24.9479573 5.8782728,26.3812734 C1.77784512,27.1283432 1.23785243,29.0720469 3.93724866,32.9515207 C7.60432086,38.2213376 12.420012,40.441391 18.0922041,40.0652116 Z M12.486911,37.2678868 C9.85794708,36.8552612 8.00220784,35.0891436 6.65968586,32.4353161 C8.50862752,34.2133938 10.8254692,35.1329975 12.486911,37.2678868 Z M34.1308901,28.35732 C30.199007,32.1789927 7.61842264,32.5554459 4.16230366,29.0685477 C10.3290261,28.3136245 16.1042106,24.5605202 22.5907648,25.992387 C24.9929183,26.5221105 27.5219802,26.325817 29.6811298,27.9499438 C31.0355778,28.9690565 32.4520574,27.7254164 34.1308901,28.35732 Z M16.5575028,15.8234001 C25.2983654,13.5694 33.8341654,10.8436955 42.5093232,8.93040849 C43.4085257,8.7322248 44.7051364,7.92795195 44.9695454,9.63558949 C45.2281257,11.3058979 43.7799699,11.3181147 42.8998431,11.545483 C34.8642477,13.620982 26.8191145,15.6381119 18.7776904,17.6762818 C17.5743381,17.9810232 16.565451,18.2586161 15.9645697,20.1366102 C15.2015458,22.5188867 12.0906338,22.8609572 9.59226038,21.1974359 C7.75146523,19.9723621 7.09335712,18.0855447 7.84313408,15.5559879 C8.66550428,12.7820949 10.5269647,11.778281 13.086274,13.1465629 C14.4978682,13.9012898 15.6021333,13.5802594 16.8489356,12.8974758 C23.9805596,8.9914925 31.1217214,5.11469375 38.2591741,1.22839305 C38.4213167,1.14016058 38.576041,0.996273795 38.7445421,0.963016943 C39.9425956,0.730218979 41.6265469,-1.08397623 42.2078228,0.965731788 C42.7753218,2.96725131 40.6452134,2.79689478 39.6294379,3.34461477 C32.2376439,7.33204346 24.8230651,11.2502436 17.4185541,15.1989857 C17.1165238,15.360519 16.8441667,15.6129996 16.5575028,15.8234001 Z M12.4822134,20.0083338 C13.2817988,19.7687487 14.6531223,20.4223476 14.7198869,18.6434454 C14.8030777,16.4030195 13.5647535,17.4231225 12.6968139,17.6789967 C12.0434746,17.871072 11.6884566,17.55615 11.7923126,16.6364962 C11.8755034,15.9000945 13.1869507,14.8114416 11.4627287,14.5956114 C10.2434801,14.4422227 9.35381541,15.1243275 9.24731,16.7457687 C9.05019549,19.7368493 10.8464809,19.6995201 12.4822134,20.0083338 Z" id="sotcham" fill="#CC2229" sketch:type="MSShapeGroup"></path>
    </g>
</svg>