<?xml version="1.0" encoding="UTF-8" standalone="no"?>
<svg width="45px" height="43px" viewBox="0 0 45 43" version="1.1" xmlns="http://www.w3.org/2000/svg" xmlns:xlink="http://www.w3.org/1999/xlink" xmlns:sketch="http://www.bohemiancoding.com/sketch/ns">
    <!-- Generator: Sketch 3.3.2 (12043) - http://www.bohemiancoding.com/sketch -->
    <title>tatca</title>
    <desc>Created with Sketch.</desc>
    <defs></defs>
    <g id="Styleguide" stroke="none" stroke-width="1" fill="none" fill-rule="evenodd" sketch:type="MSPage">
        <path d="M0,14.2452432 C2.16618774,11.2247346 5.12025963,11.0600271 8.59563832,12.2539385 C11.9870945,13.4190914 14.7032214,15.5219441 18.3731029,17.9664123 C17.6819764,13.3110294 15.9778561,9.67177833 16.3638995,5.78851622 C16.6364008,3.0521062 16.8378148,0.336611416 20.7880961,0.0246258152 C24.5863296,-0.275159231 25.8678755,2.21026796 26.6419371,4.85691675 C27.6075395,8.15716667 26.9450454,11.4617739 25.9537726,15.6936233 C28.7469108,13.4339064 30.1795172,11.0774565 32.7801272,9.95239108 C35.0963882,8.95107416 37.555811,8.18853952 39.561065,10.2120886 C41.5169528,12.1850925 40.7981813,14.3977502 39.0743145,16.1563729 C37.4768251,17.7851469 35.6650865,19.3677331 33.6173776,20.5093563 C29.8191441,22.6261525 31.0572477,23.7825908 34.277897,24.952101 C36.5556523,25.7791243 38.856116,26.5991758 41.0065066,27.6458091 C43.9971094,29.1011609 46.2077267,31.2824457 44.2715854,34.3665715 C42.3482792,37.4289106 39.2540074,36.366591 36.5072734,35.0881472 C34.2314928,34.0293134 32.1117092,32.6750518 29.4528471,32.2175311 C28.8831614,41.1648946 27.9215083,43.2320171 23.644423,42.9801628 C16.2740531,42.5461717 20.5708849,36.4511234 17.9515157,33.1883466 C15.2215663,34.9042674 12.7009294,37.1474264 9.06659162,37.3042907 C7.06035029,37.3914375 4.96919913,37.5178004 3.879194,35.625843 C2.84052968,33.8245183 3.61952792,32.2523898 5.11828498,30.8946424 C5.34734403,30.687233 5.5773904,30.4789521 5.80348748,30.2680568 C8.2796948,27.9595376 12.7927505,25.5847869 12.7009294,23.3581858 C12.5942985,20.7646965 6.91126444,21.3546805 4.04802632,19.71022 C2.33205809,18.7245896 1.04261361,17.4888477 0,15.9881795 L0,14.2452432" id="tatca" fill="#CC2229" sketch:type="MSShapeGroup"></path>
    </g>
</svg>