<?xml version="1.0" encoding="UTF-8" standalone="no"?>
<svg width="31px" height="31px" viewBox="0 0 31 31" version="1.1" xmlns="http://www.w3.org/2000/svg" xmlns:xlink="http://www.w3.org/1999/xlink" xmlns:sketch="http://www.bohemiancoding.com/sketch/ns">
    <!-- Generator: Sketch 3.3.2 (12043) - http://www.bohemiancoding.com/sketch -->
    <title>vegan-icon</title>
    <desc>Created with Sketch.</desc>
    <defs></defs>
    <g id="Styleguide" stroke="none" stroke-width="1" fill="none" fill-rule="evenodd" sketch:type="MSPage">
        <g id="UXpin_export" sketch:type="MSArtboardGroup" transform="translate(-234.000000, -4052.000000)" fill="#CC2229">
            <g id="category-icon-down" sketch:type="MSLayerGroup" transform="translate(228.000000, 4042.152798)">
                <path d="M20.8461538,35.2 C19.1494898,35.2335057 17.7801012,36.1043006 16.2307692,36.4 C13.6754764,35.8951817 12.6313951,34.8706363 12.7692308,32.8 C13.1456904,30.5949097 12.6583934,30.470445 11.6153846,30.4 C8.15720361,31.2515522 6.38682414,29.0340681 7,25.6 C7.76506456,23.8211959 8.7963106,21.8892484 10.4615385,19.6 C11.7665648,17.6556201 14.0149467,16.8191445 17.3846154,17.2 C17.8177218,18.0001858 18.8604753,18.1594274 19.6923077,18.4 C20.8689708,19.0636264 21.4372626,18.8952331 22,18.4 C25.043083,12.9625708 29.908971,11.3793073 34.6923077,10 C36.3814784,9.69583151 36.9785389,10.7194617 37,12.4 C37.0197002,16.8617004 37.055993,21.7588351 35.8461538,26.8 C35.498059,30.6612603 31.010147,34.1540494 26.6153846,34 C24.4610708,34.1284244 23.7445097,34.9177682 23.1538462,36.4 C23.6856446,36.9087449 23.6776779,36.9865353 23.1538462,37.6 C23.3359946,38.1831347 23.941907,40.1407073 22,40 C20.0895613,39.8354944 20.5635804,37.9310023 20.8461538,36.4 C20.5706619,36.1006399 20.746372,35.6618105 20.8461538,35.2 L20.8461538,35.2 Z M30.3793103,24.1964286 C29.6244483,25.4707019 28.7166004,25.7015709 28.1034483,26.6071429 C26.9079387,27.0669058 25.7494983,27.8995704 24.6896552,29.0178571 C24.3941011,30.2150374 24.4354269,31.175561 25.8275862,31.4285714 C29.2256986,31.8324759 33.7987903,28.6572364 33.7931034,25.4017857 C34.6666314,21.3399086 34.7145517,17.3442031 34.9310345,13.3482143 C34.9743764,12.4593582 34.6828979,11.9244288 33.7931034,12.1428571 C30.5837336,13.1063336 27.5937705,14.0880916 24.6896552,16.9642857 C23.0382643,18.66481 23.0008953,19.3388932 24.6896552,21.7857143 C25.3678944,22.0135401 25.4382362,23.0454478 25.8275862,22.9910714 C26.8718885,22.0975746 26.9382735,21.4117446 26.9655172,20.5803571 C26.5193006,19.7206629 26.0787855,18.7795668 25.8275862,18.1696429 C27.4095631,18.1104532 27.069285,19.5123839 28.1034483,20.5803571 C29.2934025,18.9715811 29.7523823,16.9931557 31.5172414,16.9642857 C31.3636476,17.7711526 30.0909019,18.366623 30.3793103,19.375 C30.7468385,19.7906917 31.1974652,18.646738 32.6551724,19.375 C30.070239,21.6543603 26.4819316,22.6252752 25.8275862,26.6071429 C27.4130802,25.9256629 28.3591765,24.4622877 30.3793103,24.1964286 L30.3793103,24.1964286 Z M11.3103448,29.2857143 C14.0815539,28.0299395 17.2040502,28.8695958 19.1551724,26.875 C20.5804563,25.9539502 22.7051465,26.1200675 22.5172414,24.4642857 C22.3051748,22.4764651 20.462418,21.8010168 19.1551724,20.8482143 C13.4157837,18.259567 11.2019279,19.4075906 9.06896552,25.6696429 C8.64966723,28.4380726 9.26491024,29.3560141 11.3103448,29.2857143 L11.3103448,29.2857143 Z M15.2758621,31.4285714 C15.1888689,33.4878033 15.7603436,33.8936352 17.6896552,33.5714286 C18.8576069,33.1352217 19.7199131,32.8330665 20.1034483,32.5 C21.2833642,32.1956764 22.4346496,32.1327442 22.5172414,31.4285714 C22.5939586,30.4840015 21.3940469,30.3528928 21.3103448,30.3571429 C20.6109321,29.7582643 20.4150376,29.6408716 20.1034483,29.2857143 C18.164798,28.741264 15.3685546,29.866782 15.2758621,31.4285714 Z M16.3103448,22.8571429 C16.9466657,22.8856223 17.3404537,23.2659985 17.3448276,23.9285714 C17.3491344,24.5873671 16.9324609,24.9868596 16.3103448,25 C15.6544255,25.0114378 15.2902308,24.6361332 15.2758621,23.9285714 C15.2614267,23.4275121 15.5471005,22.9566259 16.3103448,22.8571429 Z" id="vegan-icon" sketch:type="MSShapeGroup"></path>
            </g>
        </g>
    </g>
</svg>