<?xml version="1.0" encoding="UTF-8" standalone="no"?>
<svg width="680px" height="583px" viewBox="0 0 680 583" version="1.1" xmlns="http://www.w3.org/2000/svg" xmlns:xlink="http://www.w3.org/1999/xlink" xmlns:sketch="http://www.bohemiancoding.com/sketch/ns">
    <!-- Generator: bin/sketchtool 1.4 (311) - http://www.bohemiancoding.com/sketch -->
    <title>maggi_logo</title>
    <desc>Created with bin/sketchtool.</desc>
    <defs></defs>
    <g id="-assets" stroke="none" stroke-width="1" fill="none" fill-rule="evenodd" sketch:type="MSPage">
        <g id="maggi_logo" sketch:type="MSArtboardGroup">
            <g id="icon" sketch:type="MSLayerGroup" transform="translate(30.000000, 20.000000)">
                <path d="M569.99481,219.717094 C567.295179,216.975475 563.661533,215.45055 559.773901,215.45055 C555.935427,215.45055 552.326361,216.938974 549.61444,219.631925 C546.853361,222.3776 545.333539,226.003352 545.321249,229.884609 C545.308959,233.773977 546.828782,237.440285 549.581668,240.177849 C552.309975,242.907301 555.919041,244.391669 559.753418,244.391669 L559.855832,244.379502 C563.690209,244.387613 567.295179,242.878911 570.011196,240.15757 C572.739503,237.424062 574.226553,233.794255 574.226553,229.961666 C574.234746,226.096632 572.751793,222.462769 569.99481,219.717094 L569.99481,219.717094 L569.99481,219.717094 Z M559.769805,217.802827 L559.765708,217.230981 L559.790287,217.798772 C566.426709,217.835272 571.834164,223.290122 571.825971,229.981944 C571.817778,236.616988 566.438999,242.015058 559.773901,242.015058 C553.121093,242.006947 547.709542,236.572376 547.693155,229.912998 C547.709542,223.229287 553.12519,217.802827 559.769805,217.802827 L559.769805,217.802827 L559.769805,217.802827 Z M566.27104,235.603075 C566.160433,235.550352 566.078502,235.416515 566.004764,235.100175 C565.935122,234.942004 565.910543,234.649998 565.89006,234.175486 L565.812226,232.427501 C565.775357,231.54337 565.631977,230.894466 565.263287,230.42401 C565.111714,230.225283 564.910983,230.05089 564.714348,229.912998 C565.025687,229.661548 565.304253,229.385764 565.500887,229.0532 C565.91464,228.420519 566.123564,227.686446 566.156336,226.842871 C566.16453,225.098942 565.369798,223.87008 563.837685,223.241454 C563.206816,222.949447 562.371118,222.783165 561.015158,222.693941 L554.108363,222.714219 L554.104267,236.933328 L557.119332,236.933328 L557.102946,231.332476 L560.847199,231.340587 C561.670607,231.340587 562.022911,231.45009 562.158097,231.523091 C562.608718,231.697484 562.854512,232.13955 562.870898,232.772232 L563.022471,235.205622 C563.03476,235.538185 563.038857,235.761246 563.038857,235.874804 L563.030664,235.988362 L563.04705,236.069475 C563.075726,236.1952 563.128981,236.31687 563.210912,236.552097 L563.329712,236.933328 L566.578282,236.937384 L566.635634,235.745023 L566.27104,235.603075 L566.27104,235.603075 Z M563.104402,227.025375 C563.079822,227.893285 562.79716,228.197458 562.54727,228.36374 C562.186773,228.603023 561.576386,228.73686 560.793944,228.732804 L557.08656,228.716581 L557.135719,225.366615 L561.023351,225.382837 C561.674703,225.386893 562.108938,225.468006 562.367021,225.593731 C562.674263,225.739734 563.079822,226.072298 563.104402,227.025375 L563.104402,227.025375 Z M309.398609,312.992839 C338.344166,262.699269 411.485402,250.321567 476.673506,234.70398 C539.002995,219.747765 619.04419,195.369092 619.190464,133.04525 C619.349276,33.5966741 423.471521,0.883877592 309.983705,0.0132107104 C196.566936,-0.761180506 0.57216185,32.3869495 0.400812173,131.848083 C0.262896581,194.142624 80.1160249,218.851983 142.449694,234.067724 C207.545853,249.949022 280.68709,262.569506 309.398609,312.992839 L309.398609,312.992839 Z" id="Fill-1" fill="#DB322A" sketch:type="MSShapeGroup"></path>
                <path d="M509.670533,158.551008 L509.787688,93.0558766 L533.523976,93.1386222 L533.369165,158.617992 L509.670533,158.551008 L509.670533,158.551008 Z M533.511424,88.0674976 L533.544896,79.3240433 L509.82116,79.3201031 L509.812792,88.0517365 L533.511424,88.0674976 L533.511424,88.0674976 Z M120.03223,157.833879 L120.161936,108.395339 L146.458882,157.84964 L163.852104,157.908744 L188.935666,107.272363 L188.82688,157.979669 L212.081999,157.979669 L212.203337,83.0160743 L178.52149,82.95303 L155.329132,129.322101 L130.387829,82.8702843 L96.8900811,82.8308817 L96.7520065,157.766895 L120.03223,157.833879 L120.03223,157.833879 Z M405.440906,92.8785646 L405.315384,142.120091 C405.248439,165.454357 381.445205,170.273305 362.340694,170.257544 C316.943422,170.135395 316.750954,152.703651 316.72585,147.435512 C316.717481,145.808182 316.738402,145.094993 316.738402,145.094993 L340.863809,145.130456 C340.863809,145.130456 340.821969,146.206149 340.872178,147.498557 C341.114854,155.272705 351.688026,157.648687 361.683794,157.648687 C381.666962,157.69203 381.955663,146.726264 381.913822,144.141449 C381.955663,143.073636 381.951479,138.120719 381.947295,137.478456 C381.947295,137.478456 373.863652,142.068868 357.943226,142.029465 C321.976871,141.966421 316.290705,131.753247 316.340914,116.993003 C316.357651,100.601489 321.160975,90.5222844 356.499718,90.5774482 C374.131433,90.6247314 381.830141,97.0000847 381.830141,97.0000847 L381.859429,92.8431021 L405.440906,92.8785646 L405.440906,92.8785646 Z M381.99332,117.454015 C382.051897,109.805955 378.194175,103.958598 359.85535,103.911314 C347.098089,103.864031 340.821969,106.117864 340.775944,116.886616 C340.759207,127.612025 349.43699,129.314221 360.407649,129.365444 C373.708841,129.377265 382.005872,127.643547 381.99332,117.454015 L381.99332,117.454015 L381.99332,117.454015 Z M501.005303,93.0795182 L500.888149,142.265881 C500.83794,165.619848 477.001234,170.458497 457.892538,170.430915 C412.507818,170.332409 412.302798,152.880963 412.302798,147.620705 C412.281878,146.005195 412.315351,145.256544 412.315351,145.256544 L436.470047,145.295947 C436.470047,145.295947 436.386365,146.37164 436.486783,147.671929 C436.695987,155.434256 447.214765,157.84964 457.22727,157.853581 C477.239726,157.881162 477.499139,146.915397 477.515875,144.31482 C477.503323,143.239127 477.549348,138.28227 477.549348,137.659708 C477.549348,137.659708 469.457337,142.25012 453.549463,142.218598 C417.511978,142.175255 411.846734,131.918738 411.905311,117.186077 C411.926231,100.798503 416.68353,90.6798951 452.068298,90.7626407 C469.708381,90.7744615 477.419642,97.1970981 477.419642,97.1970981 L477.444746,93.0164739 L501.005303,93.0795182 L501.005303,93.0795182 Z M477.599557,117.639207 C477.641398,110.002968 473.733467,104.096507 455.403011,104.072865 C442.695958,104.045283 436.34034,106.303057 436.336156,117.052107 C436.306868,127.797218 445.009755,129.519115 455.967861,129.515175 C469.256501,129.546697 477.578637,127.805098 477.599557,117.639207 L477.599557,117.639207 L477.599557,117.639207 Z M310.332575,117.08757 L310.269814,158.172742 L286.123486,158.113638 L286.119301,154.208833 C275.600523,158.543127 268.412273,159.646402 257.290988,159.583358 C246.186438,159.579418 219.111254,157.818118 219.136358,136.903177 C219.153095,132.813179 217.492015,113.667417 262.094312,113.777745 C278.131892,113.785625 286.182063,117.954429 286.182063,117.954429 C286.182063,117.954429 286.202983,115.219883 286.190431,114.14025 C286.219719,111.358421 285.232276,102.772577 262.926944,102.733174 C254.701042,102.717413 247.95212,104.340804 245.579746,109.159751 C245.077657,110.274847 244.822428,111.216571 244.822428,111.216571 L220.88112,111.157467 C220.88112,111.157467 220.876936,110.259086 220.90204,109.116408 C220.906224,88.9737592 263.023178,90.4907623 266.717721,90.4710609 C289.997944,90.5183441 310.391152,96.0150177 310.332575,117.08757 L310.332575,117.08757 L310.332575,117.08757 Z M286.198799,136.103302 C286.219719,127.190417 276.257424,126.429945 265.282581,126.422064 C254.270081,126.398423 244.780587,127.430773 244.730378,136.241212 C244.713642,141.840332 248.629941,146.726264 263.018994,146.749906 C277.880847,146.797189 286.186247,145.398394 286.198799,136.103302 L286.198799,136.103302 L286.198799,136.103302 Z" id="Fill-377" fill="#FFF101" sketch:type="MSShapeGroup"></path>
            </g>
            <g id="tagline-copy" sketch:type="MSLayerGroup" transform="translate(20.000000, 363.000000)">
                <path d="M365.060362,19.8066073 C366.424466,18.9489486 370.098617,17.324956 370.930883,15.6930221 C371.085157,15.0100717 370.906524,13.564758 371.710371,13.3622552 C373.017638,13.0406332 376.464438,16.3839138 376.513156,16.5665634 C376.785165,18.3732055 371.811867,21.3591283 370.817208,21.6053082 C370.25695,21.7442806 370.581737,21.2122146 369.883446,21.3233926 C369.327248,21.462365 369.887505,21.839576 369.311009,21.9150182 C368.815709,22.0420788 367.386647,22.6535577 366.83045,22.7925301 C362.40523,23.5747466 361.983007,23.4834218 360.955869,22.5781155 C360.716338,21.6648678 364.098181,20.4339687 365.060362,19.8066073 L365.060362,19.8066073 M561.633512,100.235933 C562.66065,101.141239 563.082873,101.228594 567.508093,100.450348 C568.06429,100.311375 569.493352,99.6998963 569.988652,99.5728358 C570.565149,99.4934229 570.000832,99.1201826 570.561089,98.9812101 C571.25938,98.8700321 570.938654,99.4020982 571.494851,99.2631257 C572.48951,99.0169459 577.462808,96.031023 577.190799,94.2243809 C577.142081,94.0417314 573.695281,90.6984507 572.392074,91.0200728 C571.584167,91.2225755 571.7628,92.6678892 571.608526,93.3508396 C570.77626,94.9788029 567.102109,96.6067661 565.738005,97.4644248 C564.775824,98.0917863 561.393981,99.3226853 561.633512,100.235933 L561.633512,100.235933 M527.72983,15.6493451 C527.689231,15.6493451 526.950341,15.7644937 525.52128,15.9947909 C524.088158,16.2250882 522.521061,16.7770074 520.811871,17.6545193 C519.999904,18.1151138 519.167638,18.5717376 518.311013,19.0323321 C518.225756,19.1593926 518.185158,19.3460128 518.185158,19.5961633 C518.185158,20.2235247 518.473406,20.9025045 519.049903,21.6331026 C519.626399,22.3637008 520.255674,22.7289999 520.937726,22.7289999 C521.453325,22.7289999 522.732173,21.9785485 524.78239,20.4736752 C526.832606,18.9688018 528.200771,17.7776092 528.882823,16.9040679 C528.45654,16.0662625 528.074916,15.6493451 527.72983,15.6493451 L527.72983,15.6493451 M135.379257,65.9057617 C135.635027,65.8660553 135.890797,65.9891452 136.142506,66.2829727 C136.55255,66.6998901 136.804259,66.9103341 136.958533,66.9500406 L137.466013,66.9500406 C137.876056,66.9500406 138.895074,66.5331231 140.421572,65.6992883 C141.136103,64.9885434 141.493369,64.194415 141.493369,63.3169031 C141.493369,63.0270462 141.339095,62.4433618 140.933112,61.6492334 C140.47435,61.1449618 140.117085,60.8948114 139.861315,60.8948114 L138.740801,60.8948114 C138.180543,61.2720224 137.315799,61.7723233 136.195284,62.3560077 C135.480753,63.5273471 135.127548,64.4445654 135.127548,65.0719269 C135.127548,65.3657544 135.229043,65.6159048 135.379257,65.9057617 L135.379257,65.9057617 M392.849932,92.5845057 C392.715958,92.3224434 392.476427,92.1278819 392.192239,92.0484691 C392.16382,92.0365571 392.135401,92.0167039 392.098863,91.9968507 C391.985187,91.9293498 391.859332,91.8777314 391.725358,91.8578782 L391.290956,91.7864067 C391.234118,91.7744947 391.17322,91.7705241 391.116383,91.7705241 C390.604843,91.7705241 389.69544,91.9452324 389.127063,93.0530415 C389.029627,93.1602488 388.96061,93.2674562 388.911892,93.3746635 C388.846935,93.4501057 388.72108,93.6089314 388.48155,93.9662892 C388.46937,93.9861424 388.457191,94.0020249 388.445011,94.0218782 C388.250139,94.1251149 388.091806,94.2442341 387.97813,94.3871772 L386.577487,95.3520433 C386.528769,95.3599845 386.484111,95.3718965 386.439453,95.3838084 C386.191803,95.4513093 385.931973,95.5902818 385.647785,95.8086671 C385.310819,95.8880799 384.933254,95.9952873 384.52727,96.1302891 C384.206543,96.2335258 383.979193,96.2573496 383.845218,96.2573496 C383.179405,96.2573496 382.663806,95.4195442 382.347139,94.7167405 L381.734104,93.3428984 C381.644788,93.136425 381.486454,92.969658 381.295642,92.85848 C381.157607,92.6877424 380.974915,92.5646525 380.763803,92.5011222 C380.512094,92.3343553 380.187307,92.3065608 379.890939,92.3859736 C379.8747,92.3859736 379.85846,92.3859736 379.838161,92.3899443 C379.683887,92.4058268 379.537733,92.4534745 379.407819,92.5289167 C379.322562,92.5567112 379.233246,92.592447 379.13581,92.6361241 C378.811023,92.7195076 378.522774,92.9498048 378.37662,93.2555442 C378.352261,93.3111332 378.307603,93.3786341 378.250766,93.4620176 C378.169569,93.5930488 378.120851,93.7399626 378.100552,93.890847 C378.100552,93.890847 378.092432,93.9543772 378.088372,93.990113 C378.039654,94.1608506 376.975977,94.3435002 377.016576,94.5182084 L376.086873,95.0423332 L376.086873,95.2646891 C376.086873,95.5188102 377.219567,95.0264506 377.609312,95.8563148 C377.89756,96.4280873 378.993715,96.2454377 379.156109,96.2454377 L379.273844,96.2454377 L379.294143,97.007801 C379.330682,97.0594193 379.38346,97.484278 379.428118,97.5279551 C379.452477,97.551779 379.480896,97.762223 379.505255,97.7820762 C379.525554,97.8059 379.545853,97.9250193 379.570212,97.9448725 C379.643289,98.0481092 379.728545,98.183111 379.825982,98.250612 C380.012734,98.4809092 380.272563,98.7151771 380.60141,98.9057679 L381.478334,99.4100394 C381.522993,99.4338633 381.567651,99.4576871 381.616369,99.4775404 C381.82748,99.5569532 382.058891,99.6006303 382.306541,99.5847477 C382.428336,99.6165128 382.57043,99.6562193 382.736883,99.6959257 C383.017012,99.7713679 383.30932,99.7832798 383.55697,99.7832798 C384.649065,99.7832798 385.960392,99.4656284 387.645224,98.7747367 C387.888814,98.6516468 388.22984,98.4451734 388.680482,98.1632578 C388.948431,98.1076688 389.2042,97.9607551 389.358474,97.7582523 C389.662962,97.5914854 389.845654,97.4683955 389.922791,97.4088358 C390.231339,97.1666267 390.746938,96.7576505 391.445229,96.1699955 C391.67664,95.9992579 392.013606,95.665724 392.265316,95.399691 C392.358692,95.3043955 392.431769,95.1932176 392.480487,95.0701277 C392.484547,95.0701277 392.488607,95.066157 392.496726,95.0582157 C392.569804,94.9907148 392.630701,94.9152726 392.683479,94.8318891 C393.016385,94.2998231 393.15442,93.9146708 393.15442,93.5533424 C393.15442,93.2158378 393.016385,92.914069 392.849932,92.5845057 L392.849932,92.5845057 M623.046636,84.3335115 L623.046636,82.8445207 L614.265212,82.8445207 L614.265212,84.3335115 L617.789149,84.3335115 L617.789149,97.3651588 L619.49022,97.3651588 L619.49022,84.3335115 L623.046636,84.3335115 M639.724438,97.3651588 L637.844734,82.8445207 L635.810757,82.8445207 L632.676564,93.2753975 C632.603487,93.4739296 632.54259,93.6804029 632.485752,93.8868763 C632.432974,94.0893791 632.392376,94.2799699 632.368017,94.4586488 C632.315239,94.6611515 632.2787,94.8477717 632.266521,95.0145387 L632.225922,95.0145387 C632.193444,94.8477717 632.148786,94.6611515 632.096008,94.4586488 C632.055409,94.2799699 632.014811,94.0893791 631.966093,93.8868763 C631.921435,93.6804029 631.868657,93.4739296 631.815879,93.2753975 L628.653268,82.8445207 L626.61929,82.8445207 L624.735527,97.3651588 L626.339162,97.3651588 L627.691087,86.4776582 C627.715446,86.2751555 627.743865,86.0726527 627.760104,85.8661794 C627.780403,85.659706 627.800702,85.4691151 627.812882,85.2944069 C627.825061,85.0919042 627.837241,84.8973427 627.85348,84.7146932 L627.869719,84.7146932 C627.898138,84.8973427 627.942797,85.0919042 628.003694,85.2944069 C628.044292,85.4691151 628.088951,85.659706 628.141728,85.8661794 C628.194506,86.0726527 628.255404,86.2751555 628.320361,86.4776582 L631.608827,97.3651588 L632.859257,97.3651588 L636.159903,86.4776582 C636.21674,86.2751555 636.269518,86.0726527 636.322296,85.8661794 C636.375074,85.659706 636.423792,85.4691151 636.46033,85.2944069 C636.521228,85.0919042 636.565886,84.8973427 636.594305,84.7146932 L636.630843,84.7146932 C636.630843,84.8973427 636.647083,85.0919042 636.671442,85.2944069 C636.687681,85.4691151 636.70392,85.659706 636.72422,85.8661794 C636.744519,86.0726527 636.764818,86.2751555 636.793237,86.4776582 L638.145162,97.3651588 L639.724438,97.3651588 M87.5138029,37.0789003 C86.9616653,38.2184746 86.1415787,40.898658 85.5935009,42.3082359 C85.3864494,41.7046983 84.7043971,40.4301222 83.9492678,39.3580488 L82.5120862,37.4164049 C83.4011901,37.4164049 84.2902939,37.4164049 87.5138029,37.0789003 L87.5138029,37.0789003 M204.464961,42.0214522 C204.323479,41.9467746 204.175726,41.9032304 204.039187,41.9032304 C203.629143,42.3082359 198.696444,47.7321329 198.010332,48.2721403 C196.983193,49.07421 197.255202,49.07421 196.228064,49.6777476 C195.476995,50.1462833 194.790882,50.4798173 194.173788,50.8173218 C193.077632,51.3533585 191.912459,51.8893952 191.16139,51.8893952 C189.44814,51.8893952 189.379122,48.4031715 189.379122,47.6011018 C189.379122,42.3082359 193.970796,30.4439574 193.970796,29.9793923 C193.970796,28.1687795 190.67827,27.3627391 189.44814,27.3627391 C187.117794,27.3627391 185.335527,29.9118914 185.26651,29.9793923 C184.718432,30.4439574 184.101337,30.9839647 183.622276,31.3174986 L182.867147,31.9210362 L175.539145,38.2184746 L178.141499,30.4439574 C177.731456,29.7093886 175.401111,28.839818 175.129102,28.839818 C174.44299,28.839818 172.388713,28.5023134 172.181661,29.6418877 C171.431173,32.0304983 170.280897,35.6828721 169.159097,39.2668251 C169.058119,39.3124452 168.947481,39.4267828 168.828238,39.6280525 C168.28016,40.565124 162.320322,46.8625623 158.483778,49.8802503 C157.046597,50.9523237 154.306208,52.29043 153.689113,52.29043 C153.482062,52.357931 153.348087,52.2229291 153.27907,51.8893952 L153.141035,51.4843897 L153.072018,49.07421 C153.072018,44.5159129 157.111554,37.547436 158.759847,34.4662178 C159.031856,33.9301811 159.376942,33.6641481 159.92096,32.9256087 C160.128011,32.7270766 160.128011,32.4570729 160.058994,31.9885372 L159.92096,31.3849996 C159.16989,30.3804271 158.004718,30.6464601 156.977579,30.1104235 C157.180571,29.105851 156.839545,27.9662767 156.567536,27.3627391 C156.153433,26.9617043 152.661975,24.8175576 151.975863,24.8175576 C149.442526,24.8175576 148.480345,26.2231649 147.453207,26.8942034 C146.702137,27.3627391 145.601922,28.3712822 144.850852,28.839818 C145.057904,29.105851 144.781835,29.5743868 144.505766,29.8443904 C144.302775,29.8443904 144.578843,29.5743868 143.957689,29.5743868 C143.389539,29.5743868 138.820964,34.5979766 136.037122,37.9730446 L136.037122,37.9730446 C135.965806,38.0016129 135.891298,38.0381531 135.81366,38.0834727 C132.456176,41.9032304 119.712354,53.3625034 115.189698,53.6325071 C112.859353,53.8310392 112.315335,50.416287 112.315335,48.6056742 C112.315335,44.7184156 113.890551,39.6280525 114.64162,37.8174397 C116.285853,33.4616454 117.727095,29.7093886 120.467483,25.9571319 C121.218553,25.0200603 125.055097,22.60591 126.906382,21.2003027 C128.209589,20.1282293 128.960658,19.7946954 130.39784,18.3851174 C131.839081,16.1734698 132.11109,15.3714001 132.11109,14.096824 C132.11109,12.2901819 128.002537,8.60145538 125.534158,8.60145538 C122.314708,8.60145538 117.382009,20.7317669 116.216836,22.4748788 C115.327732,23.6779833 103.546091,28.5698143 98.7473663,29.6418877 C97.992237,29.8443904 96.417021,30.3804271 96.1450121,30.1104235 L105.186265,5.92127199 C105.186265,5.58773806 104.845238,3.64212344 103.956135,3.64212344 C103.201005,3.64212344 104.090109,3.9121271 103.33904,3.9121271 C102.58391,3.9121271 102.10485,2.50651981 101.349721,2.50651981 C100.598651,2.50651981 100.598651,2.57402073 100.391599,2.84005375 C100.050573,5.52023714 98.1302714,11.0156058 97.2411675,13.4932864 C95.0488566,19.322189 91.2813298,29.1733519 89.9781227,31.8535353 C89.6370966,32.7270766 80.3197753,33.3266435 79.7716976,33.3266435 C79.1546027,33.3266435 74.5629293,32.6595757 73.6738254,33.5291463 C75.3180586,39.7590837 78.1274644,35.8718251 81.4159308,41.5021955 C82.6460608,43.5788413 82.6460608,42.240735 82.9911467,49.2767127 C83.1981983,51.4208594 87.3757685,52.8939676 87.7858118,52.4929328 C89.6370966,48.4706724 90.6642348,44.6509147 92.0323992,40.6326249 C92.580477,38.957014 93.6076152,36.3443315 94.0907356,36.0068269 C95.9379605,34.9347536 99.2264268,35.0697554 100.322582,33.6641481 L100.87066,34.2001848 C105.121307,32.9256087 111.081145,30.3129262 111.491188,30.1104235 L112.725378,29.3758547 L113.273456,28.9708492 C111.901232,31.3849996 106.558489,43.6463423 106.558489,46.7275605 C106.558489,50.4798173 111.763197,58.6553693 117.312992,58.6553693 C121.218553,58.6553693 125.400183,54.0335419 126.906382,52.8939676 C128.04346,52.0007595 129.258639,50.7953864 130.448547,49.4297048 C130.442294,49.6514471 130.446834,49.8680123 130.462797,50.0787824 C130.462797,51.6868924 134.847419,55.3716483 136.219643,55.3716483 C139.98717,55.3716483 145.467947,50.416287 147.86731,48.4706724 C148.070302,49.6777476 148.480345,53.7635382 151.289751,55.3716483 C151.837828,55.7091529 151.289751,55.1056153 151.837828,55.1056153 C152.454923,55.1056153 153.003001,56.3087198 153.827148,56.8487271 C153.827148,56.6462244 153.827148,56.5787235 153.892105,56.5112226 L154.030139,56.3762207 C154.237191,56.5787235 154.168174,56.8487271 154.168174,57.1147602 L154.716251,56.5787235 C154.99232,56.8487271 154.647234,56.8487271 155.264329,56.8487271 C155.812407,56.8487271 155.674372,56.1101877 156.291467,56.1101877 C156.908562,56.1101877 156.429502,56.3762207 157.046597,56.3762207 C157.663692,56.3762207 157.935701,55.5066501 158.414761,55.574151 C158.414761,55.308118 158.073735,54.8356116 158.345744,54.5695786 C158.621813,54.5695786 158.552795,54.8356116 159.16989,54.8356116 C160.389266,54.8356116 164.817591,49.8192383 166.548391,47.6852073 L166.548391,47.6852073 C166.05426,49.3094191 165.742763,50.3745697 165.742763,50.4798173 C165.742763,51.8893952 168.686144,53.5650061 169.989351,53.5650061 C170.468411,53.5650061 170.813497,53.4975052 171.016489,53.2950025 C173.415851,49.8802503 180.264793,40.2276194 186.090656,34.5337187 C186.362665,34.7997517 186.159673,35.3397591 186.159673,35.6057921 C185.74557,37.281403 185.404544,38.7545112 185.132535,40.1601185 C184.649415,42.506768 184.170354,44.9884193 184.170354,45.7229881 C183.967362,47.5336008 184.170354,50.5473182 185.063518,51.8218943 C186.224631,53.4975052 189.517157,55.840184 192.39152,55.840184 C194.857023,55.840184 200.372423,51.1222394 203.272194,47.0780087 C204.08836,48.1921588 205.508341,49.2075115 206.104728,50.2812852 L207.472893,50.2812852 C209.872255,46.9975642 212.336575,43.3128083 214.735937,40.1601185 C213.570765,40.1601185 214.735937,39.8940855 214.735937,39.1555461 C214.942989,39.1555461 214.528886,39.4255497 215.145981,39.4255497 C215.556024,39.4255497 219.806671,34.5337187 221.31287,34.2001848 L221.31287,34.7997517 C220.009663,39.0920158 218.36543,43.4478102 218.36543,47.9346357 C218.36543,50.6148191 220.009663,57.8532996 225.766509,57.8532996 C228.70989,57.8532996 230.768226,56.4437216 233.508614,52.8939676 C233.646649,52.6914649 233.918658,52.5604337 234.328701,52.357931 L234.945796,52.1554282 C236.521012,51.1508558 237.962253,48.8042063 239.123366,46.5965293 C239.809478,45.3219532 240.49559,43.9163459 241.112685,42.3757368 C241.112685,41.6371974 240.698582,41.3671937 240.223582,41.1686616 C238.027211,42.6417698 233.577632,48.1371384 229.534036,51.2183567 C227.613734,52.2229291 225.900484,53.4300043 224.601336,53.8985401 C223.850267,52.2229291 223.436164,50.7498209 223.436164,49.4752448 C223.436164,48.9392081 224.325268,42.7767717 225.425483,39.3580488 C226.517579,35.939326 229.054975,29.8443904 229.054975,29.3758547 C229.054975,28.0337777 225.835526,25.2185924 224.670354,25.2185924 C222.685094,25.2185924 214.18786,33.4616454 213.639782,33.997682 C213.570765,33.9301811 213.501748,33.7991499 213.501748,33.731649 C213.501748,33.6641481 213.501748,33.6641481 213.570765,33.5966472 L223.436164,4.44816378 C223.643215,2.64152164 219.940646,1.09694188 219.461585,1.09694188 C217.269275,1.09694188 218.300473,5.25420412 218.300473,5.92127199 C217.886369,6.32627748 215.970127,9.60602783 215.970127,11.0156058 C215.970127,11.6191434 216.449188,11.5516424 216.449188,11.8176755 C213.980808,12.8897488 212.405592,20.8667687 210.554307,25.9571319 C209.076915,30.5737401 206.339616,37.8162783 204.464961,42.0214522 M153.620096,31.7860344 C153.620096,33.731649 148.687396,40.3626213 148.139319,40.898658 C145.877991,43.9163459 142.45149,46.7950614 140.328196,48.3356705 C139.301058,49.07421 138.066868,49.9437806 136.491652,50.9523237 L135.326479,50.9523237 C135.257462,50.9523237 135.257462,50.9523237 135.188445,50.8848227 C135.123488,50.8173218 135.054471,50.6148191 135.054471,50.3487861 C135.054471,44.448412 149.783552,30.0429225 152.795949,30.0429225 C153.348087,30.6464601 153.620096,31.2499977 153.620096,31.7860344 L153.620096,31.7860344 M311.113274,18.5201193 C311.113274,12.8262185 305.015402,6.45730867 298.093384,4.31316195 C294.670943,3.2410886 281.858104,-0.511168158 269.869411,3.57859317 C267.608083,4.31316195 262.403374,6.99731599 261.303159,9.40749572 C260.621107,10.9481048 260.824098,14.1643249 260.824098,14.6328607 C260.824098,18.3176165 263.633504,23.3444494 265.20872,24.0154879 C267.401031,21.7363393 263.633504,15.5739029 266.718979,11.6826736 C267.539066,10.6145709 268.432229,10.1420645 269.459367,9.67352874 C271.444627,8.80395813 274.664076,7.46188111 275.281171,7.46188111 C275.55724,7.46188111 275.691214,7.52938203 275.691214,7.59688294 L275.691214,7.66438386 C273.498903,16.3759726 266.511927,32.5245738 262.675383,41.6371974 C261.920254,41.6371974 261.100167,42.5742689 260.345038,43.0428047 C260.345038,45.3219532 260.004012,49.6102466 260.004012,50.2137842 C260.004012,51.8218943 260.207004,56.7812262 263.49547,56.7812262 C264.047607,56.7812262 265.415772,56.1101877 265.415772,55.6416519 C265.415772,53.8310392 265.346755,51.8893952 265.825815,50.6148191 C266.718979,47.2635972 270.417489,36.1418288 271.992705,33.5291463 C273.429886,36.2093297 277.335447,37.7499388 280.010879,37.7499388 C280.623914,37.7499388 280.761948,37.4839058 281.310026,37.4839058 C281.927121,37.4839058 282.544216,38.0199425 283.161311,38.0199425 C288.158967,38.0199425 311.113274,30.4439574 311.113274,18.5201193 L311.113274,18.5201193 M305.56348,16.7095065 C305.56348,27.3627391 285.077553,33.6641481 279.73481,33.6641481 C278.979681,33.6641481 274.871128,33.3941444 274.871128,31.8535353 C274.871128,31.1824968 277.201473,29.0383501 277.201473,28.3712822 C277.201473,27.5652419 275.419205,27.8352456 274.392067,28.0337777 C274.595059,26.8942034 275.143136,25.7546291 275.143136,25.6910988 C275.143136,25.0875612 275.967283,22.9434145 276.515361,21.4028054 C276.718352,20.664266 281.171991,11.9526773 281.171991,10.0110333 C281.171991,8.80395813 279.255749,7.59688294 278.569637,7.06084626 C281.102974,6.19127565 285.215587,6.19127565 288.024993,6.19127565 C291.520511,6.19127565 305.56348,9.00249023 305.56348,16.7095065 L305.56348,16.7095065 M378.487362,47.6872638 C378.355134,47.9110088 378.26779,48.0483919 378.246706,48.0696375 C377.970637,48.3356705 377.422559,48.1371384 376.874481,48.740676 C376.533455,49.8127494 373.586015,54.3670758 370.638575,55.2406171 C369.270411,55.7091529 369.063359,55.7091529 368.446264,55.7091529 C366.050961,55.7091529 362.214417,52.5604337 361.66634,49.9437806 C361.390271,48.5381733 361.049245,47.1960963 360.980228,45.5919569 C358.44689,48.9392081 354.131286,52.8264667 351.934915,54.6370795 C347.826362,56.1776886 344.330844,54.232074 343.372723,52.7589658 C342.6424,51.7165062 342.100171,49.6603828 342.070773,48.992694 C341.215333,50.335668 340.269677,51.5167691 339.26823,52.1554282 L338.647075,52.357931 C338.237032,52.5604337 337.965023,52.6914649 337.826989,52.8939676 C335.0866,56.4437216 333.032323,57.8532996 330.084883,57.8532996 C324.332097,57.8532996 322.687864,50.6148191 322.687864,47.9346357 C322.687864,43.4478102 324.332097,39.0920158 325.631244,34.7997517 L325.631244,34.2001848 C324.125046,34.5337187 319.878458,39.4255497 319.464355,39.4255497 C318.85132,39.4255497 319.261363,39.1555461 319.054312,39.1555461 C319.054312,39.8940855 317.889139,40.1601185 319.054312,40.1601185 C316.659009,43.3128083 314.190629,46.9975642 311.795327,50.2812852 L310.423102,50.2812852 C309.529939,48.6731751 306.78955,47.1960963 306.996602,45.3219532 C308.02374,44.6509147 312.753448,32.5920747 314.876741,25.9571319 C316.723966,20.8667687 318.299182,12.8897488 320.767562,11.8176755 C320.767562,11.5516424 320.288501,11.6191434 320.288501,11.0156058 C320.288501,9.60602783 322.208803,6.32627748 322.618847,5.92127199 C322.618847,5.25420412 321.591709,1.09694188 323.784019,1.09694188 C324.26308,1.09694188 327.96159,2.64152164 327.758598,4.44816378 L317.889139,33.5966472 C317.824182,33.6641481 317.824182,33.6641481 317.824182,33.731649 C317.824182,33.7991499 317.889139,33.9301811 317.958156,33.997682 C318.506234,33.4616454 327.003469,25.2185924 328.988728,25.2185924 C330.1539,25.2185924 333.37335,28.0337777 333.37335,29.3758547 C333.37335,29.8443904 330.840013,35.939326 329.743857,39.3580488 C328.647702,42.7767717 327.758598,48.9392081 327.758598,49.4752448 C327.758598,50.7498209 328.168641,52.2229291 328.919711,53.8985401 C330.222918,53.4300043 331.936168,52.2229291 333.85241,51.2183567 C337.311236,48.5827325 341.070084,44.1807191 343.457025,42.0406634 L343.457025,42.0406634 C344.734981,38.2584555 346.629612,34.3999404 347.964397,31.5835317 C348.167388,31.3849996 348.581491,31.5200014 348.784483,31.2499977 C348.715466,30.3804271 349.194527,28.9708492 349.539613,28.9708492 C350.156707,28.9708492 349.677647,29.2408528 350.225725,29.2408528 C350.225725,28.2362804 350.497734,27.0292052 350.704785,25.7546291 C350.976794,25.7546291 350.704785,25.4885961 351.455855,25.4885961 C352.828079,25.4885961 355.775519,27.164207 355.775519,28.3037813 C355.775519,28.4387831 346.868241,42.4392671 346.868241,49.9437806 C346.868241,50.4798173 346.868241,51.5518906 347.481276,51.5518906 C351.390897,51.5518906 366.668056,31.1149959 367.488143,27.5652419 C367.695195,26.9617043 368.515281,26.6956713 369.132376,26.6956713 C369.956523,26.6956713 372.765928,28.9033483 372.765928,29.1733519 C372.765928,29.7093886 372.282808,30.1779244 372.079816,30.6464601 C369.54242,35.673293 366.188996,42.5742689 366.188996,48.2046394 C366.188996,48.6731751 366.599039,51.2183567 367.354168,51.5518906 C369.54242,50.8173218 374.548196,45.7229881 375.4373,44.8534175 C375.91636,45.1234211 376.257387,45.1234211 377.012516,45.1234211 C377.629611,45.1234211 377.081533,44.9209184 377.288585,44.7184156 C377.239076,43.7585342 377.893598,42.6597139 378.798073,41.6198228 C381.315242,33.6329123 390.850511,23.8129851 396.463185,23.8129851 C400.847807,23.8129851 403.385204,26.8942034 403.385204,30.3129262 C403.385204,31.7185335 403.040118,35.2722581 401.395885,35.2722581 C399.958703,35.2722581 398.107418,33.2591426 398.107418,32.2545702 C398.107418,31.7860344 399.000582,29.5068859 399.000582,28.9708492 C399.000582,28.5023134 398.862548,27.5652419 398.383487,27.0292052 L397.356349,27.0967061 C395.84609,27.2952382 391.599503,31.7185335 391.327494,31.9885372 C387.49095,35.8082948 384.271501,41.1011607 383.926415,45.5919569 C383.719363,46.8625623 384.202484,52.4254319 386.804838,52.4254319 C391.875572,51.8893952 397.425366,48.6056742 397.904427,48.2721403 C400.096738,47.1960963 400.916824,46.4615275 403.657213,44.7184156 C404.412342,44.1823789 406.807645,42.3082359 407.700809,41.5696965 C408.041835,41.5021955 408.386921,41.5696965 408.727947,41.7721992 L409.073033,42.0382322 C409.073033,42.240735 409.073033,42.5742689 408.865981,43.0428047 C408.041835,44.9884193 401.740971,50.416287 401.671954,50.416287 C401.123876,50.416287 401.25785,50.1462833 401.054859,49.9437806 C400.78285,50.416287 400.368747,50.9523237 400.165755,51.6868924 C399.958703,51.6868924 399.751652,51.5518906 399.479643,51.2858576 C399.000582,51.7543934 398.931565,52.7589658 398.383487,52.7589658 C397.766392,52.7589658 397.766392,52.29043 397.563401,52.29043 C397.563401,54.1010428 394.270874,54.7045804 392.626641,55.574151 C392.285615,55.7726831 390.572365,56.2451895 390.024287,56.4437216 C389.135183,56.6462244 388.242019,56.7137253 387.421933,56.5112226 C387.080907,56.5112226 384.54351,55.7091529 383.378337,54.9031125 C380.787614,53.4333249 379.136744,50.3890586 378.487362,47.6872638 M472.641929,42.9753038 C472.641929,42.240735 471.821842,41.7721992 471.476756,41.7721992 C466.613074,45.524456 457.226735,52.0879273 452.225019,52.0879273 C446.131206,52.0879273 439.964317,43.9838468 439.964317,38.0834727 C439.964317,26.8942034 469.491497,12.6912167 469.491497,10.0785342 C469.491497,8.13291962 466.064996,6.52480958 465.175892,6.72731233 C460.31221,10.1420645 455.927588,13.3582846 452.022027,16.2409707 C445.30706,21.2003027 438.113032,26.5606695 436.813885,28.3712822 L437.154911,26.6281704 L447.430354,3.70962436 C447.430354,3.10608676 445.924155,0.628406115 444.141887,0.628406115 C443.390818,0.628406115 442.294662,0.69590703 441.539533,1.23194371 C440.784404,5.85377107 437.223929,13.6282882 435.579695,17.5830477 C432.839307,24.8175576 423.452968,47.132566 423.452968,48.1371384 C423.452968,50.416287 426.465366,51.8218943 427.975624,51.8218943 C429.274772,51.8218943 431.467082,44.7184156 431.881186,44.114878 C432.701272,42.8442726 433.659393,41.3036634 434.755549,40.2276194 C436.606834,50.2137842 445.035051,57.249762 453.325234,57.249762 C454.352372,57.249762 457.023744,55.7091529 457.226735,55.7091529 C457.981865,55.7091529 457.502804,55.9751859 458.322891,55.9751859 C459.419046,55.9751859 472.641929,45.8579899 472.641929,42.9753038 L472.641929,42.9753038 M507.499499,42.8318336 C505.125273,45.1366698 501.814225,48.8754332 498.742608,51.2183567 C496.822306,52.2229291 495.109056,53.4300043 493.809908,53.8985401 C493.054779,52.2229291 492.644736,50.7498209 492.644736,49.4752448 C492.644736,48.9392081 493.53384,42.7767717 494.629995,39.3580488 C495.726151,35.939326 498.263547,29.8443904 498.263547,29.3758547 C498.263547,28.0337777 495.044098,25.2185924 493.878926,25.2185924 C491.889607,25.2185924 483.396432,33.4616454 482.848354,33.997682 C482.779337,33.9301811 482.71032,33.7991499 482.71032,33.731649 C482.71032,33.6641481 482.71032,33.6641481 482.779337,33.5966472 L492.644736,4.44816378 C492.847728,2.64152164 489.149218,1.09694188 488.670157,1.09694188 C486.477847,1.09694188 487.504985,5.25420412 487.504985,5.92127199 C487.094941,6.32627748 485.174639,9.60602783 485.174639,11.0156058 C485.174639,11.6191434 485.6537,11.5516424 485.6537,11.8176755 C483.18938,12.8897488 481.614164,20.8667687 479.762879,25.9571319 C477.639586,32.5920747 472.913938,44.6509147 471.8868,45.3219532 C471.679748,47.1960963 474.420137,48.6731751 475.30924,50.2812852 L476.681465,50.2812852 C479.080827,46.9975642 481.545147,43.3128083 483.944509,40.1601185 C482.779337,40.1601185 483.944509,39.8940855 483.944509,39.1555461 C484.147501,39.1555461 483.737458,39.4255497 484.354553,39.4255497 C484.764596,39.4255497 489.015243,34.5337187 490.521442,34.2001848 L490.521442,34.7997517 C489.218235,39.0920158 487.574002,43.4478102 487.574002,47.9346357 C487.574002,50.6148191 489.218235,57.8532996 494.975081,57.8532996 C497.918462,57.8532996 499.972738,56.4437216 502.713127,52.8939676 C502.851161,52.6914649 503.12723,52.5604337 503.537273,52.357931 L504.154368,52.1554282 C505.244918,51.4599447 506.269308,50.1211982 507.18308,48.6306466 C508.278205,52.4838024 511.384192,56.3556133 516.069984,56.5112226 C518.331312,56.7137253 522.715934,52.7589658 523.06102,51.4208594 L523.605037,51.9568961 C523.950123,51.6193915 531.554194,43.848845 531.554194,42.6417698 C531.554194,42.4392671 531.485177,40.831157 530.389022,40.831157 C530.18603,40.831157 516.89413,51.9568961 513.536647,51.6868924 C511.823396,51.6868924 512.030448,49.0067091 512.030448,48.0021366 C512.23344,43.9163459 518.87939,31.5200014 518.810372,31.4525005 C518.810372,30.4439574 516.069984,28.2362804 514.766777,28.2362804 C512.807752,28.0274871 509.08619,38.0784885 507.499499,42.8318336 M103.454785,127.085888 C101.285634,129.528135 98.7032811,132.163305 98.507836,132.354457 L97.9597583,131.81842 C97.6146723,133.156526 93.2341104,137.111286 90.9727823,136.908783 C86.2883424,136.756269 83.1803989,132.88501 82.085161,129.032032 C81.17157,130.523431 80.1474312,131.861658 79.0571666,132.556959 L78.4400717,132.755492 C78.0300284,132.957994 77.7539596,133.092996 77.6159252,133.291528 C74.8755366,136.845253 72.8212601,138.25086 69.8738199,138.25086 C64.1210337,138.25086 62.4768006,131.01635 62.4768006,128.332196 C62.4768006,123.845371 64.1210337,119.489576 65.4242408,115.201283 L65.4242408,114.597745 C63.9139821,114.931279 59.6673947,119.82311 59.2573514,119.82311 C58.6402565,119.82311 59.0502998,119.557077 58.8473081,119.557077 C58.8473081,120.295617 57.6821354,120.56165 58.8473081,120.56165 C56.4479456,123.710369 53.9795659,127.395125 51.5842633,130.678846 L50.2120391,130.678846 C49.3229352,129.070736 46.5825466,127.597627 46.7895982,125.719514 C47.8167364,125.052446 52.5423844,112.989635 54.665678,106.354692 C56.5169628,101.264329 58.0921788,93.29128 60.5564986,92.2192067 C60.5564986,91.949203 60.0774381,92.0167039 60.0774381,91.4131663 C60.0774381,90.007559 61.99774,86.723838 62.4077834,86.3228032 C62.4077834,85.6517647 61.3806451,81.4984731 63.572956,81.4984731 C64.0520165,81.4984731 67.7505262,83.0390822 67.5475344,84.8457243 L57.6821354,113.994208 C57.6131182,114.061709 57.6131182,114.061709 57.6131182,114.12921 C57.6131182,114.19671 57.6821354,114.327742 57.7470928,114.395243 C58.2992304,113.863177 66.7924051,105.620124 68.7817243,105.620124 C69.9428371,105.620124 73.1663461,108.435309 73.1663461,109.773415 C73.1663461,110.241951 70.6289492,116.340857 69.5327938,119.755609 C68.4366383,123.174332 67.5475344,129.340739 67.5475344,129.876776 C67.5475344,131.147381 67.9575778,132.62446 68.7127071,134.296101 C70.0118543,133.827565 71.7251046,132.62446 73.6454066,131.615917 C76.7171248,129.272917 80.0282893,125.533985 82.4025315,123.229167 L82.4025315,123.229167 C83.9893538,118.476454 87.7106473,108.428128 89.6695753,108.633841 C90.9727823,108.633841 93.7131709,110.845489 93.7131709,111.850061 C93.7821881,111.917562 87.1362382,124.313906 86.9291867,128.399697 C86.9291867,129.40824 86.7261949,132.088424 88.4394453,132.088424 C91.7285088,132.349351 104.578223,121.6554 105.265602,121.244819 C106.532264,117.188055 107.920203,112.782774 108.783278,110.043419 C108.99033,108.903845 111.044606,109.237379 111.730719,109.237379 C112.002728,109.237379 114.333073,110.106949 114.743116,110.845489 L112.140762,118.620006 L119.468764,112.318597 L120.223893,111.715059 C120.702954,111.381525 121.320049,110.845489 121.868127,110.376953 C121.937144,110.309452 123.719411,107.76427 126.049757,107.76427 C127.279887,107.76427 130.568353,108.56634 130.568353,110.376953 C130.568353,110.845489 125.980739,122.705796 125.980739,127.998662 C125.980739,128.804703 126.049757,132.286956 127.758947,132.286956 C128.514076,132.286956 129.679249,131.750919 130.775404,131.214882 C131.392499,130.881348 132.078612,130.543844 132.829681,130.075308 C133.856819,129.475741 133.58481,129.475741 134.611949,128.669701 C135.298061,128.133664 140.23076,122.705796 140.640803,122.304762 C141.119864,122.304762 141.736959,122.840798 141.736959,123.376835 C141.736959,127.129092 132.419638,136.241715 128.993137,136.241715 C126.118774,136.241715 122.826248,133.895066 121.665135,132.219455 C120.771971,130.948849 120.568979,127.935132 120.771971,126.124519 C120.771971,125.38598 121.251032,122.904329 121.730092,120.56165 C122.006161,119.156042 122.347187,117.678964 122.76129,116.003353 C122.76129,115.73732 122.964282,115.201283 122.692273,114.931279 C116.86641,120.629151 110.017468,130.277811 107.618106,133.696534 C107.415114,133.895066 107.070028,133.962567 106.590967,133.962567 C105.28776,133.962567 102.34438,132.286956 102.34438,130.881348 C102.34438,130.755787 102.787324,129.26364 103.454785,127.085888 M45.0113905,83.1701134 C45.0113905,80.2913979 42.7500624,76.940176 39.1205699,76.940176 C34.2528278,76.940176 28.7720505,80.8274346 27.1278174,83.7101207 C26.8517486,83.7101207 26.989783,83.4401171 26.2387135,83.4401171 C25.8286702,83.4401171 17.2624183,91.0796324 15.277159,93.7598158 C14.3839953,94.8993901 13.5639087,96.7060322 12.9468138,98.3181129 C9.9344162,98.8501789 9.1792869,103.205973 6.98697601,104.949085 C6.36988109,106.489694 4.72564792,108.435309 4.24658739,109.975918 C3.90150142,111.047991 3.97051861,112.453599 3.49145809,113.259639 C3.15043195,113.994208 2.25726825,114.665246 1.98525931,115.133782 C0.751069472,117.813965 0,122.705796 0,123.309334 C0,128.201165 3.21944914,135.503176 8.08313145,138.115858 C9.31326145,138.786897 11.9886927,139.592937 12.5367704,139.592937 L14.5220297,139.592937 C23.839351,139.592937 36.6521902,130.948849 42.6810452,124.111404 C44.1182268,122.439763 44.7353217,120.426648 44.5323299,119.82311 C44.4592529,119.223543 44.3252783,119.156042 43.5011318,119.223543 C39.9406566,122.773297 35.7590265,125.520982 33.2256895,126.926589 C31.9914997,127.80013 31.171413,128.399697 30.6923525,128.669701 C30.9643614,128.935734 31.0333786,129.070736 30.7613697,129.340739 C30.4853009,129.340739 30.8953442,129.070736 30.1442747,129.070736 C29.5271798,129.070736 19.385712,135.773179 12.8777966,135.773179 C6.77992442,135.773179 5.54573459,129.340739 5.54573459,125.588483 C5.54573459,113.192138 18.0865648,97.6470744 27.0588002,89.1379884 C27.6068779,88.399449 36.855182,81.832007 39.1205699,81.832007 C39.8716394,81.832007 40.078691,81.9670088 40.3506999,82.2330419 L40.3506999,83.773651 C40.3506999,86.723838 32.0605169,97.9131074 32.3365856,99.3226853 L32.6085946,99.5212174 C32.8846634,99.5887183 33.1566723,99.6562193 33.4327411,99.6562193 C40.2816827,99.6562193 45.0113905,87.2598747 45.0113905,83.1701134 M178.726115,122.773297 C178.726115,122.034758 178.316072,121.768725 177.837012,121.566222 C175.644701,123.03933 171.191062,128.534699 167.147466,131.615917 C165.231224,132.62446 163.517974,133.827565 162.218826,134.296101 C161.463697,132.62446 161.053654,131.147381 161.053654,129.876776 C161.053654,129.340739 161.942758,123.174332 163.038913,119.755609 C164.135069,116.340857 166.672465,110.241951 166.672465,109.773415 C166.672465,108.435309 163.448956,105.620124 162.287844,105.620124 C160.298524,105.620124 151.80129,113.863177 151.253212,114.395243 C151.188255,114.327742 151.119238,114.19671 151.119238,114.12921 C151.119238,114.061709 151.119238,114.061709 151.188255,113.994208 L161.053654,84.8457243 C161.256646,83.0390822 157.558136,81.4984731 157.079075,81.4984731 C154.886764,81.4984731 155.913903,85.6517647 155.913903,86.3228032 C155.503859,86.723838 153.583557,90.007559 153.583557,91.4131663 C153.583557,92.0167039 154.062618,91.949203 154.062618,92.2192067 C151.598298,93.29128 150.023082,101.264329 148.171797,106.354692 C146.048504,112.989635 141.322856,125.052446 140.295718,125.719514 C140.088666,127.597627 142.829055,129.070736 143.718158,130.678846 L145.090383,130.678846 C147.485685,127.395125 149.954065,123.710369 152.349368,120.56165 C151.188255,120.56165 152.349368,120.295617 152.349368,119.557077 C152.556419,119.557077 152.146376,119.82311 152.763471,119.82311 C153.173514,119.82311 157.420101,114.931279 158.93036,114.597745 L158.93036,115.201283 C157.627153,119.489576 155.98292,123.845371 155.98292,128.332196 C155.98292,131.01635 157.627153,138.25086 163.383999,138.25086 C166.327379,138.25086 168.381656,136.845253 171.122045,133.291528 C171.260079,133.092996 171.532088,132.957994 171.946191,132.755492 L172.563286,132.556959 C174.138502,131.552387 175.575684,129.205738 176.740856,126.99409 C177.426968,125.719514 178.11308,124.313906 178.726115,122.773297 L178.726115,122.773297 M94.5170182,101.570069 C95.6578319,102.495228 96.1125334,102.570671 100.805703,101.546245 C101.394379,101.375507 102.892458,100.656821 103.416177,100.501966 C104.025152,100.394759 103.412117,100.017548 104.000793,99.8428394 C104.743743,99.6959257 104.423016,100.27961 105.011692,100.108872 C106.063189,99.7991624 111.243538,96.3963221 110.870034,94.478502 C110.809136,94.2839405 106.972592,90.8612471 105.596308,91.2622819 C104.743743,91.5124324 104.995452,93.0451002 104.865538,93.7876103 C104.049511,95.5624873 100.196727,97.4604542 98.779845,98.4332615 C97.7811256,99.1440064 94.2247101,100.605203 94.5170182,101.570069 L94.5170182,101.570069 M240.654838,87.1248729 C239.355691,84.7146932 236.956329,84.8457243 235.312095,84.6471922 C231.406534,84.3096877 223.323403,84.2461574 222.568273,84.2461574 C221.817204,84.2461574 221.951179,84.8457243 221.200109,84.8457243 C220.44498,84.8457243 220.241988,84.2461574 219.486859,84.2461574 C218.731729,84.2461574 206.950088,84.5796913 206.194959,84.5796913 C205.43983,84.5796913 201.879354,84.6471922 200.02807,84.6471922 C197.494733,84.6471922 194.547292,83.9761537 193.930197,83.9761537 C193.179128,83.9761537 192.216947,84.8457243 192.216947,85.5842638 C192.216947,88.8004838 199.410975,90.273592 200.369096,90.273592 C201.055208,90.273592 206.950088,89.6740251 207.701158,89.6740251 C208.456287,89.6740251 209.138339,89.2690196 209.62146,89.8725572 C207.770175,96.5075001 203.864614,109.304879 202.768458,113.259639 C202.496449,114.462744 196.739603,130.21031 196.739603,133.962567 C196.739603,135.904211 199.410975,137.647323 201.331277,137.647323 C202.082346,137.647323 203.523588,137.111286 203.523588,136.444218 C203.178502,133.561532 203.592605,128.669701 204.68876,125.652013 C206.397951,119.624578 208.046244,114.061709 209.552442,109.034876 C212.08578,100.52579 214.688134,91.5481682 215.650315,89.5390233 C218.321686,89.0665169 222.499256,88.5344508 225.722765,88.4669499 C229.762301,88.2644472 238.876631,88.1294453 239.6277,88.1294453 C239.765734,88.1294453 239.903769,88.0659151 240.106761,87.9984141 C240.313812,87.7959114 240.585821,87.5934087 240.654838,87.1248729 L240.654838,87.1248729 M263.398034,122.034758 C263.605085,120.962685 263.195042,118.751037 262.439913,120.025613 C261.891835,120.962685 255.931997,127.260123 252.095453,130.277811 C250.658272,131.349884 247.913823,132.687991 247.300788,132.687991 C247.093737,132.755492 246.955702,132.62446 246.886685,132.286956 L246.748651,131.885921 L246.683693,129.475741 C246.683693,124.917444 250.723229,117.948967 252.367462,114.867749 C252.643531,114.327742 252.984557,114.061709 253.532635,113.32714 C253.739686,113.124637 253.739686,112.854633 253.670669,112.386098 L253.532635,111.78256 C252.781565,110.777988 251.616393,111.047991 250.589254,110.511955 C250.792246,109.507382 250.45122,108.367808 250.175151,107.76427 C249.765108,107.363236 246.27365,105.219089 245.587538,105.219089 C243.050141,105.219089 242.09202,106.624696 241.064882,107.291764 C240.309752,107.76427 239.213597,108.768843 238.462527,109.237379 C238.665519,109.507382 238.39351,109.975918 238.117441,110.241951 C237.91445,110.241951 238.186459,109.975918 237.569364,109.975918 C236.818294,109.975918 229.076189,118.751037 227.703965,120.899154 C225.511654,124.178905 223.867421,127.80013 224.074472,130.480314 C224.074472,132.088424 228.459094,135.773179 229.827258,135.773179 C233.594785,135.773179 239.079622,130.813848 241.474925,128.872204 C241.681977,130.075308 242.09202,134.165069 244.901426,135.773179 C245.449503,136.106713 244.901426,135.503176 245.449503,135.503176 C246.066598,135.503176 246.614676,136.710251 247.434763,137.246288 C247.434763,137.043785 247.434763,136.976284 247.50378,136.908783 L247.641814,136.777752 C247.848866,136.976284 247.779849,137.246288 247.779849,137.512321 L248.327926,136.976284 C248.599935,137.246288 248.258909,137.246288 248.876004,137.246288 C249.424082,137.246288 249.286047,136.511719 249.903142,136.511719 C250.520237,136.511719 250.041177,136.777752 250.658272,136.777752 C251.271307,136.777752 251.547376,135.904211 252.026436,135.971712 C252.026436,135.705679 251.68541,135.237143 251.957419,134.967139 C252.233488,134.967139 252.16447,135.237143 252.781565,135.237143 C254.218747,135.237143 260.109568,128.268666 260.79568,127.260123 C262.098887,125.453481 263.057008,123.845371 263.398034,122.034758 L263.398034,122.034758 M247.231771,112.187566 C247.231771,114.12921 242.299071,120.764152 241.750994,121.300189 C239.489666,124.313906 236.063165,127.196593 233.939871,128.737202 C232.912733,129.475741 231.678543,130.345312 230.103327,131.349884 L228.938155,131.349884 C228.869137,131.349884 228.869137,131.349884 228.80012,131.282383 C228.735163,131.214882 228.662086,131.01635 228.662086,130.746347 C228.662086,124.849943 243.395227,110.444454 246.407624,110.444454 C246.955702,111.047991 247.231771,111.647558 247.231771,112.187566 L247.231771,112.187566 M326.284878,83.1701134 C326.284878,80.2913979 324.02355,76.940176 320.394057,76.940176 C315.530375,76.940176 310.049598,80.8274346 308.405364,83.7101207 C308.129296,83.7101207 308.26733,83.4401171 307.512201,83.4401171 C307.102157,83.4401171 298.535906,91.0796324 296.550646,93.7598158 C295.661542,94.8993901 294.837396,96.7060322 294.220301,98.3181129 C291.207904,98.8501789 290.452774,103.205973 288.260463,104.949085 C287.643368,106.489694 285.999135,108.435309 285.520075,109.975918 C285.179049,111.047991 285.248066,112.453599 284.769005,113.259639 C284.423919,113.994208 283.534815,114.665246 283.258747,115.133782 C282.028617,117.813965 281.273487,122.705796 281.273487,123.309334 C281.273487,128.201165 284.492936,135.503176 289.356619,138.115858 C290.590809,138.786897 293.26218,139.592937 293.810258,139.592937 L295.795517,139.592937 C305.116898,139.592937 317.925678,130.948849 323.954532,124.111404 C325.395774,122.439763 326.012869,120.426648 325.805817,119.82311 C325.7368,119.223543 325.598766,119.156042 324.778679,119.223543 C321.214144,122.773297 317.036574,125.520982 314.499177,126.926589 C313.269047,127.80013 312.4449,128.399697 311.96584,128.669701 C312.241909,128.935734 312.310926,129.070736 312.034857,129.340739 C311.758788,129.340739 312.172891,129.070736 311.417762,129.070736 C310.800667,129.070736 300.663259,135.773179 294.151284,135.773179 C288.057472,135.773179 286.823282,129.340739 286.823282,125.588483 C286.823282,113.192138 299.360052,97.6470744 308.336347,89.1379884 C308.884425,88.399449 318.132729,81.832007 320.394057,81.832007 C321.149187,81.832007 321.352178,81.9670088 321.628247,82.2330419 L321.628247,83.773651 C321.628247,86.723838 313.338064,97.9131074 313.610073,99.3226853 L313.886142,99.5212174 C314.158151,99.5887183 314.434219,99.6562193 314.706228,99.6562193 C321.55923,99.6562193 326.284878,87.2598747 326.284878,83.1701134 L326.284878,83.1701134 M396.632389,129.617628 C394.572763,131.998679 391.522397,135.237143 390.539886,135.237143 C389.922791,135.237143 389.991808,134.967139 389.719799,134.967139 C389.443731,135.237143 389.788817,135.705679 389.788817,135.971712 C389.305696,135.904211 389.033687,136.777752 388.416592,136.777752 C387.799497,136.777752 388.282618,136.511719 387.661463,136.511719 C387.048428,136.511719 387.186462,137.246288 386.634325,137.246288 C386.02129,137.246288 386.362316,137.246288 386.086247,136.976284 L385.542229,137.512321 C385.542229,137.246288 385.607187,136.976284 385.404195,136.777752 L385.26616,136.908783 C385.197143,136.976284 385.197143,137.043785 385.197143,137.246288 C384.377057,136.710251 383.828979,135.503176 383.211884,135.503176 C382.663806,135.503176 383.211884,136.106713 382.663806,135.773179 C379.8544,134.165069 379.444357,130.075308 379.237305,128.872204 C376.837943,130.813848 371.357166,135.773179 367.589639,135.773179 C366.360557,135.773179 362.697131,132.799504 361.96501,131.029066 C361.44176,131.665269 360.894799,132.197184 360.330654,132.556959 L359.713559,132.755492 C359.303516,132.957994 359.031507,133.092996 358.893472,133.291528 C356.153084,136.845253 354.094747,138.25086 351.151367,138.25086 C345.394521,138.25086 343.750288,131.01635 343.750288,128.332196 C343.750288,123.845371 345.394521,119.489576 346.697728,115.201283 L346.697728,114.597745 C345.191529,114.931279 340.940882,119.82311 340.530839,119.82311 C339.913744,119.82311 340.327847,119.557077 340.120795,119.557077 C340.120795,120.295617 338.955623,120.56165 340.120795,120.56165 C337.725493,123.710369 335.257113,127.395125 332.857751,130.678846 L331.489586,130.678846 C330.596423,129.070736 327.856034,127.597627 328.063085,125.719514 C329.090224,125.052446 333.815872,112.989635 335.943225,106.354692 C337.79045,101.264329 339.365666,93.29128 341.834046,92.2192067 C341.834046,91.949203 341.354985,92.0167039 341.354985,91.4131663 C341.354985,90.007559 343.271227,86.723838 343.68533,86.3228032 C343.68533,85.6517647 342.654132,81.4984731 344.850503,81.4984731 C345.325504,81.4984731 349.028073,83.0390822 348.821022,84.8457243 L338.955623,113.994208 C338.886606,114.061709 338.886606,114.061709 338.886606,114.12921 C338.886606,114.19671 338.955623,114.327742 339.02464,114.395243 C339.572718,113.863177 348.069952,105.620124 350.055212,105.620124 C351.220384,105.620124 354.439833,108.435309 354.439833,109.773415 C354.439833,110.241951 351.906496,116.340857 350.810341,119.755609 C349.710126,123.174332 348.821022,129.340739 348.821022,129.876776 C348.821022,131.147381 349.235125,132.62446 349.986194,134.296101 C351.289401,133.827565 353.002652,132.62446 354.918894,131.615917 C358.348099,129.002864 362.072209,124.653547 364.461883,122.493701 L364.461883,122.493701 C364.779131,121.956949 365.115729,121.423685 365.466345,120.899154 C366.838569,118.751037 374.576615,109.975918 375.331744,109.975918 C375.948839,109.975918 375.67683,110.241951 375.879822,110.241951 C376.151831,109.975918 376.4279,109.507382 376.220848,109.237379 C376.975977,108.768843 378.072133,107.76427 378.827262,107.291764 C379.8544,106.624696 380.812521,105.219089 383.345858,105.219089 C384.031971,105.219089 387.527488,107.363236 387.937532,107.76427 C388.213601,108.367808 388.554627,109.507382 388.347575,110.511955 C389.374713,111.047991 390.539886,110.777988 391.295015,111.78256 L391.43305,112.386098 C391.502067,112.854633 391.502067,113.124637 391.295015,113.32714 C390.746938,114.061709 390.405911,114.327742 390.129843,114.867749 C388.48561,117.948967 384.446074,124.917444 384.446074,129.475741 L384.511031,131.885921 L384.649065,132.286956 C384.718083,132.62446 384.856117,132.755492 385.059109,132.687991 C385.676204,132.687991 388.416592,131.349884 389.857834,130.277811 C393.289338,127.578712 398.419473,122.255821 399.856615,120.491475 C401.250781,116.091243 403.01899,109.574883 403.689692,109.574883 C405.333925,109.574883 407.802304,110.579456 408.691408,111.449026 C407.66427,113.795676 406.909141,116.003353 406.158071,118.215 C406.089054,118.282501 406.089054,118.282501 406.089054,118.350002 C406.089054,118.417503 406.158071,118.485004 406.292046,118.620006 C409.37752,115.602318 414.241203,110.106949 414.858298,110.106949 C416.843557,110.106949 419.998049,111.115492 419.998049,112.5886 L418.901893,120.899154 C419.583946,120.426648 420.95617,118.620006 421.43523,118.620006 C422.052325,118.620006 421.845274,118.886039 422.121342,118.886039 C422.121342,118.15147 428.422206,108.56634 431.300629,108.56634 C433.01388,108.56634 434.865164,110.376953 434.865164,111.381525 C434.865164,111.917562 433.764949,115.872321 433.423923,117.277929 C432.327768,121.097686 430.273491,125.787015 430.273491,129.138237 C430.273491,130.21031 430.273491,130.611345 431.162595,131.417385 C434.451061,130.007807 439.452778,125.922017 439.931838,125.922017 C440.548933,125.922017 439.521795,126.390552 440.13889,126.390552 C440.617951,126.390552 440.755985,125.719514 441.235045,125.453481 C441.714106,123.77787 443.634408,122.503294 445.826719,120.160615 C446.029711,120.359147 446.715823,120.764152 446.715823,121.363719 C446.715823,124.782442 439.042735,132.354457 438.835683,132.354457 C437.808545,133.025495 433.561957,135.638178 432.737811,135.638178 C432.124776,135.638178 431.645715,135.638178 430.890586,135.368174 C430.890586,135.102141 428.767292,134.701106 429.039301,134.431102 C425.888869,132.088424 425.409809,130.746347 425.409809,127.260123 C425.409809,126.660556 426.505964,121.633723 427.054042,118.620006 C424.654679,121.566222 422.600403,124.448908 420.339075,127.597627 C419.929031,127.998662 418.353816,133.156526 416.295479,133.156526 C414.651246,133.156526 411.776883,131.349884 411.776883,129.674273 C411.776883,128.872204 414.172185,119.958112 413.969194,118.15147 C411.431797,120.629151 408.074313,124.246406 405.130933,127.395125 C404.375804,128.133664 400.470242,134.768607 398.415966,134.768607 C397.729854,134.768607 395.537543,132.489458 395.675577,131.683418 C396.03129,130.987622 396.345391,130.301303 396.632389,129.617628 M384.990092,112.187566 C384.990092,114.12921 380.061452,120.764152 379.509314,121.300189 C377.252046,124.313906 373.825545,127.196593 371.702252,128.737202 C370.671054,129.475741 369.440924,130.345312 367.865708,131.349884 L366.700535,131.349884 C366.631518,131.349884 366.631518,131.349884 366.562501,131.282383 C366.493483,131.214882 366.424466,131.01635 366.424466,130.746347 C366.424466,124.849943 381.157607,110.444454 384.170005,110.444454 C384.718083,111.047991 384.990092,111.647558 384.990092,112.187566 L384.990092,112.187566 M502.546673,83.1701134 C502.546673,80.2913979 500.285345,76.940176 496.655853,76.940176 C491.788111,76.940176 486.307333,80.8274346 484.6631,83.7101207 C484.387032,83.7101207 484.525066,83.4401171 483.773996,83.4401171 C483.363953,83.4401171 474.797701,91.0796324 472.812442,93.7598158 C471.919278,94.8993901 471.099192,96.7060322 470.482097,98.3181129 C467.465639,98.8501789 466.71457,103.205973 464.522259,104.949085 C463.905164,106.489694 462.260931,108.435309 461.78187,109.975918 C461.436784,111.047991 461.505802,112.453599 461.026741,113.259639 C460.685715,113.994208 459.792551,114.665246 459.520542,115.133782 C458.286352,117.813965 457.535283,122.705796 457.535283,123.309334 C457.535283,128.201165 460.754732,135.503176 465.618414,138.115858 C466.848544,138.786897 469.523976,139.592937 470.072053,139.592937 L472.057313,139.592937 C481.374634,139.592937 494.187473,130.948849 500.216328,124.111404 C501.65351,122.439763 502.270605,120.426648 502.067613,119.82311 C501.998596,119.223543 501.860561,119.156042 501.040475,119.223543 C497.475939,122.773297 493.294309,125.520982 490.760972,126.926589 C489.530842,127.80013 488.706696,128.399697 488.227635,128.669701 C488.499644,128.935734 488.568662,129.070736 488.296653,129.340739 C488.020584,129.340739 488.430627,129.070736 487.679558,129.070736 C487.062463,129.070736 476.920995,135.773179 470.413079,135.773179 C464.315207,135.773179 463.081018,129.340739 463.081018,125.588483 C463.081018,113.192138 475.621848,97.6470744 484.594083,89.1379884 C485.146221,88.399449 494.390465,81.832007 496.655853,81.832007 C497.406922,81.832007 497.613974,81.9670088 497.885983,82.2330419 L497.885983,83.773651 C497.885983,86.723838 489.5958,97.9131074 489.871869,99.3226853 L490.143878,99.5212174 C490.419946,99.5887183 490.691955,99.6562193 490.968024,99.6562193 C497.816966,99.6562193 502.546673,87.2598747 502.546673,83.1701134 L502.546673,83.1701134 M531.18069,131.615917 C529.260388,132.62446 527.547137,133.827565 526.24799,134.296101 C525.492861,132.62446 525.082817,131.147381 525.082817,129.876776 C525.082817,129.340739 525.971921,123.174332 527.068077,119.755609 C528.164232,116.340857 530.701629,110.241951 530.701629,109.773415 C530.701629,108.435309 527.47812,105.620124 526.317007,105.620124 C524.327688,105.620124 515.834513,113.863177 515.286436,114.395243 C515.213359,114.327742 515.148401,114.19671 515.148401,114.12921 C515.148401,114.061709 525.082817,84.8457243 525.082817,84.8457243 C525.285809,83.0390822 521.587299,81.4984731 521.108239,81.4984731 C518.915928,81.4984731 519.943066,85.6517647 519.943066,86.3228032 C519.533023,86.723838 517.612721,90.007559 517.612721,91.4131663 C517.612721,92.0167039 518.091782,91.949203 518.091782,92.2192067 C515.627462,93.29128 514.052246,101.264329 512.200961,106.354692 C510.077667,112.989635 505.352019,125.052446 504.324881,125.719514 C504.11783,127.597627 506.858218,129.070736 507.747322,130.678846 L509.119546,130.678846 C511.518909,127.395125 513.983229,123.710369 516.382591,120.56165 C515.213359,120.56165 516.382591,120.295617 516.382591,119.557077 C516.585583,119.557077 516.175539,119.82311 516.792634,119.82311 C517.202678,119.82311 521.449265,114.931279 522.959524,114.597745 L522.959524,115.201283 C521.656317,119.489576 520.012083,123.845371 520.012083,128.332196 C520.012083,131.01635 521.656317,138.25086 527.409103,138.25086 C530.356543,138.25086 532.41082,136.845253 535.151208,133.291528 C535.289243,133.092996 535.561251,132.957994 535.975355,132.755492 L536.59245,132.556959 C537.59537,131.917361 538.542334,130.733724 539.398766,129.387273 C539.424618,130.04432 539.964169,132.114442 540.696943,133.156526 C541.659124,134.633605 545.150582,136.575249 549.263195,135.03464 C551.455505,133.227998 555.77111,129.340739 558.304447,125.989517 C558.373464,127.597627 558.71855,128.935734 558.990559,130.345312 C559.538637,132.957994 563.375181,136.106713 565.774543,136.106713 C566.391638,136.106713 566.59463,136.106713 567.966854,135.638178 C570.910235,134.768607 573.857675,130.21031 574.202761,129.138237 C574.746779,128.534699 575.294856,128.737202 575.570925,128.467198 C575.70896,128.332196 578.518365,123.511837 578.518365,121.633723 C578.518365,121.030185 578.242297,121.097686 578.242297,120.831653 L577.284176,120.831653 C575.846994,122.16976 574.543787,123.77787 574.612804,125.119947 C574.405753,125.318479 574.95383,125.520982 574.336735,125.520982 C573.581606,125.520982 573.24058,125.520982 572.761519,125.250978 C571.872416,126.124519 566.870699,131.214882 564.678388,131.953422 C563.923259,131.615917 563.513215,129.070736 563.513215,128.6022 C563.513215,122.971829 566.870699,116.070854 569.404036,111.047991 C569.611087,110.579456 570.090148,110.106949 570.090148,109.574883 C570.090148,109.304879 567.280742,107.093232 566.456596,107.093232 C565.843561,107.093232 565.019414,107.363236 564.812363,107.966773 C563.992276,111.516527 548.715117,131.953422 544.809556,131.953422 C544.192461,131.953422 544.192461,130.881348 544.192461,130.345312 C544.192461,122.840798 553.099739,108.836344 553.099739,108.701342 C553.099739,107.561768 550.152298,105.886157 548.784134,105.886157 C548.029005,105.886157 548.305073,106.15616 548.029005,106.15616 C547.821953,107.426766 547.549944,108.633841 547.549944,109.638413 C547.001866,109.638413 547.480927,109.37238 546.863832,109.37238 C546.522806,109.37238 546.043745,110.777988 546.108703,111.647558 C545.905711,111.917562 545.495668,111.78256 545.288616,111.985063 C543.954905,114.799207 542.06375,118.653781 540.787009,122.433069 M610.505805,108.56634 C610.574822,108.165305 610.505805,107.831771 610.302814,107.494267 C608.244477,106.95823 604.891053,107.426766 603.177803,107.426766 C602.491691,107.426766 595.021595,108.232806 594.339542,108.232806 C593.994456,108.232806 593.243387,108.367808 592.626292,108.435309 L591.461119,108.56634 L602.215622,86.8588399 C602.215622,85.7867665 599.544251,83.4401171 598.858139,83.4401171 C597.900018,83.4401171 592.41924,94.4943846 589.885903,101.399331 C589.406843,102.872439 587.896584,105.687625 587.76261,105.818656 C587.145515,107.093232 586.662394,107.966773 586.321368,108.56634 C586.118377,108.971346 585.842308,109.304879 585.639316,109.638413 C582.691876,110.710487 578.514306,111.115492 577.962168,112.187566 C577.962168,115.403786 581.457686,117.34543 581.457686,118.350002 C581.457686,120.426648 577.41409,125.922017 577.41409,130.611345 C577.41409,131.81842 578.307254,135.169642 579.675418,135.83671 L580.158539,136.039213 C580.430548,136.106713 580.840591,136.106713 581.185677,135.83671 C582.622859,132.957994 585.501282,126.323051 585.708333,123.710369 C584.608118,122.102259 587.214532,117.746465 588.651714,115.403786 C589.268808,114.395243 591.392102,114.12921 592.281206,113.795676 C595.569672,112.723602 601.326518,111.584028 605.642123,110.845489 C607.010287,110.646956 610.095762,109.908417 610.302814,109.169878 L610.505805,108.56634" id="Fill-378" fill="#51351F" sketch:type="MSShapeGroup"></path>
                <path d="M435.78192,180.462254 C435.58483,180.488193 434.948906,180.838821 433.993084,181.431934 C432.67225,181.721511 430.901081,181.703592 428.658152,181.46491 C374.038982,172.886719 319.028456,173.887961 264.81176,184.061635 C260.647911,184.82159 256.492801,185.640437 252.338995,186.506134 C247.125454,187.310919 219.07846,194.629283 217.634475,195.761194 C217.539303,195.786017 217.24842,195.813448 216.949143,195.776155 C216.567151,195.828599 212.578661,196.93007 212.487207,196.960915 C212.358497,197.001726 212.234194,197.036894 212.105828,197.071873 C211.915753,197.185867 211.924837,197.238927 211.933576,197.297819 C211.938253,197.356523 212.051593,197.437818 212.242896,197.440854 C211.966732,197.632731 211.502984,197.827594 210.930571,197.999864 C210.729226,197.891086 210.424583,197.806755 210.114918,197.669553 C208.46813,198.166241 206.820997,198.668761 205.177582,199.177304 C204.371895,199.022914 203.182913,198.874119 201.576483,198.688391 C201.329793,198.244136 200.792489,197.89166 200.077567,197.718091 C199.284488,196.8683 198.787314,196.043948 198.700687,195.37318 C198.609039,194.649542 198.808351,193.828292 199.202759,192.945919 C199.643739,192.516054 200.448964,191.851613 201.433953,190.903089 C204.137907,190.028546 206.844889,189.17169 209.558272,188.344374 C224.909194,183.939727 240.34295,180.270006 255.834469,177.345744 C258.793545,176.635114 261.759021,175.954024 264.726836,175.302286 C265.019443,175.245691 265.886265,174.917483 267.229368,174.389146 C267.518181,174.39671 267.816078,174.457334 268.208457,174.504799 C320.623669,165.101364 373.750491,164.193949 426.524667,172.142534 C428.315846,173.062072 430.106412,173.923096 432.003381,174.70718 C432.793776,175.533452 433.655618,176.667171 434.55859,178.276539 C434.808729,178.662468 435.341741,179.225296 435.844779,179.950494 C435.822587,180.119073 435.804113,180.293675 435.78192,180.462254 L435.78192,180.462254 L435.78192,180.462254 Z" id="Fill-379" fill="#DB322A" sketch:type="MSShapeGroup"></path>
            </g>
        </g>
    </g>
</svg>